<svg width="262" height="236" viewBox="0 0 262 236" fill="none" xmlns="http://www.w3.org/2000/svg">
<g clip-path="url(#clip0)">
<path fill-rule="evenodd" clip-rule="evenodd" d="M95.367 81.5597C96.3172 77.7509 96.2258 73.7007 94.1336 70.1563C88.1038 59.9374 74.4911 69.605 74.2855 76.375C74.0799 83.1451 81.1878 96.5303 85.3767 95.6374C87.0486 95.282 89.7392 92.7808 91.9866 89.2546L97.0709 104.48L108.975 98.5668L95.367 81.5597Z" fill="#E59D73"/>
<path fill-rule="evenodd" clip-rule="evenodd" d="M103.877 198.131C100.342 202.1 102.393 210.255 106.243 210.97C117.773 213.111 174.065 212.788 177.605 212.879C181.141 212.975 183.151 207.275 178.889 206.122C172.101 204.291 148.443 198.815 137.215 197.762C132.578 197.325 128.156 196.965 124.2 196.683C135.205 193.042 151.074 187.202 171.818 179.156L170.128 172.363C152.979 174.24 140.764 176.122 133.487 178.017C121.03 181.256 110.277 184.468 106.426 185.949C100.369 188.272 101.168 194.441 103.877 198.131Z" fill="#E59D73"/>
<path fill-rule="evenodd" clip-rule="evenodd" d="M161.033 171.124L106.001 183.051C96.7374 186.641 104.01 202.929 109.149 202.077C120.82 200.141 159.991 186.505 163.472 185.926L161.033 171.124Z" fill="#FE7235"/>
<path fill-rule="evenodd" clip-rule="evenodd" d="M167.053 171.019C168.41 169.889 169.474 169.188 170.251 168.914C171.192 168.582 172.626 168.258 174.545 167.935C174.929 169.024 178.387 178.828 184.91 197.339C182.649 198.992 181.123 199.029 180.342 197.453C179.561 195.876 178.894 194.573 178.35 193.544L167.423 182.022C167.213 181.798 167.222 181.452 167.446 181.243C167.451 181.238 167.455 181.234 167.46 181.234L169.287 179.607C169.461 177.835 169.383 176.468 169.045 175.516C168.771 174.741 168.081 173.785 166.976 172.637C166.551 172.199 166.565 171.498 167.003 171.074C167.012 171.051 167.03 171.033 167.053 171.019Z" fill="white"/>
<path fill-rule="evenodd" clip-rule="evenodd" d="M176.381 204.236C178.122 203.931 179.396 203.858 180.205 204.009C181.187 204.191 182.589 204.624 184.412 205.302C184.197 206.437 182.279 216.651 178.647 235.936C175.86 236.237 174.522 235.513 174.632 233.759C174.746 232.005 174.824 230.542 174.865 229.376L171.178 213.945C171.105 213.649 171.292 213.348 171.589 213.28C171.594 213.28 171.599 213.275 171.603 213.275L174.001 212.779C175.043 211.33 175.655 210.109 175.842 209.116C175.993 208.309 175.879 207.134 175.49 205.589C175.344 204.997 175.705 204.396 176.299 204.25C176.331 204.245 176.354 204.241 176.381 204.236Z" fill="white"/>
<path fill-rule="evenodd" clip-rule="evenodd" d="M28.9294 104.089C19.2863 112.148 9.64314 120.207 0 128.271C3.62702 136.896 7.25862 145.52 10.8856 154.149C19.4416 145.114 27.9975 136.085 36.5535 127.05C34.0091 119.396 31.4692 111.743 28.9294 104.089Z" fill="white"/>
<path fill-rule="evenodd" clip-rule="evenodd" d="M109.88 213.207C124.347 215.913 159.384 215.375 162.572 215.968L165.359 201.225C134.839 197.749 119.477 195.667 119.272 194.979C118.961 193.945 130.299 157.092 132.423 145.802C135.488 129.52 126.457 120.859 107.491 116.74L101.424 148.996C100.894 155.693 101.379 191.247 101.365 204.414C101.356 210.054 105.892 212.46 109.88 213.207Z" fill="#FEA734"/>
<path fill-rule="evenodd" clip-rule="evenodd" d="M97.651 82.7806C95.8695 75.3955 97.9571 68.7166 95.8147 66.0833C94.3849 64.3292 92.5942 63.6869 90.4335 64.1561C87.4871 60.7301 83.4581 60.6526 78.3465 63.9238C70.6767 68.8259 67.374 74.5709 73.1206 80.7396C75.0849 79.7646 77.1085 77.8921 80.9822 77.4548C82.211 77.3135 83.5403 78.1154 84.9656 79.8557L86.4456 79.1222C86.7197 76.0789 87.711 74.5208 89.4194 74.4433C91.1233 74.3659 92.1922 75.7053 92.617 78.4662L96.075 83.5688L97.651 82.7806Z" fill="#182228"/>
<path fill-rule="evenodd" clip-rule="evenodd" d="M29.0573 107.747C20.3004 115.068 11.5434 122.385 2.78192 129.706C6.07548 137.538 9.3736 145.374 12.6672 153.206C20.4374 145.005 28.2076 136.8 35.9733 128.599C33.671 121.647 31.3642 114.695 29.0573 107.747Z" fill="#1D1513"/>
<path fill-rule="evenodd" clip-rule="evenodd" d="M58.0552 133.465C49.7505 144.021 41.4458 154.572 33.1411 165.128C25.7226 161.466 18.2995 157.807 10.881 154.144C19.437 145.11 27.9929 136.08 36.5489 127.046C43.7207 129.187 50.8879 131.328 58.0552 133.465Z" fill="white"/>
<path fill-rule="evenodd" clip-rule="evenodd" d="M77.9079 140.736L57.1142 141.319C52.8111 139.871 48.8963 139.041 45.3743 138.832C44.4013 138.955 42.8848 139.511 45.3469 140.9C47.8137 142.294 50.3261 143.866 50.0018 144.855C49.6774 145.848 47.503 145.825 47.2792 147.31C47.133 148.299 50.623 147.925 57.7537 146.19L74.989 149.652L77.9079 140.736ZM150.745 112.084L141.431 118.144C158.753 130.69 167.999 137.31 169.164 138.012C171.79 139.584 172.023 144.408 172.393 146.846C176.285 146.071 172.827 141.866 177.779 140.946C182.301 140.107 186.805 140.969 189.304 136.167C189.61 135.574 189.437 134.212 187.559 134.271C182.872 134.422 175.687 134.034 174.239 133.31C172.265 132.326 164.436 125.251 150.745 112.084Z" fill="#E59D73"/>
<path fill-rule="evenodd" clip-rule="evenodd" d="M98.9346 94.3527L94.4077 95.5053C88.5697 107.451 93.0099 128.312 87.9256 133.479C83.1201 138.367 73.8561 139.543 62.6781 140.568L62.2304 147.848C74.8428 152.677 96.9795 151.885 102.918 144.449C112.41 132.568 105.124 107.61 98.9346 94.3527Z" fill="#0077FF"/>
<path fill-rule="evenodd" clip-rule="evenodd" d="M137.813 134.153C120.77 141.388 108.231 146.714 100.2 150.121C98.4824 150.85 97.8611 148.499 97.6327 147.274C94.997 133.16 100.255 114.503 92.4206 96.1431L102.621 90.02C117.088 99.0953 126.96 113.633 137.813 134.153Z" fill="white"/>
<path fill-rule="evenodd" clip-rule="evenodd" d="M135.991 119.501C148.927 128.586 159.164 134.736 166.706 137.948L174.001 133.224C156.926 107.273 133.364 92.7763 103.32 89.7239L103.197 89.7785L99.026 91.5508C101.931 125.315 107.673 146.194 116.248 154.194L150.106 139.821C146.488 132.836 141.518 125.939 135.991 119.501Z" fill="#0077FF"/>
</g>
<defs>
<clipPath id="clip0">
<rect width="262" height="236" fill="white"/>
</clipPath>
</defs>
</svg>
