<svg width="192" height="219" viewBox="0 0 192 219" fill="none" xmlns="http://www.w3.org/2000/svg">
<g clip-path="url(#clip0)">
<path fill-rule="evenodd" clip-rule="evenodd" d="M113.127 84.2129C98.0588 96.0298 75.8613 109.576 74.5956 109.91C73.7494 110.131 58.1341 106.901 27.7414 100.219L26.9376 105.908C57.9081 117.721 74.6762 123.449 77.2431 123.085C81.0887 122.541 109.071 108.345 126.612 100.908L113.127 84.2129Z" fill="#F7CDAC"/>
<path fill-rule="evenodd" clip-rule="evenodd" d="M115.856 87.5861L86.9222 138.484L60.1013 178.584L63.6836 183.019L128.178 102.843L115.856 87.5861Z" fill="#F7CDAC"/>
<path fill-rule="evenodd" clip-rule="evenodd" d="M60.2868 175.434C58.9559 175.874 58.0372 176.294 57.5326 176.704C56.9171 177.202 56.0994 178.023 55.0802 179.182C55.6583 179.895 60.8435 186.317 70.6369 198.442C72.6955 197.612 73.3587 196.603 72.6211 195.417C71.8835 194.232 71.2757 193.241 70.8072 192.443L67.5735 180.281C67.5098 180.044 67.2688 179.906 67.0364 179.97C67.0322 179.969 67.0268 179.972 67.0268 179.972L65.1642 180.518C63.8901 179.893 63.0042 179.269 62.497 178.648C62.0869 178.14 61.7278 177.276 61.4167 176.052C61.2978 175.582 60.818 175.296 60.3502 175.419C60.3278 175.418 60.3073 175.426 60.2868 175.434Z" fill="white"/>
<path fill-rule="evenodd" clip-rule="evenodd" d="M50.2824 158.88L69.6233 178.14L129.371 104.321L114.101 85.4173L50.2824 158.88Z" fill="#FE7235"/>
<path fill-rule="evenodd" clip-rule="evenodd" d="M28.5086 98.927C27.314 98.1918 26.4001 97.759 25.7608 97.6361C24.9823 97.4851 23.8255 97.387 22.2801 97.3512C22.1047 98.2511 20.5144 106.336 17.5134 121.605C19.4758 122.646 20.6775 122.506 21.1124 121.181C21.5474 119.856 21.9164 118.756 22.227 117.886L29.4803 107.608C29.6206 107.408 29.5717 107.135 29.3727 106.998C29.3708 106.994 29.365 106.992 29.365 106.992L27.7467 105.919C27.4061 104.544 27.3147 103.466 27.465 102.679C27.591 102.039 28.0227 101.211 28.7621 100.187C29.0463 99.7947 28.9566 99.2446 28.5607 98.9661C28.5434 98.9498 28.524 98.9393 28.5086 98.927Z" fill="white"/>
<path fill-rule="evenodd" clip-rule="evenodd" d="M36.5579 100.335L31.3345 127.364C59.0573 129.13 76.3277 129.268 83.1444 127.782C89.9611 126.297 104.893 117.884 127.935 102.545L110.744 81.2622C90.9918 95.3961 80.5292 102.636 79.3532 102.977C78.1772 103.318 63.9115 102.434 36.5579 100.335Z" fill="#FEA734"/>
<path fill-rule="evenodd" clip-rule="evenodd" d="M148.27 49.7708C147.8 46.6797 148.173 43.4806 150.097 40.8271C155.634 33.1806 165.701 41.8656 165.36 47.2478C165.019 52.6299 158.393 62.7013 155.137 61.6828C153.841 61.2751 151.893 59.0947 150.374 56.1284L145.214 67.816L136.221 62.2361L148.27 49.7708Z" fill="#F7CDAC"/>
<path fill-rule="evenodd" clip-rule="evenodd" d="M165.081 49.5832C165.316 49.0045 165.461 48.2872 165.593 47.6849C165.764 46.9063 165.778 46.1169 165.737 45.3444C165.664 43.8839 165.382 42.435 164.917 41.0868C164.07 38.6226 162.382 36.4627 160.069 35.3908C158.9 34.8492 157.59 34.6066 156.266 34.7384C155.069 34.8547 153.722 35.2858 152.629 34.701C151.445 34.0642 151.022 32.4084 150.491 31.2199C149.896 29.8817 149.114 28.6889 148.029 27.7414C146.213 26.1529 143.893 25.6582 141.47 26.4484C138.893 27.2875 136.21 29.2012 135.731 32.1344C135.642 32.6799 135.649 33.1923 135.794 33.7013C135.927 34.1705 136.211 34.754 136.059 35.2779C135.9 35.8316 135.124 36.1949 134.705 36.5274C134.105 37.0023 133.527 37.5289 133.18 38.2322C132.606 39.3843 132.646 40.8493 132.927 42.0154C133.212 43.2008 133.86 44.1794 134.708 44.9756C135.277 45.5043 135.891 45.986 136.579 46.3465C136.919 46.5256 137.265 46.6152 137.625 46.736C137.975 46.8588 138.098 47.0471 138.255 47.377C138.98 48.9101 140.095 50.0204 141.567 50.7723C142.811 51.4073 144.35 51.9674 145.815 51.7555C147.441 51.5235 148.193 50.2738 148.76 48.7962C148.944 49.0925 149.633 49.6355 149.517 48.8337C149.471 48.5158 149.194 48.2259 149.045 47.9666C148.871 47.6641 148.72 47.3129 148.662 46.9553C148.429 45.5106 150.442 44.1119 151.67 44.4327C153.491 44.9146 152.49 47.2816 153.237 48.5153C153.666 49.2246 154.593 49.1943 155.344 49.0385C156.347 48.8284 157.272 48.3007 158.143 47.7217C158.861 47.2473 159.565 46.7458 160.291 46.2779C160.629 46.06 161.673 45.4964 161.642 44.991C162.873 45.4538 163.81 46.6617 164.38 47.8425C164.617 48.331 164.745 48.7852 164.684 49.3474C164.669 49.4666 164.595 49.8065 164.709 49.8922C164.933 50.0581 165.023 49.7271 165.081 49.5832Z" fill="#B87C5E"/>
<path fill-rule="evenodd" clip-rule="evenodd" d="M154.22 102.944L161.075 118.965C163.834 121.79 165.927 124.511 167.349 127.128C167.589 127.909 167.652 129.239 165.59 127.798C163.528 126.356 161.297 124.933 160.564 125.49C159.832 126.048 160.617 127.698 159.43 128.332C158.638 128.754 157.721 125.979 156.683 120.003L147.631 107.961L154.22 102.944Z" fill="#F7CDAC"/>
<path fill-rule="evenodd" clip-rule="evenodd" d="M107.344 61.4865L114.53 67.9284C93.1975 80.7798 81.9917 87.4757 80.9049 88.0095C78.4611 89.2133 77.5143 93.5142 76.8268 95.6702C73.6841 94.6733 77.2363 91.1774 73.2314 89.9732C69.5731 88.8725 65.6648 89.2947 64.319 84.8028C64.1537 84.2517 64.5108 83.0406 66.078 83.2439C69.9827 83.7416 76.0592 83.9506 77.3846 83.4134C79.1889 82.6783 89.1759 75.3725 107.344 61.4865Z" fill="#F7CDAC"/>
<path fill-rule="evenodd" clip-rule="evenodd" d="M139.743 55.4088L143.516 56.2718C140.912 78.1281 163.846 103.312 162.548 111.352C162.071 114.299 159.572 114.849 160.232 116.082L154.266 117.517C153.868 116.292 151.527 117.254 148.553 114.662C145.575 112.069 130.092 78.556 139.743 55.4088Z" fill="#E6E6E6"/>
<path fill-rule="evenodd" clip-rule="evenodd" d="M150.441 66.9962C131.428 87.6314 138.801 103.761 128.6 109.755C120.179 114.702 92.1529 103.152 94.5237 93.0662C95.4843 88.9834 97.7746 85.0528 100.925 81.37C97.4996 83.3094 94.6164 85.0364 92.2754 86.5508C88.2361 89.1665 84.0683 86.4455 82.8776 87.7807L79.2211 82.1401C81.1653 80.6225 79.669 77.7079 83.8941 74.2082C102.821 58.5231 121.926 51.9398 141.208 54.4583L142.912 52.7979C143.609 52.1212 144.725 52.1334 145.408 52.83L153.728 61.3356C154.407 62.031 154.396 63.145 153.699 63.8259L150.441 66.9962Z" fill="#FCF5EF"/>
</g>
<defs>
<clipPath id="clip0">
<rect x="48.7848" width="148.133" height="185.73" transform="rotate(15.2283 48.7848 0)" fill="white"/>
</clipPath>
</defs>
</svg>
