<svg width="345" height="115" viewBox="0 0 345 115" fill="none" xmlns="http://www.w3.org/2000/svg">
<path d="M213.678 112.941H130.62C126.927 112.941 123.933 109.948 123.933 106.259V7.18121C123.933 3.49234 126.927 0.5 130.62 0.5H213.678C217.371 0.5 220.365 3.49234 220.365 7.18121V106.259C220.365 109.948 217.371 112.941 213.678 112.941Z" fill="white" stroke="#E6E6E6"/>
<path d="M169.458 54.2949C169.458 54.2915 169.458 54.2847 169.458 54.2814C169.496 54.2983 169.536 54.3153 169.577 54.3322L170.426 54.6036C170.738 54.6749 171.085 54.7257 171.468 54.7596L172.103 50.1735C169.591 51.7203 167.122 52.4699 165.965 52.1646C163.143 51.4218 162.81 41.1605 164.851 36.6455C164.118 32.8056 170.144 30.9026 174.792 32.5478C174.836 29.3015 177.423 26.6861 180.608 26.6861C183.82 26.6861 186.424 29.349 186.424 32.6326C186.424 35.9162 183.82 38.579 180.608 38.579C180.391 38.579 180.177 38.5655 179.967 38.5417C180.768 42.8125 178.354 47.3139 176.846 47.3512L178.147 53.5486C178.177 53.569 178.211 53.586 178.242 53.6063H178.544C178.585 53.6945 178.622 53.7793 178.663 53.8675C185.433 58.1009 191.347 63.2231 196.406 69.2306C202.141 63.3215 205.668 55.2685 205.668 46.3878C205.668 28.2601 190.96 13.5619 172.813 13.5619C154.665 13.5619 139.957 28.2567 139.957 46.3878C139.957 59.0813 147.172 70.0922 157.724 75.5536C162.603 68.7184 166.372 61.5575 169.404 54.2814L169.458 54.2949Z" fill="white"/>
<path d="M174.364 54.7189C174.415 54.2135 174.459 53.837 174.5 53.6063H177.926L177.912 53.3994C177.994 53.4469 178.072 53.4978 178.153 53.5486L176.853 47.3512C176.846 47.3512 176.84 47.3512 176.836 47.3512C176.677 46.0554 176.018 45.0547 175.084 44.2236C175.322 43.8538 175.461 43.4129 175.461 42.938C175.461 41.6252 174.392 40.5601 173.074 40.5601C172.178 40.5601 171.4 41.0519 170.99 41.7779C168.212 40.4447 165.387 39.1998 164.868 36.71C164.865 36.6896 164.861 36.6693 164.858 36.6455C162.817 41.1605 163.153 51.4218 165.971 52.1646C167.129 52.4699 169.598 51.7237 172.11 50.1735L171.475 54.7596C172.283 54.8275 173.244 54.8139 174.364 54.7189Z" fill="#D9814E"/>
<path d="M179.427 38.5858C179.63 41.5302 178.418 44.1591 176.632 46.303L176.853 47.3478C178.361 47.3139 180.771 42.8125 179.973 38.5383C180.184 38.5621 180.398 38.5757 180.615 38.5757C183.827 38.5757 186.431 35.9128 186.431 32.6292C186.431 29.3456 183.827 26.6828 180.615 26.6828C177.43 26.6828 174.843 29.2981 174.799 32.5444C170.148 30.8992 164.124 32.8022 164.858 36.6421C164.919 36.5064 164.983 36.3741 165.048 36.252C167.289 31.9677 178.843 30.102 179.427 38.5858Z" fill="#533226"/>
<path d="M170.986 41.7745C171.394 41.0486 172.175 40.5567 173.071 40.5567C174.388 40.5567 175.458 41.6218 175.458 42.9346C175.458 43.4095 175.318 43.8471 175.081 44.2202C176.014 45.0513 176.673 46.052 176.833 47.3478C176.84 47.3478 176.846 47.3478 176.85 47.3478L176.629 46.303C178.415 44.1592 179.627 41.5302 179.423 38.5858C178.839 30.102 167.285 31.9677 165.041 36.2486C164.977 36.3741 164.912 36.5031 164.851 36.6387C164.854 36.6591 164.858 36.6794 164.861 36.7032C165.384 39.1964 168.209 40.4414 170.986 41.7745Z" fill="#533226"/>
<path d="M169.577 54.3323C169.825 54.4408 170.11 54.5324 170.426 54.6036L169.577 54.3323Z" fill="#FE7235"/>
<path d="M169.458 54.2949L169.414 54.2813C166.382 61.5575 162.614 68.7184 157.735 75.5536C159.887 76.6662 162.179 77.5516 164.579 78.1723C167.618 69.2272 169.455 61.2013 169.458 54.2949Z" fill="#FE7235"/>
<path d="M171.468 54.7596C171.088 54.7257 170.742 54.6749 170.426 54.6036L171.445 54.9259L171.468 54.7596Z" fill="white"/>
<path d="M169.458 54.2813C169.458 54.2848 169.458 54.2916 169.458 54.295L169.578 54.3324C169.54 54.3154 169.496 54.2984 169.458 54.2813Z" fill="white"/>
<path d="M173.943 55.7196C173.964 56.3845 174.015 57.219 174.083 58.162C174.191 56.7 174.283 55.5365 174.364 54.7156C173.247 54.8139 172.283 54.8275 171.472 54.7563L171.448 54.9259L173.943 55.7196Z" fill="white"/>
<path d="M170.528 61.5711L171.448 54.9259L170.429 54.6037C170.11 54.5324 169.828 54.4442 169.581 54.3323L169.462 54.295C169.458 61.198 167.621 69.2272 164.583 78.169C167.133 78.8271 169.801 79.1832 172.548 79.207C173.098 72.2972 173.519 66.1404 173.838 61.5711H170.528Z" fill="white"/>
<path d="M173.943 55.7197L171.448 54.9259L170.528 61.5712H173.838C173.926 60.3093 174.008 59.1661 174.083 58.162C174.015 57.219 173.964 56.3845 173.943 55.7197Z" fill="white"/>
<path d="M178.666 53.8675C178.625 53.7793 178.588 53.6945 178.547 53.6063H178.245C178.215 53.586 178.181 53.569 178.15 53.5486L179.539 60.1735C182.37 65.0956 184.506 70.4145 186.102 76.4152C189.993 74.6954 193.486 72.2429 196.406 69.2306C191.351 63.2231 185.436 58.1009 178.666 53.8675Z" fill="#FEA734"/>
<path d="M177.923 53.6063H174.497C174.456 53.8336 174.412 54.2101 174.361 54.719C174.84 54.6782 175.342 54.6206 175.879 54.5493C177.213 56.3743 178.429 58.2434 179.542 60.1736L178.153 53.5487C178.072 53.4978 177.994 53.4503 177.912 53.3994L177.923 53.6063Z" fill="#FEA734"/>
<path d="M179.834 61.5711H174.334C174.741 67.063 175.152 73.983 173.94 76.6629C173.543 77.5448 173.091 78.3895 172.606 79.2104C172.677 79.2104 172.748 79.2138 172.816 79.2138C177.546 79.2138 182.038 78.2131 186.102 76.4186C184.503 70.4179 182.37 65.099 179.539 60.1769L179.834 61.5711Z" fill="#FEA734"/>
<path d="M174.364 54.719C174.283 55.5399 174.191 56.7034 174.083 58.1654C174.154 59.1865 174.246 60.3432 174.337 61.5745H179.837L179.542 60.1736C178.432 58.2434 177.216 56.3744 175.879 54.5494C175.346 54.6206 174.84 54.6749 174.364 54.719Z" fill="#FEA734"/>
<path d="M174.334 61.5712H173.835C173.512 66.1404 173.095 72.2972 172.545 79.207C172.565 79.207 172.585 79.207 172.609 79.207C173.095 78.3861 173.543 77.5414 173.943 76.6595C175.155 73.9831 174.741 67.0631 174.334 61.5712Z" fill="#FEA734"/>
<path d="M173.838 61.5711H174.337C174.246 60.3431 174.157 59.1864 174.083 58.162C174.008 59.1661 173.926 60.3092 173.838 61.5711Z" fill="#FEA734"/>
<path d="M172.82 79.2138C190.965 79.2138 205.675 64.5171 205.675 46.3878C205.675 28.2585 190.965 13.5619 172.82 13.5619C154.674 13.5619 139.964 28.2585 139.964 46.3878C139.964 64.5171 154.674 79.2138 172.82 79.2138Z" stroke="#0077FF" stroke-width="3" stroke-miterlimit="10"/>
<path d="M208.609 90.4859H137.2V93.722H208.609V90.4859Z" fill="#E6E6E6"/>
<path d="M208.609 97.2329H137.2V100.469H208.609V97.2329Z" fill="#E6E6E6"/>
<path d="M90.2416 113.711H7.18768C3.49439 113.711 0.5 110.719 0.5 107.03V7.95506C0.5 4.2662 3.49439 1.27386 7.18768 1.27386H90.245C93.9383 1.27386 96.9327 4.2662 96.9327 7.95506V107.033C96.9295 110.719 93.935 113.711 90.2416 113.711Z" fill="white" stroke="#E6E6E6"/>
<path d="M85.1759 91.2597H13.7676V94.4958H85.1759V91.2597Z" fill="#E6E6E6"/>
<path d="M85.1759 98.0068H13.7676V101.243H85.1759V98.0068Z" fill="#E6E6E6"/>
<path d="M47.197 55.6997L48.6807 55.4656L49.1798 51.9581C46.5892 53.505 44.0462 54.2546 42.8545 53.9493C39.8599 53.1827 39.5849 42.321 41.9004 38.0401C41.9344 37.9757 41.9751 37.9078 42.0125 37.8434C39.6867 37.0055 39.0179 35.0923 39.3744 32.8908C41.7578 34.3935 54.1402 28.8575 56.3233 37.7789C58.8629 42.2328 56.8835 46.8428 54.2251 48.4269C54.113 48.2946 54.0044 48.1623 53.8957 48.0334C53.8788 48.0538 53.8618 48.0741 53.8448 48.0945L55.1927 54.3293H55.8514H56.3097H56.4082C62.8048 58.3117 68.3628 63.0234 73.0923 68.4508C78.3821 62.6231 81.6041 54.8924 81.6041 46.4052C81.6041 28.2775 66.896 13.5792 48.7486 13.5792C30.6011 13.5792 15.893 28.2741 15.893 46.4052C15.893 60.5912 24.9005 72.6775 37.5138 77.2603C40.2198 71.5682 42.9258 62.9861 47.1494 57.6197C47.18 56.9887 47.197 56.3476 47.197 55.6997Z" fill="white"/>
<path d="M52.9824 54.3292H55.1927L53.8448 48.0944C53.8618 48.0741 53.8788 48.0537 53.8957 48.0334C53.3186 47.3346 52.8025 46.6562 52.3339 46.0015C52.7787 45.5707 53.0571 44.9669 53.0571 44.2986C53.0571 42.9858 51.9842 41.9207 50.6567 41.9207C50.3477 41.9207 50.0523 41.9784 49.7807 42.0835C48.6637 40.3094 47.7402 38.956 46.4364 38.2334C44.5521 38.3929 43.1023 38.2368 42.0125 37.8467C41.9717 37.9112 41.9344 37.9756 41.9004 38.0435C39.5849 42.3244 39.8599 53.1895 42.8545 53.9527C44.0496 54.258 46.5926 53.5117 49.1798 51.9615L48.6807 55.469L52.85 54.8075C52.8907 54.6481 52.9383 54.4887 52.9824 54.3292Z" fill="#E59D73"/>
<path d="M56.7239 40.3773C56.9311 43.2946 55.7088 45.8997 53.8957 48.0334C54.0044 48.1657 54.1096 48.2946 54.2251 48.4269C56.8835 46.8428 58.8629 42.2328 56.3233 37.7789C54.1368 28.8609 41.7544 34.3969 39.3744 32.8908C39.0213 35.0957 39.6867 37.0089 42.0125 37.8434C44.5792 33.7015 56.1332 32.0224 56.7239 40.3773Z" fill="#182228"/>
<path d="M46.4364 38.2335C47.7368 38.956 48.6637 40.3095 49.7807 42.0836C50.0523 41.9784 50.3477 41.9207 50.6567 41.9207C51.9808 41.9207 53.0571 42.9859 53.0571 44.2986C53.0571 44.9669 52.7787 45.5673 52.3339 46.0015C52.8024 46.6562 53.3185 47.3346 53.8957 48.0334C55.7087 45.8997 56.931 43.2946 56.7239 40.3773C56.1331 32.0224 44.5758 33.7049 42.009 37.8468C43.1023 38.2369 44.5521 38.3929 46.4364 38.2335Z" fill="#182228"/>
<path d="M47.1528 57.623C42.9292 62.9894 40.2266 71.5715 37.5172 77.2636C39.0315 77.8131 40.5967 78.2575 42.206 78.5797C44.6234 72.2567 46.8337 65.3808 47.1528 57.623Z" fill="#FEA734"/>
<path d="M48.6773 55.4656L47.1936 55.6997C47.1936 56.3476 47.18 56.9853 47.1528 57.6197C47.618 57.0294 48.1001 56.4799 48.6026 55.9745L48.6773 55.4656Z" fill="#FCF5EF"/>
<path d="M48.7248 55.8557L52.1166 56.4425C52.1234 56.7207 52.1302 57.0056 52.137 57.2905C52.3679 56.4696 52.6055 55.642 52.8466 54.8041L48.6773 55.4656L48.606 55.9744C48.6467 55.9371 48.684 55.8964 48.7248 55.8557Z" fill="#FCF5EF"/>
<path d="M47.5534 63.3592L48.6059 55.9745C48.1035 56.4799 47.6213 57.0294 47.1562 57.6197C46.837 65.3809 44.6267 72.2534 42.2094 78.5764C43.7338 78.8851 45.2956 79.0852 46.8914 79.1734C47.7843 74.3871 48.9828 69.1157 50.4903 63.3558H47.5534V63.3592Z" fill="#FCF5EF"/>
<path d="M52.1166 56.4426L48.7248 55.8557C48.6841 55.8964 48.6433 55.9371 48.606 55.9779L47.5535 63.3626H50.4869C50.9996 61.3951 51.5496 59.3734 52.137 57.294C52.1302 57.0057 52.1268 56.7207 52.1166 56.4426Z" fill="#FCF5EF"/>
<path d="M56.4116 54.3292H56.3131H55.8547C59.671 60.5301 62.1563 67.4975 63.8573 75.5607C67.3476 73.7527 70.4746 71.3341 73.0957 68.4507C68.3661 63.0233 62.8082 58.3116 56.4116 54.3292Z" fill="#FEA734"/>
<path d="M55.8513 54.3292H55.1927L55.2165 54.4309L55.8513 54.3292Z" fill="#FEA734"/>
<path d="M52.8466 54.8041L55.2165 54.4276L55.1961 54.3258H52.9858C52.9383 54.4887 52.8908 54.6481 52.8466 54.8041Z" fill="#FEA734"/>
<path d="M55.2165 54.431L57.1484 63.3626H52.0453C51.8111 68.3796 51.166 73.997 49.9131 79.2107C54.9279 79.0377 59.6574 77.7419 63.8573 75.5642C62.1529 67.501 59.6676 60.5335 55.8548 54.3326L55.2165 54.431Z" fill="#FEA734"/>
<path d="M52.137 57.2906C52.171 59.1495 52.1472 61.1983 52.0453 63.3591H57.1484L55.2165 54.4276L52.8466 54.8041C52.6056 55.642 52.3679 56.473 52.137 57.2906Z" fill="#FEA734"/>
<path d="M50.4869 63.3592C48.9829 69.1191 47.7809 74.3905 46.888 79.1769C47.5059 79.2108 48.1239 79.2311 48.752 79.2311C49.139 79.2311 49.5261 79.221 49.9131 79.2074C51.166 73.9936 51.8111 68.3762 52.0453 63.3592H50.4869Z" fill="#FEA734"/>
<path d="M52.137 57.2906C51.553 59.37 51.003 61.3917 50.4869 63.3591H52.0453C52.1472 61.1983 52.1709 59.1495 52.137 57.2906Z" fill="#FEA734"/>
<path d="M48.6773 79.2549C66.8229 79.2549 81.5328 64.5582 81.5328 46.429C81.5328 28.2997 66.8229 13.603 48.6773 13.603C30.5316 13.603 15.8217 28.2997 15.8217 46.429C15.8217 64.5582 30.5316 79.2549 48.6773 79.2549Z" stroke="#0077FF" stroke-width="3" stroke-miterlimit="10"/>
<path d="M337.11 112.941H254.053C250.36 112.941 247.365 109.948 247.365 106.259V7.18121C247.365 3.49234 250.36 0.5 254.053 0.5H337.11C340.804 0.5 343.798 3.49234 343.798 7.18121V106.259C343.795 109.949 340.803 112.941 337.11 112.941Z" fill="white" stroke="#E6E6E6"/>
<path d="M332.041 90.4859H260.633V93.722H332.041V90.4859Z" fill="#E6E6E6"/>
<path d="M332.041 97.2329H260.633V100.469H332.041V97.2329Z" fill="#E6E6E6"/>
<path d="M292.524 52.0628H292.551C292.551 51.9882 292.555 51.917 292.555 51.8458L296.215 51.1775L296.724 47.2629C296.575 47.3613 296.429 47.4529 296.279 47.5445C295.033 49.1999 291.747 49.6341 290.501 49.6341C289.102 49.6341 289.36 47.9923 289.36 47.1205C289.36 47.1137 289.363 47.1069 289.363 47.1001C289.136 46.3912 288.963 45.5499 288.844 44.6272C288.735 44.5424 288.647 44.461 288.593 44.3762C288.134 43.6808 287.982 42.7412 288.671 42.7412C288.674 42.7412 288.678 42.7412 288.681 42.7412C288.525 39.366 288.99 35.5125 290.059 33.3449C290.087 33.294 290.114 33.2431 290.141 33.1923C289.632 32.6902 289.533 31.8931 289.533 30.7058C290.158 30.2207 292.355 29.4066 294.816 29.1793C296.072 28.7892 297.559 28.8639 298.992 29.5118C299.586 29.7153 300.605 30.1461 301.59 31.0654C302.523 31.9338 303.019 32.853 303.27 33.4161C303.593 34.1081 304.72 36.7269 303.8 39.8748C303.148 42.1035 301.797 43.4909 301.118 44.0981L302.299 50.0683L304.917 49.59L304.924 49.5832L305.732 49.59C311.775 54.2169 317.109 59.4747 321.747 65.3533C326.392 59.6918 329.179 52.4529 329.179 44.5628C329.179 26.4351 314.471 11.7368 296.324 11.7368C278.18 11.7368 263.468 26.4317 263.468 44.5628C263.468 55.9265 269.25 65.9436 278.034 71.8324C286.824 68.3452 291.309 61.2251 292.524 52.0628Z" fill="white"/>
<path d="M290.817 46.3844C290.817 45.6246 289.475 45.109 288.847 44.6171C288.966 45.5398 289.136 46.381 289.367 47.09C289.411 46.6083 290.817 47.2596 290.817 46.3844Z" fill="#F7CDAC"/>
<path d="M301.131 44.0879C301.107 44.1083 301.08 44.132 301.06 44.1524C300.408 43.3145 299.838 42.5038 299.332 41.727C299.739 41.2962 299.994 40.6923 299.994 40.0241C299.994 38.7113 299.013 37.6462 297.8 37.6462C297.712 37.6462 297.624 37.653 297.539 37.6632C297.407 42.2799 297.118 45.326 296.67 46.7948C296.585 47.0662 296.453 47.3138 296.283 47.5411C296.429 47.4495 296.578 47.3579 296.728 47.2596L296.218 51.1741L302.316 50.0581L301.131 44.0879Z" fill="#F7CDAC"/>
<path d="M296.286 36.6116C295.526 35.387 294.799 34.4508 293.852 33.9081C291.808 33.942 290.721 33.7486 290.151 33.1855C290.124 33.2364 290.093 33.2873 290.07 33.3382C288.997 35.5058 288.532 39.3592 288.691 42.7344C289.642 42.7446 291.472 44.2202 293.624 44.2202C295.061 44.2202 295.95 41.6829 296.286 36.6116Z" fill="#F7CDAC"/>
<path d="M290.939 49.2474C290.263 49.0574 289.74 48.2569 289.367 47.09C289.367 47.0968 289.363 47.1035 289.363 47.1103C289.363 47.9821 289.109 49.6239 290.504 49.6239C291.75 49.6239 295.037 49.1897 296.283 47.5343C294.073 48.8946 291.964 49.5323 290.939 49.2474Z" fill="#B87C5E"/>
<path d="M288.674 42.7344C287.982 42.7344 288.138 43.6741 288.596 44.3694C288.65 44.4542 288.739 44.5357 288.847 44.6205C288.769 44.0201 288.718 43.3891 288.688 42.7378C288.684 42.7344 288.678 42.7344 288.674 42.7344Z" fill="#B87C5E"/>
<path d="M303.627 35.672C303.817 38.6164 302.676 41.2453 300.992 43.3892L301.131 44.088C301.81 43.4808 303.162 42.0934 303.813 39.8647C304.734 36.7168 303.606 34.098 303.284 33.406C303.033 32.8429 302.533 31.9203 301.603 31.0553C300.615 30.1394 299.6 29.7052 299.006 29.5017C297.573 28.8504 296.086 28.7791 294.83 29.1692C292.368 29.3999 290.168 30.214 289.547 30.6957C289.547 31.8864 289.649 32.6801 290.154 33.1822C292.45 29.0132 303.087 27.2934 303.627 35.672Z" fill="#B87C5E"/>
<path d="M297.536 37.6632C297.621 37.653 297.709 37.6462 297.797 37.6462C299.009 37.6462 299.99 38.7114 299.99 40.0241C299.99 40.6924 299.736 41.2928 299.328 41.727C299.838 42.5038 300.405 43.3145 301.056 44.1524C301.08 44.1321 301.104 44.1117 301.128 44.088L300.989 43.3892C302.673 41.2453 303.813 38.6164 303.623 35.672C303.08 27.29 292.446 29.0098 290.144 33.1822C290.715 33.7486 291.805 33.942 293.845 33.9047C294.792 34.4474 295.522 35.3837 296.279 36.6082C295.943 41.6829 295.054 44.2202 293.614 44.2202C291.462 44.2202 289.632 42.7446 288.681 42.7345C288.711 43.3858 288.766 44.0167 288.84 44.6171C289.469 45.109 290.81 45.6246 290.81 46.3844C290.81 47.2596 289.404 46.6117 289.36 47.09C289.733 48.2569 290.26 49.0575 290.932 49.2474C291.957 49.5324 294.066 48.8946 296.276 47.5378C296.446 47.3139 296.578 47.0663 296.663 46.7915C297.115 45.3227 297.407 42.2799 297.536 37.6632Z" fill="#B87C5E"/>
<path d="M292.551 52.0595H292.524C291.309 61.2218 286.824 68.3419 278.047 71.8222C281.045 73.8338 284.396 75.3637 287.985 76.3033C290.402 69.2374 292.446 61.5847 292.551 52.0595Z" fill="#005EFF"/>
<path d="M305.745 49.5798L304.937 49.5731L304.93 49.5798L302.313 50.0581L304.014 58.6572H300.303C299.977 61.4456 299.478 64.3425 298.914 67.1817C298.154 71.0149 296.84 74.3969 295.067 77.3515C295.488 77.3684 295.913 77.3786 296.337 77.3786C301.42 77.3786 306.234 76.2253 310.529 74.1662C310.461 72.4396 310.356 70.6384 310.21 68.7625C310.746 70.3466 311.242 71.9511 311.697 73.576C315.578 71.5203 318.997 68.715 321.761 65.3466C317.123 59.4646 311.789 54.2068 305.745 49.5798Z" fill="#0077FF"/>
<path d="M296.215 51.1741L292.555 51.8424C292.555 51.917 292.551 51.9883 292.551 52.0595L296.123 51.8628L296.215 51.1741Z" fill="#0077FF"/>
<path d="M300.68 51.6084C300.744 53.7929 300.591 56.181 300.303 58.6573H304.014L302.313 50.0581L296.215 51.1741L296.127 51.8628L300.68 51.6084Z" fill="#0077FF"/>
<path d="M300.303 58.6573H295.24L296.127 51.8628L292.555 52.0595C292.45 61.5813 290.406 69.234 287.985 76.3067C290.26 76.9037 292.63 77.2599 295.067 77.3515C296.843 74.3969 298.154 71.0149 298.914 67.1818C299.478 64.3459 299.977 61.449 300.303 58.6573Z" fill="#0077FF"/>
<path d="M300.68 51.6084L296.127 51.8628L295.24 58.6573H300.306C300.591 56.1844 300.744 53.7929 300.68 51.6084Z" fill="#0077FF"/>
<path d="M310.529 74.1662C310.923 73.9763 311.313 73.7795 311.697 73.576C311.242 71.9511 310.746 70.3466 310.21 68.7625C310.356 70.6384 310.461 72.4396 310.529 74.1662Z" fill="#005EFF"/>
<path d="M296.337 76.9139C314.483 76.9139 329.193 62.2172 329.193 44.088C329.193 25.9587 314.483 11.262 296.337 11.262C278.192 11.262 263.482 25.9587 263.482 44.088C263.482 62.2172 278.192 76.9139 296.337 76.9139Z" stroke="#0077FF" stroke-width="3" stroke-miterlimit="10"/>
</svg>
