<svg width="44" height="51" viewBox="0 0 44 51" fill="none" xmlns="http://www.w3.org/2000/svg">
<path d="M41.7243 37.8805C41.9446 37.7045 42.1467 37.5071 42.3247 37.2886C42.9552 36.5084 43.2449 35.5249 43.1212 34.59C42.9975 33.6398 42.4725 32.802 41.7153 32.2313C41.9536 32.031 42.1738 31.8033 42.3639 31.5422C42.9854 30.6984 43.2449 29.6359 43.0789 28.6281C42.7471 26.6185 40.8947 25.2222 38.8492 25.4195L28.9777 25.4681C30.3384 22.5478 30.9991 19.576 30.9418 16.6224C30.8814 13.6293 30.1 12.494 29.5178 11.9021C27.4451 9.79236 24.0058 10.5209 23.3361 10.6879L22.7055 10.8457L22.7085 11.5014C22.7146 13.3743 22.3284 17.0231 19.6795 20.4351C17.6461 23.0548 15.1451 24.3935 13.4133 25.0522C13.0181 23.5496 11.6605 22.4355 10.0434 22.4355H0V50.2717H10.0494C11.8566 50.2717 13.347 48.8814 13.5189 47.1087C14.252 47.6672 15.0214 48.1711 15.8359 48.6022C16.9944 49.2184 18.2284 49.701 19.4985 50.035L19.6011 50.0623L35.784 50.0926C36.9545 50.0805 38.0678 49.5887 38.8401 48.7418C39.534 47.9829 39.89 47.0024 39.8176 46.0584C39.7724 45.4573 39.5551 44.8836 39.2112 44.3827H39.5823L39.6456 44.3797C40.6925 44.2977 41.6368 43.8029 42.3006 42.9772C42.9341 42.1941 43.2298 41.1984 43.1091 40.2452C42.9824 39.2921 42.4665 38.4542 41.7243 37.8805ZM11.8777 46.7596C11.8777 47.7734 11.0571 48.5991 10.0494 48.5991H1.65932V24.1021H10.0494C11.0571 24.1021 11.8777 24.9277 11.8777 25.9416V46.7596ZM41.0123 41.9239C40.6412 42.3792 40.1223 42.6585 39.5461 42.7132L35.609 42.7162V44.3858H36.4839C37.398 44.6438 38.101 45.3905 38.1613 46.1858C38.1975 46.6715 37.9984 47.1937 37.6152 47.6126C37.1506 48.1195 36.4779 48.417 35.7749 48.4231L19.8153 48.3957C18.705 48.0952 17.625 47.6672 16.6113 47.1299C15.5041 46.541 14.4753 45.8094 13.537 44.9686V26.7855C15.4618 26.1177 18.5331 24.6333 20.9919 21.4641C23.6468 18.043 24.2623 14.4064 24.3558 12.1905C25.3423 12.0417 27.2249 11.9446 28.3412 13.0799C28.5614 13.3045 29.2312 13.9875 29.2855 16.6588C29.3428 19.5942 28.6157 22.563 27.1283 25.4802L23.2606 25.4954L23.2697 27.1649L38.9005 27.0891L38.9879 27.083C40.1555 26.9555 41.2597 27.769 41.4468 28.9013C41.5403 29.4659 41.3894 30.067 41.0365 30.5466C40.6714 31.0414 40.1404 31.3631 39.54 31.4512L35.2349 31.4026L35.2168 33.0722L39.5762 33.1207C40.5507 33.2148 41.3683 33.9373 41.483 34.8085C41.5463 35.2912 41.3864 35.8133 41.0425 36.2352C40.6563 36.7118 40.1072 37.0032 39.4888 37.0579H35.44H35.4099L35.3918 38.7274L39.6275 38.773C40.5658 38.8671 41.3502 39.5865 41.4618 40.4577C41.5252 40.9586 41.3593 41.4929 41.0123 41.9239Z" fill="#3F90F7"/>
<path d="M26.2768 7.80821e-06L26.157 4.84039L27.8157 4.88197L27.9355 0.0415808L26.2768 7.80821e-06Z" fill="#3F90F7"/>
<path d="M36.3951 5.33435L32.9088 8.67175L34.0526 9.88135L37.5388 6.54395L36.3951 5.33435Z" fill="#3F90F7"/>
<path d="M16.9951 4.28627L15.7931 5.43707L19.11 8.94435L20.312 7.79354L16.9951 4.28627Z" fill="#3F90F7"/>
<path d="M13.2619 12.9645L13.2206 14.6325L18.0312 14.753L18.0725 13.085L13.2619 12.9645Z" fill="#3F90F7"/>
<path d="M35.4191 13.3559L35.3779 15.0253L40.1885 15.1454L40.2296 13.476L35.4191 13.3559Z" fill="#3F90F7"/>
</svg>
