<svg width="1439" height="630" viewBox="0 0 1439 630" fill="none" xmlns="http://www.w3.org/2000/svg">
<g clip-path="url(#clip0)">
<path d="M1439 0H-1V630H1439V0Z" fill="#132135"/>
<path d="M1291.77 369.257L1289.7 368.128C1289.57 368.056 1289.46 367.944 1289.4 367.822L1288.29 365.716C1288.01 365.186 1287.26 365.186 1286.98 365.716L1285.87 367.822C1285.8 367.955 1285.69 368.067 1285.57 368.128L1283.5 369.257C1282.98 369.542 1282.98 370.306 1283.5 370.591L1285.57 371.72C1285.7 371.792 1285.81 371.904 1285.87 372.026L1286.98 374.133C1287.26 374.662 1288.01 374.662 1288.29 374.133L1289.4 372.026C1289.47 371.893 1289.58 371.781 1289.7 371.72L1291.77 370.591C1292.3 370.316 1292.3 369.542 1291.77 369.257Z" fill="#ECF4FD"/>
<path d="M891.04 52.9037L888.43 51.4788C888.27 51.3872 888.13 51.2549 888.05 51.0921L886.65 48.4357C886.3 47.764 885.35 47.764 884.99 48.4357L883.59 51.0921C883.5 51.2549 883.37 51.3974 883.21 51.4788L880.6 52.9037C879.94 53.2599 879.94 54.2268 880.6 54.5932L883.21 56.0181C883.37 56.1097 883.51 56.242 883.59 56.4048L884.99 59.0612C885.34 59.7329 886.29 59.7329 886.65 59.0612L888.05 56.4048C888.14 56.242 888.27 56.0995 888.43 56.0181L891.04 54.5932C891.7 54.2268 891.7 53.2599 891.04 52.9037Z" fill="#C5DCF3"/>
<path d="M494.117 102.514L491.227 100.936C491.047 100.834 490.897 100.692 490.797 100.499L489.247 97.5572C488.857 96.8143 487.807 96.8143 487.417 97.5572L485.867 100.499C485.767 100.682 485.628 100.834 485.438 100.936L482.547 102.514C481.818 102.911 481.818 103.979 482.547 104.376L485.438 105.954C485.618 106.056 485.767 106.198 485.867 106.391L487.417 109.333C487.807 110.076 488.857 110.076 489.247 109.333L490.797 106.391C490.897 106.208 491.037 106.056 491.227 105.954L494.117 104.376C494.847 103.979 494.847 102.911 494.117 102.514Z" fill="#8CB3F7"/>
<path d="M1336.99 233.253L1334.87 232.103C1334.74 232.031 1334.63 231.919 1334.56 231.787L1333.43 229.629C1333.14 229.08 1332.38 229.08 1332.09 229.629L1330.96 231.787C1330.89 231.919 1330.78 232.031 1330.65 232.103L1328.53 233.253C1327.99 233.548 1327.99 234.321 1328.53 234.617L1330.65 235.767C1330.78 235.838 1330.89 235.95 1330.96 236.082L1332.09 238.24C1332.38 238.789 1333.14 238.789 1333.43 238.24L1334.56 236.082C1334.63 235.95 1334.74 235.838 1334.87 235.767L1336.99 234.617C1337.53 234.321 1337.53 233.538 1336.99 233.253Z" fill="#8CB3F7"/>
<path d="M1221.03 604.627L1218.14 603.049C1217.96 602.948 1217.81 602.805 1217.71 602.612L1216.16 599.671C1215.77 598.928 1214.72 598.928 1214.33 599.671L1212.78 602.612C1212.68 602.795 1212.54 602.948 1212.35 603.049L1209.46 604.627C1208.73 605.024 1208.73 606.093 1209.46 606.49L1212.35 608.067C1212.53 608.169 1212.68 608.311 1212.78 608.505L1214.33 611.446C1214.72 612.189 1215.77 612.189 1216.16 611.446L1217.71 608.505C1217.81 608.322 1217.95 608.169 1218.14 608.067L1221.03 606.49C1221.76 606.093 1221.76 605.024 1221.03 604.627Z" fill="#8CB3F7"/>
<path d="M1151.33 450.078L1150.22 449.478C1150.15 449.437 1150.09 449.386 1150.06 449.315L1149.47 448.185C1149.32 447.9 1148.92 447.9 1148.77 448.185L1148.18 449.315C1148.14 449.386 1148.09 449.447 1148.02 449.478L1146.91 450.078C1146.63 450.231 1146.63 450.638 1146.91 450.791L1148.02 451.391C1148.09 451.432 1148.15 451.483 1148.18 451.554L1148.77 452.684C1148.92 452.969 1149.32 452.969 1149.47 452.684L1150.06 451.554C1150.1 451.483 1150.15 451.422 1150.22 451.391L1151.33 450.791C1151.61 450.638 1151.61 450.231 1151.33 450.078Z" fill="#ECF4FD"/>
<path d="M1197.35 490.983L1195.28 489.853C1195.15 489.782 1195.04 489.67 1194.98 489.548L1193.87 487.441C1193.59 486.912 1192.84 486.912 1192.56 487.441L1191.45 489.548C1191.38 489.68 1191.27 489.792 1191.15 489.853L1189.08 490.983C1188.56 491.268 1188.56 492.031 1189.08 492.316L1191.15 493.446C1191.28 493.517 1191.39 493.629 1191.45 493.751L1192.56 495.858C1192.84 496.387 1193.59 496.387 1193.87 495.858L1194.98 493.751C1195.05 493.619 1195.16 493.507 1195.28 493.446L1197.35 492.316C1197.88 492.031 1197.88 491.268 1197.35 490.983Z" fill="#ECF4FD"/>
<path opacity="0.2" d="M272.21 302.868C286.15 331.651 315.9 359.945 345.79 350.917C365.83 344.861 377.29 323.967 382.06 303.54C386.83 283.103 386.95 261.425 394.03 241.751C418.15 174.761 505.77 161.205 559 114.601C592.17 85.564 610.52 44.3443 618.55 0H340.96C334.52 7.86737 328.24 15.867 322.2 24.0601C263.9 103.09 228.08 211.717 272.21 302.868Z" fill="#373850"/>
<path opacity="0.2" d="M1327.81 0H856.018C848.108 5.62827 839.938 10.8393 831.658 15.6228C778.688 46.217 718.898 64.6081 667.228 97.2785C603.258 137.725 553.708 199.89 528.298 271.582C514.238 311.234 507.448 354.54 515.348 396.615C530.288 476.154 599.788 542.248 678.788 560.11C757.788 577.972 842.228 550.339 898.888 495.278C955.548 440.216 985.238 360.362 987.008 280.029C988.058 232.103 979.838 183.239 989.158 136.503C998.478 89.7674 1032.39 43.5606 1080.23 41.5047C1117.76 39.8864 1153.46 66.9795 1170.55 101.126C1187.64 135.272 1188.85 174.904 1183.39 211.951C1170.93 296.589 1126.37 372.097 1075.12 439.341C1017.89 514.412 949.068 583.366 867.628 630H975.338C982.078 622 988.678 613.889 995.138 605.655C1025.5 566.919 1052.9 525.424 1088.7 491.685C1124.5 457.956 1170.78 432.033 1220.84 432.787C1268.07 433.499 1313.02 457.814 1349.7 488.876C1386.41 519.959 1416.65 558.542 1438.61 601.167V116.759C1405.54 74.4397 1368.29 35.7136 1327.81 0Z" fill="#373850"/>
<path opacity="0.2" d="M410.18 591.05C358.76 537.424 329.35 466.739 282.64 409.001C235.93 351.263 157.81 305.535 91.08 332.75C46.87 350.785 20.22 396.422 8.36001 442.873C-7.15999 503.644 -1.99999 568.944 17.74 630H456.23C439.72 618.703 424.27 605.736 410.18 591.05Z" fill="#373850"/>
<path d="M175.96 63.5191L173.89 62.3894C173.76 62.3181 173.65 62.2062 173.59 62.084L172.48 59.9773C172.2 59.448 171.45 59.448 171.17 59.9773L170.06 62.084C169.99 62.2163 169.88 62.3283 169.76 62.3894L167.69 63.5191C167.17 63.8041 167.17 64.5674 167.69 64.8524L169.76 65.9821C169.89 66.0533 170 66.1653 170.06 66.2874L171.17 68.3942C171.45 68.9235 172.2 68.9235 172.48 68.3942L173.59 66.2874C173.66 66.1551 173.77 66.0432 173.89 65.9821L175.96 64.8524C176.49 64.5674 176.49 63.8041 175.96 63.5191Z" fill="#ECF4FD"/>
<path d="M105.22 298.879L102.33 297.301C102.15 297.199 102 297.057 101.9 296.863L100.35 293.922C99.96 293.179 98.91 293.179 98.52 293.922L96.97 296.863C96.87 297.047 96.73 297.199 96.54 297.301L93.65 298.879C92.92 299.275 92.92 300.344 93.65 300.741L96.54 302.319C96.72 302.42 96.87 302.563 96.97 302.756L98.52 305.698C98.91 306.441 99.96 306.441 100.35 305.698L101.9 302.756C102 302.573 102.14 302.42 102.33 302.319L105.22 300.741C105.95 300.344 105.95 299.275 105.22 298.879Z" fill="#8CB3F7"/>
<path d="M81.54 185.234L79.47 184.104C79.34 184.033 79.23 183.921 79.17 183.799L78.06 181.692C77.78 181.163 77.03 181.163 76.75 181.692L75.64 183.799C75.57 183.931 75.46 184.043 75.34 184.104L73.25 185.234C72.73 185.519 72.73 186.282 73.25 186.567L75.32 187.697C75.45 187.768 75.56 187.88 75.62 188.003L76.73 190.109C77.01 190.639 77.76 190.639 78.04 190.109L79.15 188.003C79.22 187.87 79.33 187.758 79.45 187.697L81.52 186.567C82.07 186.282 82.07 185.519 81.54 185.234Z" fill="#ECF4FD"/>
<path d="M393.87 563.764L391.75 562.613C391.62 562.542 391.51 562.43 391.44 562.298L390.31 560.14C390.02 559.591 389.26 559.591 388.97 560.14L387.84 562.298C387.77 562.43 387.66 562.542 387.53 562.613L385.41 563.764C384.87 564.059 384.87 564.832 385.41 565.127L387.53 566.277C387.66 566.349 387.77 566.461 387.84 566.593L388.97 568.751C389.26 569.3 390.02 569.3 390.31 568.751L391.44 566.593C391.51 566.461 391.62 566.349 391.75 566.277L393.87 565.127C394.4 564.832 394.4 564.048 393.87 563.764Z" fill="#8CB3F7"/>
</g>
<defs>
<clipPath id="clip0">
<rect x="-1" width="1440" height="630" fill="white"/>
</clipPath>
</defs>
</svg>
