<svg width="1440" height="1707" viewBox="0 0 1440 1707" fill="none" xmlns="http://www.w3.org/2000/svg">
<path opacity="0.95" d="M249.096 55.6597C378.674 129.905 351.311 228.419 495.621 318.874C497.642 320.141 500.433 321.881 503.951 323.995C595.204 378.808 698.57 390.675 748.972 393.574C751.181 393.699 761.165 394.279 773.753 394.546C962.689 398.513 1086.87 318.442 1224.18 322.654C1277.04 324.273 1351.65 338.988 1440 400.303C1440 470.365 1440 540.427 1440 610.489V1345.37V3023H-15.944V1345.37V610.489V0.250034C62.2532 -1.67671 163.605 6.67253 249.096 55.6597Z" fill="#132135"/>
<g clip-path="url(#clip0)">
<path d="M85.5264 555.349L88.2798 554.043C88.45 553.961 88.589 553.837 88.6814 553.686L90.1515 551.236C90.521 550.617 91.5206 550.621 91.9029 551.243L93.393 553.704C93.4866 553.856 93.6266 553.981 93.7974 554.065L96.5616 555.393C97.2604 555.727 97.264 556.617 96.5679 556.952L93.8145 558.258C93.6443 558.34 93.5053 558.464 93.4129 558.615L91.9428 561.065C91.5733 561.684 90.5737 561.68 90.1914 561.058L88.7013 558.596C88.6077 558.444 88.4677 558.32 88.2969 558.236L85.5327 556.908C84.8339 556.567 84.8303 555.677 85.5264 555.349Z" fill="#ECF4FD"/>
<path d="M161.11 318.023L164.18 316.566C164.373 316.477 164.528 316.333 164.628 316.168L166.267 313.436C166.683 312.741 167.799 312.746 168.22 313.444L169.882 316.189C169.983 316.362 170.147 316.5 170.333 316.591L173.416 318.072C174.2 318.448 174.204 319.441 173.423 319.81L170.352 321.267C170.159 321.356 170.004 321.5 169.904 321.665L168.265 324.404C167.849 325.099 166.733 325.094 166.312 324.396L164.65 321.644C164.549 321.472 164.385 321.333 164.199 321.243L161.117 319.761C160.34 319.386 160.336 318.392 161.11 318.023Z" fill="#ECF4FD"/>
<path d="M-9.69682 254.082L-6.1411 251.882C-5.91693 251.745 -5.74722 251.553 -5.6474 251.326L-4.0734 247.731C-3.67413 246.823 -2.29529 246.683 -1.66434 247.486L0.836078 250.668C0.991878 250.869 1.20948 251.022 1.46557 251.112L5.51653 252.542C6.5409 252.905 6.70862 254.133 5.81196 254.689L2.2562 256.888C2.03202 257.025 1.86236 257.218 1.76254 257.445L0.188492 261.039C-0.21078 261.948 -1.58958 262.087 -2.22053 261.285L-4.72094 258.102C-4.87674 257.902 -5.09434 257.749 -5.35043 257.658L-9.40139 256.228C-10.4257 255.872 -10.5935 254.637 -9.69682 254.082Z" fill="white"/>
<path d="M9.24594 518.287L14.4837 517.533C14.8132 517.484 15.1146 517.349 15.3624 517.146L19.3059 513.895C20.3066 513.071 21.8944 513.578 22.0814 514.777L22.8361 519.516C22.8849 519.814 23.0295 520.085 23.2494 520.307L26.7772 523.835C27.671 524.731 27.0884 526.178 25.7637 526.365L20.5259 527.12C20.1964 527.168 19.8959 527.297 19.6481 527.499L15.7046 530.751C14.7039 531.575 13.116 531.068 12.929 529.869L12.1744 525.13C12.1255 524.832 11.9886 524.561 11.7611 524.339L8.2409 520.811C7.33859 519.922 7.92125 518.475 9.24594 518.287Z" fill="#C5DCF3"/>
<path fill-rule="evenodd" clip-rule="evenodd" d="M94.7016 365.679C92.3848 360.113 91.7559 353.979 94.5446 348.216C102.592 331.597 127.083 343.506 128.737 353.692C130.391 363.878 121.167 385.491 114.029 384.976C111.182 384.774 106.23 381.529 101.811 376.647L96.3081 400.646L75.3824 394.068L94.7016 365.679Z" fill="#F2C0A2"/>
<path fill-rule="evenodd" clip-rule="evenodd" d="M41.5997 555.391C47.1161 561.759 42.7722 574.133 36.2009 574.936C16.5415 577.343 -78.2515 572.516 -84.2234 572.391C-90.1952 572.265 -92.9513 563.357 -85.6446 561.912C-74.0073 559.619 -33.5534 553.028 -14.5176 552.267C-6.66531 551.955 0.834548 551.74 7.52638 551.61C-10.6139 545.172 -36.7063 534.977 -70.7653 521.016L-67.1736 510.714C-38.4869 514.913 -18.1204 518.744 -6.06737 522.212C14.5646 528.152 32.322 533.908 38.6512 536.476C48.5907 540.517 46.5694 549.931 41.5997 555.391Z" fill="#F2C0A2"/>
<path fill-rule="evenodd" clip-rule="evenodd" d="M-51.8198 509.773L39.6389 532.366C54.8553 538.605 40.8169 563.119 32.2417 561.406C12.7819 557.529 -51.7547 533.522 -57.5525 532.367L-51.8198 509.773Z" fill="#E6E6E6"/>
<path fill-rule="evenodd" clip-rule="evenodd" d="M210.298 399.745C220.67 416.219 231.041 432.694 241.413 449.169C230.673 459.687 219.941 470.198 209.201 480.715C201.099 463.403 193.006 446.085 184.905 428.773C193.366 419.099 201.829 409.418 210.298 399.745Z" fill="white"/>
<path fill-rule="evenodd" clip-rule="evenodd" d="M29.0214 578.138C4.61739 581.152 -53.7136 577.673 -59.0863 578.327L-62.1311 555.708C-10.8941 552.74 14.9348 550.748 15.3498 549.717C15.9795 548.174 1.08239 491.3 -1.23429 473.974C-4.57002 448.993 11.4165 436.518 43.4689 431.699L50.0831 481.18C50.2419 491.403 45.5793 545.404 44.1641 565.415C43.57 573.997 35.7409 577.306 29.0214 578.138Z" fill="#FCF5EF"/>
<path fill-rule="evenodd" clip-rule="evenodd" d="M90.9226 368.227C92.4679 356.675 87.6734 346.968 90.7433 342.552C92.787 339.61 95.6549 338.28 99.3547 338.562C103.614 332.791 110.328 331.874 119.496 335.813C133.257 341.721 139.894 349.772 131.495 360.267C128.023 359.177 124.282 356.741 117.728 356.845C115.649 356.876 113.589 358.353 111.541 361.267L108.924 360.447C107.867 355.894 105.915 353.723 103.049 353.947C100.183 354.17 98.6639 356.408 98.4889 360.68L93.7023 369.103L90.9226 368.227Z" fill="#B87C5E"/>
<path fill-rule="evenodd" clip-rule="evenodd" d="M207.931 404.889C217.35 419.852 226.768 434.815 236.187 449.778C226.437 459.327 216.688 468.876 206.938 478.425C199.58 462.705 192.231 446.978 184.874 431.258C192.562 422.466 200.25 413.681 207.931 404.889Z" fill="#1D1513"/>
<path fill-rule="evenodd" clip-rule="evenodd" d="M146.992 426.473C153.842 445.916 160.701 465.352 167.551 484.795C181.39 483.328 195.231 481.855 209.071 480.388C200.924 463.011 192.785 445.628 184.637 428.252C172.094 427.659 159.543 427.066 146.992 426.473Z" fill="white"/>
<path fill-rule="evenodd" clip-rule="evenodd" d="M98.5272 426.359L135.344 428.64C143.367 426.386 150.538 425.183 156.847 425.036C158.545 425.308 161.1 426.363 156.367 428.632C151.627 430.901 146.757 433.474 147.081 435.215C147.405 436.956 151.273 437.057 151.293 439.649C151.301 441.377 145.191 440.516 132.962 437.065L101.433 442.028L98.5272 426.359ZM132.608 462.608L148.791 463.589C154.643 458.762 158.741 457.007 161.087 458.325C163.418 458.609 155.024 464.131 158.851 465.471C162.678 466.81 174.969 466.025 175.566 468C176.452 470.913 170.844 474.996 166.779 476.276C159.187 478.672 154.584 478.32 144.595 475.525C139.368 474.065 132.971 473.53 125.405 473.913L132.608 462.608Z" fill="#F2C0A2"/>
<path fill-rule="evenodd" clip-rule="evenodd" d="M86.9989 415.5C96.5558 420.981 110.53 426.567 129.691 426.628L127.178 440.588C111.76 443.598 93.6544 442.881 82.4153 435.867C73.5617 430.334 76.1581 417.614 86.9989 415.5Z" fill="#FE7235"/>
<path fill-rule="evenodd" clip-rule="evenodd" d="M87.0875 439.935C95.4715 448.102 114.248 455.254 143.423 461.4C141.273 475.929 138.27 485.425 134.422 489.888C107.161 487.711 86.6771 481.856 72.1649 473.766C67.0074 481.802 60.6419 488.592 52.287 493.32C35.1221 503.031 2.61903 465.693 -13.2613 459.994C-3.17937 428.683 21.5083 428.012 33.608 411.28C46.856 392.958 83.3022 374.16 85.6661 375.546L107.239 388.18C98.3165 402.879 93.1733 421.818 87.0875 439.935Z" fill="#FEA734"/>
</g>
<defs>
<clipPath id="clip0">
<path d="M417.272 151.778L-3.78635 151.778L-4 695.773L417.058 695.773L417.272 151.778Z" fill="white"/>
</clipPath>
</defs>
</svg>
