<svg width="384" height="288" viewBox="0 0 384 288" fill="none" xmlns="http://www.w3.org/2000/svg">
<path opacity="0.24" d="M35.8944 165.426C40.3018 156.662 47.507 148.744 47.7853 138.835C47.9808 131.587 44.3557 124.94 41.7007 118.236C28.1626 84.1055 42.182 40.5556 72.6352 21.9939C89.2569 11.8644 108.955 8.97472 128.141 7.83781C149.916 6.54303 171.757 7.23779 193.417 9.91426C206.113 11.4933 219.403 14.0434 229.225 22.6255C244.621 36.0474 246.795 59.4409 252.646 79.5421C262.928 114.849 288.312 144.97 320.434 159.994C326.248 162.71 332.408 165.047 337.109 169.547C347.42 179.401 347.526 197.133 341.17 210.16C334.815 223.188 323.48 232.606 312.462 241.607L278.271 269.596C271.351 275.256 264.267 281.02 255.971 284.012C228.33 293.992 190.838 282.259 162.144 280.925C143.62 280.057 123.982 281.983 105.879 276.914C65.806 265.679 12.3682 212.268 35.8944 165.426Z" fill="#00CFFF"/>
<path opacity="0.24" d="M210.495 174.719H296.92C301.323 174.719 304.893 170.972 304.893 166.35V117.187C304.893 112.565 301.323 108.818 296.92 108.818L210.495 108.818C206.092 108.818 202.522 112.565 202.522 117.187V166.35C202.522 170.972 206.092 174.719 210.495 174.719Z" fill="#00CFFF"/>
<path opacity="0.24" d="M58.2618 191.828H124.922C128.344 191.828 131.119 188.915 131.119 185.322V146.762C131.119 143.169 128.344 140.256 124.922 140.256H58.2618C54.839 140.256 52.0644 143.169 52.0644 146.762V185.322C52.0644 188.915 54.839 191.828 58.2618 191.828Z" fill="#00CFFF"/>
<path opacity="0.63" d="M363.131 130.868H242.792C237.524 130.862 232.472 128.663 228.746 124.752C225.019 120.842 222.922 115.54 222.914 110.009V21.0933C222.92 15.561 225.016 10.257 228.743 6.34506C232.47 2.43309 237.522 0.232587 242.792 0.226318H363.131C368.4 0.234676 373.451 2.43609 377.176 6.34784C380.901 10.2596 382.996 15.5624 383.002 21.0933V110.009C382.996 115.539 380.9 120.841 377.175 124.752C373.45 128.662 368.399 130.862 363.131 130.868ZM242.792 3.34493C238.31 3.34911 234.011 5.22037 230.841 8.54794C227.672 11.8755 225.889 16.3875 225.885 21.0933V110.009C225.891 114.714 227.674 119.224 230.844 122.549C234.014 125.875 238.311 127.746 242.792 127.75H363.131C367.611 127.743 371.906 125.872 375.074 122.547C378.242 119.221 380.025 114.712 380.031 110.009V21.0933C380.027 16.3888 378.245 11.8781 375.077 8.55072C371.909 5.22338 367.612 3.3512 363.131 3.34493H242.792Z" fill="#00CFFF"/>
<path opacity="0.63" d="M150.466 58.1143H101.654C99.2825 58.1122 97.009 57.1225 95.3324 55.3625C93.6557 53.6024 92.7129 51.2159 92.7109 48.7269V12.6695C92.7109 10.179 93.6529 7.79051 95.3297 6.02878C97.0066 4.26705 99.2812 3.27626 101.654 3.27417H150.466C152.838 3.27626 155.113 4.26705 156.79 6.02878C158.467 7.79051 159.408 10.179 159.408 12.6695V48.7269C159.406 51.2159 158.464 53.6024 156.787 55.3625C155.11 57.1225 152.837 58.1122 150.466 58.1143ZM101.654 6.43225C100.073 6.44465 98.5613 7.10909 97.4439 8.28204C96.3266 9.45499 95.6936 11.0423 95.6818 12.701V48.7585C95.6936 50.4172 96.3266 52.0045 97.4439 53.1775C98.5613 54.3504 100.073 55.0149 101.654 55.0273H150.466C152.046 55.0149 153.558 54.3504 154.675 53.1775C155.793 52.0045 156.426 50.4172 156.438 48.7585V12.6695C156.418 11.0162 155.782 9.43694 154.665 8.27078C153.548 7.10461 152.041 6.44452 150.466 6.43225H101.654Z" fill="#00CFFF"/>
<path d="M167.917 191.504C167.938 192.405 168.199 193.283 168.669 194.038C169.095 194.557 169.653 194.938 170.278 195.136C173.151 196.201 176.295 194.97 179.116 193.746C180.371 193.327 181.501 192.574 182.395 191.559C183.15 190.313 183.534 188.859 183.501 187.382C183.787 182.614 183.552 177.828 182.801 173.116C182.693 171.879 182.298 170.689 181.65 169.65C180.259 167.715 177.642 167.455 175.333 167.36C169.519 167.131 167.811 166.35 167.48 172.745C167.144 179 167.29 185.273 167.917 191.504Z" fill="url(#paint0_linear)"/>
<path d="M151.183 145.878C152.581 149.259 154.52 152.364 156.914 155.06C159.385 157.763 162.393 159.862 165.723 161.208C169.053 162.554 172.625 163.115 176.185 162.851C179.745 162.586 183.206 161.503 186.322 159.678C189.439 157.852 192.135 155.33 194.219 152.289C197.829 147.007 199.378 140.493 200.461 134.09C201.402 128.484 202.041 122.65 200.649 117.147C198.822 109.954 193.58 104.025 187.262 100.662C180.944 97.2984 173.649 96.3194 166.579 96.8484C162.156 97.1879 157.689 98.1274 153.845 100.433C146.249 104.965 145.903 111.249 146.249 119.444C146.663 128.429 147.625 137.596 151.183 145.878Z" fill="url(#paint1_linear)"/>
<path d="M167.65 76.7941C165.559 74.4255 163.084 72.0096 160 71.6227C156.917 71.2359 153.397 73.9124 153.984 77.1494C149.208 74.7414 143.612 72.7597 138.723 74.8993C134.617 76.6836 131.954 81.2154 131.383 85.8104C130.811 90.4054 132.135 95.1426 134.21 99.2323C135.368 101.638 136.93 103.804 138.821 105.627C143.228 109.701 149.351 110.838 155.202 111.557C165.13 112.773 175.389 113.215 184.903 109.978C187.776 109.007 191.364 107.87 193.455 110.159C195.011 111.857 195.478 115.22 197.727 115.212C199.547 115.212 200.374 112.844 200.547 110.925C200.951 106.374 200.512 101.784 199.253 97.4085C197.065 89.8054 191.853 83.9866 183.918 84.0498C176.57 84.1445 172.726 82.6208 167.65 76.7941Z" fill="#E08142"/>
<path d="M164.033 118.536H155.541C152.538 118.536 150.104 121.092 150.104 124.245V126.866C150.104 130.019 152.538 132.574 155.541 132.574H164.033C167.036 132.574 169.47 130.019 169.47 126.866V124.245C169.47 121.092 167.036 118.536 164.033 118.536Z" stroke="white" stroke-width="3.95" stroke-miterlimit="10"/>
<path d="M190.376 118.536H181.885C178.882 118.536 176.447 121.092 176.447 124.245V126.866C176.447 130.019 178.882 132.574 181.885 132.574H190.376C193.38 132.574 195.814 130.019 195.814 126.866V124.245C195.814 121.092 193.38 118.536 190.376 118.536Z" stroke="white" stroke-width="3.95" stroke-miterlimit="10"/>
<path d="M178.566 124.095H167.773V125.777H178.566V124.095Z" fill="white"/>
<path d="M151.357 122.341H142.58V124.97H151.357V122.341Z" fill="white"/>
<path d="M204.437 123.368H194.682V125.121H204.437V123.368Z" fill="white"/>
<path d="M148.22 146.793C148.099 149.337 148.265 151.886 148.717 154.389C149.935 159.915 153.982 164.487 158.78 167.084C160.215 167.763 161.609 168.533 162.954 169.389C164.323 170.376 165.459 171.703 166.835 172.69C168.491 173.842 170.42 174.486 172.405 174.549C174.391 174.612 176.353 174.091 178.072 173.045C179.117 172.39 180.155 171.505 181.374 171.569C182.306 171.569 183.119 172.208 183.998 172.524C186.007 173.242 188.203 172.461 190.128 171.521C192.054 170.582 193.836 169.461 194.641 167.534C195.175 166.287 195.197 164.873 195.453 163.531C196.1 160.089 198.213 157.168 199.515 153.931C202.222 147.228 201.32 139.593 200.372 132.385L197.243 137.824C196.19 139.656 194.987 141.606 193.076 142.333C190.557 143.272 187.879 141.74 185.443 140.564C181.594 138.742 177.438 137.744 173.217 137.629C168.997 137.514 164.797 138.284 160.863 139.893C159.239 140.572 157.517 141.409 155.809 140.983C153.779 140.477 150.808 134.872 149.206 135.361C147.25 135.977 148.235 145.072 148.22 146.793Z" fill="#E08142"/>
<path d="M167.946 184.28C188.313 181.232 209.952 192.073 220.511 210.61C224.031 216.8 226.393 223.693 230.289 229.638C234.403 235.954 240.066 240.92 244.797 246.715C248.615 251.4 251.815 256.602 254.311 262.182C256.568 267.266 258.17 273.614 255.139 278.249C252.356 282.512 246.865 283.538 241.939 283.925C232.162 284.715 222.301 284.454 212.479 284.194L115.967 281.691C111.665 281.58 107.258 281.446 103.264 279.765C99.2704 278.083 95.743 274.483 95.2315 269.998C94.4794 263.429 100.083 258.282 104.257 253.316C116.389 238.82 119.104 217.732 130.792 202.842C135.177 197.331 140.639 192.875 146.808 189.773C152.977 186.671 159.708 184.997 166.547 184.864" fill="#00CFFF"/>
<path d="M167.946 184.28C188.313 181.232 209.952 192.073 220.511 210.61C224.031 216.8 226.393 223.693 230.289 229.638C234.403 235.954 240.066 240.92 244.797 246.715C248.615 251.4 251.815 256.602 254.311 262.182C256.568 267.266 258.17 273.614 255.139 278.249C252.356 282.512 246.865 283.538 241.939 283.925C232.162 284.715 222.301 284.454 212.479 284.194L115.967 281.691C111.665 281.58 107.258 281.446 103.264 279.765C99.2704 278.083 95.743 274.483 95.2315 269.998C94.4794 263.429 100.083 258.282 104.257 253.316C116.389 238.82 119.104 217.732 130.792 202.842C135.177 197.331 140.639 192.875 146.808 189.773C152.977 186.671 159.708 184.997 166.547 184.864" fill="url(#paint2_linear)"/>
<path d="M221.705 276.622H134.362V282.764H221.705V276.622Z" fill="#00CFFF"/>
<path d="M221.705 276.622H134.362V282.764H221.705V276.622Z" fill="url(#paint3_linear)"/>
<path d="M232.143 175.137H125.764C117.203 175.137 110.263 182.422 110.263 191.409V246.02C110.263 255.007 117.203 262.292 125.764 262.292H232.143C240.704 262.292 247.644 255.007 247.644 246.02V191.409C247.644 182.422 240.704 175.137 232.143 175.137Z" fill="#00CFFF"/>
<path d="M232.143 177.766H125.764C117.203 177.766 110.263 185.051 110.263 194.038V248.649C110.263 257.636 117.203 264.921 125.764 264.921H232.143C240.704 264.921 247.644 257.636 247.644 248.649V194.038C247.644 185.051 240.704 177.766 232.143 177.766Z" fill="url(#paint4_linear)"/>
<path opacity="0.26" d="M158.604 261.25L173.226 230.12H186.606L188.486 261.692L158.604 261.25Z" fill="url(#paint5_linear)"/>
<path d="M193.301 282.765H167.104L173.234 230.12H186.614L193.301 282.765Z" fill="#00CFFF"/>
<path d="M194.539 282.765H168.351L174.48 230.12H187.853L194.539 282.765Z" fill="url(#paint6_linear)"/>
<path d="M363.127 0.147705H242.766C232.61 0.147705 224.377 8.7903 224.377 19.4515V108.359C224.377 119.021 232.61 127.663 242.766 127.663H363.127C373.283 127.663 381.516 119.021 381.516 108.359V19.4515C381.516 8.7903 373.283 0.147705 363.127 0.147705Z" fill="white"/>
<path opacity="0.63" d="M93.7812 158.25H13.7111C10.0752 158.243 6.59006 156.724 4.01981 154.024C1.44957 151.325 0.00397743 147.665 0 143.849V84.7057C0.00397743 80.889 1.44957 77.2297 4.01981 74.5301C6.59006 71.8306 10.0752 70.3111 13.7111 70.3048H93.7812C97.4171 70.3111 100.902 71.8306 103.472 74.5301C106.043 77.2297 107.488 80.889 107.492 84.7057V143.849C107.488 147.665 106.043 151.325 103.472 154.024C100.902 156.724 97.4171 158.243 93.7812 158.25ZM13.7111 73.4234C10.8618 73.4276 8.13039 74.6176 6.11566 76.7325C4.10094 78.8475 2.96731 81.7147 2.96333 84.7057V143.849C2.96731 146.84 4.10094 149.707 6.11566 151.822C8.13039 153.937 10.8618 155.127 13.7111 155.131H93.7812C96.6304 155.127 99.3619 153.937 101.377 151.822C103.391 149.707 104.525 146.84 104.529 143.849V84.7057C104.525 81.7147 103.391 78.8475 101.377 76.7325C99.3619 74.6176 96.6304 73.4276 93.7812 73.4234H13.7111Z" fill="#00CFFF"/>
<path d="M93.78 69.752H13.7099C6.95575 69.752 1.48047 75.4995 1.48047 82.5896V141.74C1.48047 148.83 6.95575 154.578 13.7099 154.578H93.78C100.534 154.578 106.009 148.83 106.009 141.74V82.5896C106.009 75.4995 100.534 69.752 93.78 69.752Z" fill="white"/>
<path d="M150.256 3.41602H101.436C97.3194 3.41602 93.9824 6.91901 93.9824 11.2402V47.3055C93.9824 51.6266 97.3194 55.1296 101.436 55.1296H150.256C154.372 55.1296 157.709 51.6266 157.709 47.3055V11.2402C157.709 6.91901 154.372 3.41602 150.256 3.41602Z" fill="white"/>
<path d="M102.105 29.8179L118.186 21.1332V23.6439L104.648 30.7495V30.8285L118.186 37.9342V40.4527L102.105 31.768V29.8179Z" fill="#00CFFF"/>
<path d="M120.431 41.9607L130.103 15.575H132.457L122.755 41.9607H120.431Z" fill="#00CFFF"/>
<path d="M150.71 31.8867L134.645 40.5714V38.0133L148.295 30.9076V30.7892L134.645 23.6835V21.1255L150.71 29.8102V31.8867Z" fill="#00CFFF"/>
<path d="M157.988 265.182C154.544 264.456 150.994 265.119 147.459 265.23C144.089 265.332 140.69 264.914 137.358 265.23C134.026 265.545 130.536 266.809 128.385 269.501C126.999 271.256 126.272 273.483 126.339 275.762C126.335 276.613 126.543 277.451 126.941 278.193C127.859 279.733 129.769 280.199 131.454 280.459C131.8 280.522 132.153 280.522 132.499 280.459C133.74 280.175 134.176 278.501 135.252 277.807C135.981 277.431 136.799 277.283 137.606 277.38C146.421 277.57 155.238 277.533 164.058 277.27C164.663 277.306 165.268 277.175 165.81 276.891C168.217 275.312 165.434 271.775 164.569 270.085C163.881 268.812 162.935 267.713 161.798 266.866C160.661 266.018 159.36 265.444 157.988 265.182Z" fill="url(#paint7_linear)"/>
<path d="M194.674 269.927C193.464 271.671 192.802 274.443 194.434 275.753C195.9 276.938 198.051 275.959 199.42 274.656C200.789 273.353 202.038 271.664 203.858 271.293C204.129 272.951 204.49 274.766 205.783 275.753C207.746 277.253 210.454 275.959 212.876 275.982C215.057 275.982 217.546 277.064 219.231 275.603C220.103 274.814 221.096 273.416 221.999 274.143C222.261 274.404 222.442 274.743 222.518 275.114C223.346 277.782 224.564 280.299 226.128 282.575C227.226 283.025 228.053 281.462 228.264 280.206C228.85 276.784 228.979 273.292 228.647 269.832C228.467 267.905 228.076 265.884 226.767 264.495C225.06 262.703 222.36 262.624 219.945 262.663L210.258 262.813C204.497 262.932 198.262 264.779 194.674 269.927Z" fill="url(#paint8_linear)"/>
<path opacity="0.59" d="M189.531 206.631C189.528 208.624 188.963 210.571 187.906 212.226C186.85 213.882 185.35 215.172 183.595 215.933C181.841 216.694 179.911 216.892 178.049 216.503C176.188 216.113 174.478 215.153 173.135 213.744C171.793 212.335 170.879 210.54 170.508 208.586C170.136 206.632 170.325 204.606 171.05 202.764C171.776 200.922 173.004 199.348 174.581 198.239C176.159 197.13 178.013 196.536 179.912 196.533C180.417 196.523 180.922 196.576 181.416 196.691C181.478 199.027 182.321 201.267 183.798 203.016C185.275 204.766 187.291 205.914 189.494 206.26C189.521 206.381 189.534 206.506 189.531 206.631Z" fill="#00CFFF"/>
<g opacity="0.52">
<path opacity="0.52" d="M284.573 17.0437H244.41V20.1386H284.573V17.0437Z" fill="#00CFFF"/>
<path opacity="0.52" d="M268.921 23.0283H244.409V25.9338H268.921V23.0283Z" fill="#00CFFF"/>
<path opacity="0.52" d="M355.943 23.0283H278.806V25.9495H355.943V23.0283Z" fill="#00CFFF"/>
<path opacity="0.52" d="M290.87 29.0206H257.16V32.084H290.87V29.0206Z" fill="#00CFFF"/>
<path opacity="0.52" d="M308.15 35.0052H267.987V38.1002H308.15V35.0052Z" fill="#00CFFF"/>
<path opacity="0.52" d="M344.427 35.0052H310.763V38.4397H344.427V35.0052Z" fill="#00CFFF"/>
<path opacity="0.52" d="M298.932 40.9899H267.922V43.8953H298.932V40.9899Z" fill="#00CFFF"/>
<path opacity="0.52" d="M365.901 40.9899H301.911V44.2032H365.901V40.9899Z" fill="#00CFFF"/>
<path opacity="0.52" d="M284.572 49.0825H244.409V52.1774H284.572V49.0825Z" fill="#00CFFF"/>
<path opacity="0.52" d="M268.921 55.067H244.409V57.9725H268.921V55.067Z" fill="#00CFFF"/>
<path opacity="0.52" d="M355.943 55.067H278.806V57.9882H355.943V55.067Z" fill="#00CFFF"/>
<path opacity="0.52" d="M290.87 61.0516H257.16V64.115H290.87V61.0516Z" fill="#00CFFF"/>
<path opacity="0.52" d="M308.15 67.0441H267.987V70.139H308.15V67.0441Z" fill="#00CFFF"/>
<path opacity="0.52" d="M344.427 67.0441H310.763V70.4785H344.427V67.0441Z" fill="#00CFFF"/>
<path opacity="0.52" d="M298.932 73.0287H267.922V75.9341H298.932V73.0287Z" fill="#00CFFF"/>
<path opacity="0.52" d="M365.901 73.0287H301.911V76.242H365.901V73.0287Z" fill="#00CFFF"/>
<path opacity="0.52" d="M284.572 81.1292H244.409V84.2241H284.572V81.1292Z" fill="#00CFFF"/>
<path opacity="0.52" d="M268.921 87.1057H244.409V90.0111H268.921V87.1057Z" fill="#00CFFF"/>
<path opacity="0.52" d="M355.943 87.1057H278.806V90.0269H355.943V87.1057Z" fill="#00CFFF"/>
<path opacity="0.52" d="M290.87 93.0903H257.16V96.1537H290.87V93.0903Z" fill="#00CFFF"/>
<path opacity="0.52" d="M308.15 99.075H267.987V102.17H308.15V99.075Z" fill="#00CFFF"/>
<path opacity="0.52" d="M344.427 99.075H310.763V102.509H344.427V99.075Z" fill="#00CFFF"/>
<path opacity="0.52" d="M298.932 105.075H267.922V107.981H298.932V105.075Z" fill="#00CFFF"/>
<path opacity="0.52" d="M365.901 105.075H301.911V108.289H365.901V105.075Z" fill="#00CFFF"/>
</g>
<g opacity="0.52">
<path opacity="0.52" d="M40.0196 82.9918H13.9287V84.9972H40.0196V82.9918Z" fill="#00CFFF"/>
<path opacity="0.52" d="M29.8585 86.8762H13.9287V88.7632H29.8585V86.8762Z" fill="#00CFFF"/>
<path opacity="0.52" d="M86.3917 86.8762H36.2783V88.7711H86.3917V86.8762Z" fill="#00CFFF"/>
<path opacity="0.52" d="M44.1096 90.7765H22.208V92.7661H44.1096V90.7765Z" fill="#00CFFF"/>
<path opacity="0.52" d="M55.3321 94.661H29.2412V96.6664H55.3321V94.661Z" fill="#00CFFF"/>
<path opacity="0.52" d="M78.8969 94.661H57.0254V96.8954H78.8969V94.661Z" fill="#00CFFF"/>
<path opacity="0.52" d="M49.3513 98.5532H29.2021V100.44H49.3513V98.5532Z" fill="#00CFFF"/>
<path opacity="0.52" d="M92.8591 98.5532H51.2822V100.645H92.8591V98.5532Z" fill="#00CFFF"/>
<path opacity="0.52" d="M40.0196 103.812H13.9287V105.817H40.0196V103.812Z" fill="#00CFFF"/>
<path opacity="0.52" d="M29.8585 107.696H13.9287V109.583H29.8585V107.696Z" fill="#00CFFF"/>
<path opacity="0.52" d="M86.3917 107.696H36.2783V109.591H86.3917V107.696Z" fill="#00CFFF"/>
<path opacity="0.52" d="M44.1096 111.588H22.208V113.578H44.1096V111.588Z" fill="#00CFFF"/>
<path opacity="0.52" d="M55.3321 115.481H29.2412V117.486H55.3321V115.481Z" fill="#00CFFF"/>
<path opacity="0.52" d="M78.8969 115.481H57.0254V117.715H78.8969V115.481Z" fill="#00CFFF"/>
<path opacity="0.52" d="M49.3513 119.365H29.2021V121.252H49.3513V119.365Z" fill="#00CFFF"/>
<path opacity="0.52" d="M92.8591 119.365H51.2822V121.457H92.8591V119.365Z" fill="#00CFFF"/>
<path opacity="0.52" d="M40.0196 124.631H13.9287V126.636H40.0196V124.631Z" fill="#00CFFF"/>
<path opacity="0.52" d="M29.8585 128.516H13.9287V130.403H29.8585V128.516Z" fill="#00CFFF"/>
<path opacity="0.52" d="M86.3917 128.516H36.2783V130.41H86.3917V128.516Z" fill="#00CFFF"/>
<path opacity="0.52" d="M44.1096 132.4H22.208V134.39H44.1096V132.4Z" fill="#00CFFF"/>
<path opacity="0.52" d="M55.3321 136.292H29.2412V138.298H55.3321V136.292Z" fill="#00CFFF"/>
<path opacity="0.52" d="M78.8969 136.292H57.0254V138.527H78.8969V136.292Z" fill="#00CFFF"/>
<path opacity="0.52" d="M49.3513 140.185H29.2021V142.072H49.3513V140.185Z" fill="#00CFFF"/>
<path opacity="0.52" d="M92.8591 140.185H51.2822V142.277H92.8591V140.185Z" fill="#00CFFF"/>
</g>
<g opacity="0.61">
<path opacity="0.61" d="M254.25 198.057C254.491 196.707 254.746 195.357 255.002 194.007C255.137 193.217 255.265 192.483 255.408 191.638C256.612 191.851 257.785 192.049 258.951 192.286C259.028 192.316 259.111 192.33 259.193 192.326C259.276 192.322 259.357 192.3 259.431 192.261C259.505 192.222 259.571 192.168 259.624 192.102C259.677 192.036 259.717 191.958 259.74 191.875C260.267 190.801 260.854 189.759 261.47 188.717C261.524 188.657 261.566 188.585 261.593 188.507C261.62 188.429 261.631 188.346 261.626 188.263C261.621 188.18 261.6 188.099 261.564 188.025C261.528 187.951 261.479 187.886 261.418 187.833C260.666 186.893 259.913 185.922 259.079 184.919L264.118 180.474C264.87 181.446 265.667 182.385 266.412 183.356C266.455 183.438 266.514 183.509 266.584 183.565C266.655 183.621 266.737 183.661 266.823 183.682C266.91 183.703 267 183.704 267.087 183.686C267.174 183.668 267.257 183.631 267.329 183.577C268.341 183.109 269.381 182.71 270.443 182.385C270.932 182.235 271.045 182.03 271.037 181.548C271.037 180.34 271.037 179.132 271.037 177.877H277.611C277.611 179.117 277.611 180.34 277.611 181.564C277.611 182.054 277.731 182.235 278.205 182.354C279.266 182.685 280.306 183.086 281.319 183.554C281.392 183.607 281.474 183.643 281.562 183.66C281.649 183.677 281.739 183.674 281.825 183.651C281.911 183.629 281.991 183.587 282.061 183.53C282.131 183.472 282.188 183.399 282.229 183.317C282.981 182.361 283.733 181.43 284.523 180.443L289.554 184.88L286.975 188.125C287.674 189.475 288.328 190.77 289.028 192.033C289.103 192.175 289.434 192.246 289.629 192.215C290.803 192.025 291.976 191.796 293.225 191.567L294.368 198.357C293.142 198.586 291.954 198.799 290.773 199.044C290.577 199.083 290.291 199.273 290.261 199.439C290.028 200.876 289.84 202.321 289.622 203.844L293.097 205.96L289.81 211.937L286.313 209.829C285.184 210.776 284.094 211.676 283.018 212.616C282.959 212.698 282.92 212.794 282.903 212.896C282.886 212.997 282.892 213.102 282.921 213.2C283.312 214.424 283.74 215.632 284.177 216.895L278.002 219.264C277.618 218.166 277.205 217.092 276.881 215.987C276.865 215.853 276.822 215.724 276.755 215.609C276.687 215.494 276.596 215.396 276.489 215.321C276.382 215.246 276.261 215.196 276.134 215.175C276.007 215.154 275.877 215.161 275.753 215.198C274.689 215.273 273.621 215.273 272.556 215.198C272.485 215.179 272.41 215.177 272.337 215.19C272.264 215.204 272.195 215.233 272.134 215.276C272.072 215.319 272.02 215.375 271.98 215.44C271.94 215.505 271.914 215.579 271.902 215.656C271.511 216.84 271.09 218.024 270.654 219.256L264.471 216.887L265.855 212.876L262.373 209.797L258.845 211.929L255.551 205.952C256.642 205.289 257.665 204.657 258.703 204.05C258.774 204.021 258.839 203.977 258.894 203.922C258.949 203.866 258.993 203.8 259.023 203.726C259.053 203.653 259.069 203.574 259.069 203.494C259.07 203.413 259.055 203.334 259.026 203.26C258.785 202.147 258.59 201.018 258.454 199.889C258.387 199.336 258.266 199.099 257.702 198.997C256.559 198.862 255.446 198.602 254.303 198.389L254.25 198.057ZM274.377 189.822C272.716 189.796 271.085 190.287 269.69 191.233C268.295 192.18 267.199 193.539 266.539 195.139C265.88 196.739 265.687 198.508 265.985 200.224C266.284 201.939 267.059 203.523 268.215 204.775C269.37 206.028 270.853 206.893 272.476 207.261C274.1 207.629 275.791 207.483 277.336 206.843C278.88 206.203 280.21 205.096 281.156 203.663C282.101 202.23 282.621 200.535 282.65 198.791C282.676 196.453 281.821 194.199 280.272 192.519C278.722 190.839 276.604 189.87 274.377 189.822Z" fill="#00CFFF"/>
<path opacity="0.61" d="M311.021 218.024L312.458 222.761C311.623 223.053 310.818 223.306 310.043 223.614C309.945 223.662 309.86 223.733 309.793 223.822C309.726 223.911 309.681 224.016 309.66 224.127C309.592 224.964 309.615 225.801 309.555 226.638C309.538 226.709 309.535 226.784 309.546 226.856C309.557 226.929 309.582 226.999 309.619 227.061C309.656 227.124 309.705 227.178 309.762 227.221C309.82 227.263 309.885 227.293 309.953 227.309C310.705 227.601 311.457 227.948 312.27 228.296C311.668 229.875 311.096 231.335 310.502 232.867C309.682 232.52 308.908 232.164 308.118 231.872C308.014 231.845 307.906 231.843 307.801 231.868C307.697 231.893 307.599 231.943 307.516 232.014C306.885 232.717 306.29 233.467 305.629 234.265L306.975 236.965L302.823 239.286C302.409 238.496 302.033 237.707 301.62 236.917C301.565 236.829 301.492 236.754 301.406 236.699C301.32 236.644 301.224 236.611 301.123 236.601C300.168 236.72 299.213 236.902 298.228 237.059L297.603 240.036L293.016 239.002L293.61 236.025C292.76 235.441 291.948 234.865 291.113 234.328C291.024 234.299 290.93 234.293 290.839 234.309C290.747 234.326 290.661 234.365 290.586 234.422C289.909 234.943 289.255 235.496 288.548 236.073L285.652 232.18C286.344 231.612 286.976 231.075 287.63 230.562C287.694 230.531 287.75 230.487 287.796 230.432C287.843 230.377 287.877 230.312 287.899 230.243C287.92 230.173 287.927 230.099 287.92 230.026C287.912 229.954 287.891 229.883 287.856 229.82C287.564 229.059 287.313 228.281 287.104 227.49C287.099 227.417 287.079 227.345 287.046 227.28C287.013 227.215 286.967 227.157 286.912 227.111C286.857 227.066 286.794 227.032 286.726 227.013C286.658 226.994 286.587 226.99 286.517 227.001C285.698 227.001 284.885 227.001 284.141 227.001V222.027H287.104C287.48 221.095 287.856 220.164 288.24 219.208C288.292 219.066 288.149 218.774 288.022 218.64C287.435 218.04 286.811 217.479 286.164 216.863L289.308 213.192L291.474 215.221C292.391 214.732 293.286 214.274 294.166 213.769C294.272 213.705 294.317 213.405 294.302 213.232C294.211 212.379 294.084 211.526 293.963 210.603L298.619 209.924C298.739 210.8 298.86 211.605 298.942 212.418C298.987 212.876 299.168 213.066 299.627 213.121C300.316 213.226 300.997 213.381 301.665 213.587C301.736 213.625 301.814 213.647 301.893 213.652C301.973 213.657 302.053 213.645 302.128 213.616C302.202 213.587 302.271 213.542 302.328 213.484C302.386 213.426 302.431 213.356 302.462 213.279C302.861 212.545 303.305 211.85 303.771 211.076L307.749 213.697L306.245 216.279C306.839 217.124 307.419 217.961 308.028 218.758C308.113 218.814 308.209 218.851 308.308 218.867C308.408 218.884 308.509 218.879 308.607 218.853C309.404 218.608 310.201 218.332 311.021 218.024ZM298.386 231.249C299.577 231.23 300.736 230.84 301.716 230.129C302.696 229.418 303.452 228.417 303.89 227.254C304.328 226.091 304.427 224.818 304.175 223.596C303.923 222.374 303.331 221.258 302.474 220.389C301.617 219.521 300.533 218.939 299.361 218.717C298.189 218.495 296.98 218.644 295.888 219.144C294.796 219.644 293.87 220.473 293.228 221.526C292.585 222.579 292.255 223.808 292.279 225.059C292.304 226.733 292.962 228.327 294.107 229.492C295.252 230.657 296.791 231.298 298.386 231.272V231.249Z" fill="#00CFFF"/>
<path opacity="0.61" d="M312.071 191.291L313.884 189.799L316.185 192.854C315.742 193.225 315.351 193.644 314.907 193.912C314.463 194.18 314.298 194.552 314.598 195.065C314.7 195.253 314.776 195.455 314.824 195.665C315.215 196.912 315.215 196.912 316.494 196.968C316.802 196.968 317.11 196.968 317.404 196.968V200.828C316.712 200.828 316.095 200.828 315.486 200.828C315.132 200.828 314.959 200.915 314.884 201.278C314.82 201.574 314.729 201.862 314.613 202.139C314.147 203.363 314.14 203.363 315.102 204.255L315.854 204.942L313.388 207.855L311.658 206.276C310.981 206.647 310.304 206.994 309.65 207.389C309.584 207.455 309.534 207.535 309.501 207.624C309.469 207.712 309.455 207.808 309.461 207.902C309.522 208.566 309.627 209.221 309.717 209.939L306.054 210.5C305.957 209.797 305.881 209.134 305.746 208.495C305.715 208.387 305.661 208.288 305.588 208.206C305.515 208.124 305.425 208.061 305.325 208.021C304.648 207.839 303.964 207.721 303.204 207.563L301.978 209.616L298.827 207.571C299.165 206.987 299.473 206.426 299.812 205.889C299.866 205.838 299.909 205.774 299.936 205.703C299.963 205.632 299.974 205.555 299.968 205.479C299.962 205.402 299.94 205.328 299.902 205.262C299.865 205.197 299.813 205.141 299.752 205.1C299.49 204.824 299.251 204.526 299.037 204.207C298.458 203.363 298.466 203.363 297.495 203.694C297.112 203.836 296.743 203.963 296.247 204.121L295.081 200.434C295.69 200.22 296.254 199.999 296.841 199.826C296.916 199.815 296.987 199.789 297.052 199.748C297.116 199.707 297.171 199.653 297.215 199.588C297.258 199.524 297.288 199.45 297.302 199.373C297.317 199.295 297.316 199.216 297.3 199.139C297.279 198.58 297.299 198.02 297.36 197.465C297.378 197.393 297.381 197.319 297.371 197.245C297.36 197.172 297.335 197.102 297.298 197.039C297.261 196.977 297.212 196.922 297.154 196.88C297.096 196.838 297.03 196.809 296.961 196.794C296.382 196.581 295.818 196.328 295.209 196.067L296.578 192.451C297.21 192.712 297.796 192.98 298.398 193.186C298.495 193.211 298.596 193.213 298.694 193.191C298.792 193.169 298.883 193.124 298.962 193.059C299.458 192.515 299.91 191.93 300.414 191.322L299.346 189.191L302.602 187.343L303.715 189.467L306.242 189.072L306.724 186.704L310.349 187.493C310.221 188.156 310.108 188.78 309.973 189.404C309.94 189.477 309.923 189.557 309.922 189.639C309.921 189.72 309.936 189.8 309.966 189.875C309.997 189.949 310.042 190.016 310.099 190.071C310.156 190.126 310.223 190.168 310.296 190.193C310.89 190.493 311.455 190.896 312.071 191.291ZM301.542 198.586C301.539 199.564 301.811 200.52 302.325 201.336C302.839 202.151 303.57 202.789 304.428 203.169C305.286 203.549 306.232 203.655 307.147 203.472C308.062 203.289 308.905 202.827 309.57 202.143C310.236 201.459 310.693 200.583 310.886 199.627C311.079 198.671 310.998 197.676 310.653 196.767C310.309 195.859 309.717 195.078 308.95 194.522C308.184 193.966 307.279 193.661 306.348 193.644C305.721 193.627 305.097 193.742 304.513 193.983C303.93 194.225 303.399 194.586 302.951 195.048C302.503 195.509 302.148 196.059 301.908 196.667C301.667 197.275 301.545 197.928 301.549 198.586H301.542Z" fill="#00CFFF"/>
</g>
<defs>
<linearGradient id="paint0_linear" x1="167.3" y1="181.374" x2="183.606" y2="181.374" gradientUnits="userSpaceOnUse">
<stop stop-color="#E5C6D6"/>
<stop offset="0.42" stop-color="#EAD4D0"/>
<stop offset="1" stop-color="#F0E9CB"/>
</linearGradient>
<linearGradient id="paint1_linear" x1="11033.6" y1="14281.6" x2="15097.7" y2="14281.6" gradientUnits="userSpaceOnUse">
<stop stop-color="#E5C6D6"/>
<stop offset="0.42" stop-color="#EAD4D0"/>
<stop offset="1" stop-color="#F0E9CB"/>
</linearGradient>
<linearGradient id="paint2_linear" x1="175.174" y1="279.228" x2="183.454" y2="199.462" gradientUnits="userSpaceOnUse">
<stop stop-color="#010101" stop-opacity="0"/>
<stop offset="0.95" stop-color="#010101"/>
</linearGradient>
<linearGradient id="paint3_linear" x1="20809.3" y1="2371.76" x2="20809.3" y2="2735.82" gradientUnits="userSpaceOnUse">
<stop stop-color="#010101" stop-opacity="0"/>
<stop offset="0.95" stop-color="#010101"/>
</linearGradient>
<linearGradient id="paint4_linear" x1="169.153" y1="273.898" x2="191.785" y2="163.764" gradientUnits="userSpaceOnUse">
<stop stop-color="white" stop-opacity="0"/>
<stop offset="0.95" stop-color="white"/>
</linearGradient>
<linearGradient id="paint5_linear" x1="6460.02" y1="10057.8" x2="7647.21" y2="10057.8" gradientUnits="userSpaceOnUse">
<stop stop-color="#010101" stop-opacity="0"/>
<stop offset="0.95" stop-color="#010101"/>
</linearGradient>
<linearGradient id="paint6_linear" x1="6030.42" y1="17319.8" x2="6942.3" y2="17319.8" gradientUnits="userSpaceOnUse">
<stop stop-color="white" stop-opacity="0"/>
<stop offset="0.95" stop-color="white"/>
</linearGradient>
<linearGradient id="paint7_linear" x1="7022.62" y1="6454.42" x2="9197.93" y2="6454.42" gradientUnits="userSpaceOnUse">
<stop stop-color="#E5C6D6"/>
<stop offset="0.42" stop-color="#EAD4D0"/>
<stop offset="1" stop-color="#F0E9CB"/>
</linearGradient>
<linearGradient id="paint8_linear" x1="9380.5" y1="8165.85" x2="11043.7" y2="8165.85" gradientUnits="userSpaceOnUse">
<stop stop-color="#E5C6D6"/>
<stop offset="0.42" stop-color="#EAD4D0"/>
<stop offset="1" stop-color="#F0E9CB"/>
</linearGradient>
</defs>
</svg>
