<svg width="174" height="25" viewBox="0 0 174 25" fill="none" xmlns="http://www.w3.org/2000/svg">
<path d="M41.9912 17.0005H36.7512L35.9112 19.4805H32.3312L37.4112 5.44047H41.3712L46.4512 19.4805H42.8312L41.9912 17.0005ZM41.1112 14.3605L39.3712 9.22047L37.6512 14.3605H41.1112ZM48.5173 13.8805C48.5173 12.7338 48.7307 11.7271 49.1573 10.8605C49.5973 9.9938 50.1907 9.32714 50.9373 8.86047C51.684 8.3938 52.5173 8.16047 53.4373 8.16047C54.224 8.16047 54.9107 8.32047 55.4973 8.64047C56.0973 8.96047 56.5573 9.38047 56.8773 9.90047V8.32047H60.2973V19.4805H56.8773V17.9005C56.544 18.4205 56.0773 18.8405 55.4773 19.1605C54.8907 19.4805 54.204 19.6405 53.4173 19.6405C52.5107 19.6405 51.684 19.4071 50.9373 18.9405C50.1907 18.4605 49.5973 17.7871 49.1573 16.9205C48.7307 16.0405 48.5173 15.0271 48.5173 13.8805ZM56.8773 13.9005C56.8773 13.0471 56.6373 12.3738 56.1573 11.8805C55.6907 11.3871 55.1173 11.1405 54.4373 11.1405C53.7573 11.1405 53.1773 11.3871 52.6973 11.8805C52.2307 12.3605 51.9973 13.0271 51.9973 13.8805C51.9973 14.7338 52.2307 15.4138 52.6973 15.9205C53.1773 16.4138 53.7573 16.6605 54.4373 16.6605C55.1173 16.6605 55.6907 16.4138 56.1573 15.9205C56.6373 15.4271 56.8773 14.7538 56.8773 13.9005ZM68.5115 19.6405C67.5382 19.6405 66.6715 19.4738 65.9115 19.1405C65.1515 18.8071 64.5515 18.3538 64.1115 17.7805C63.6715 17.1938 63.4249 16.5405 63.3715 15.8205H66.7515C66.7915 16.2071 66.9715 16.5205 67.2915 16.7605C67.6115 17.0005 68.0049 17.1205 68.4715 17.1205C68.8982 17.1205 69.2249 17.0405 69.4515 16.8805C69.6915 16.7071 69.8115 16.4871 69.8115 16.2205C69.8115 15.9005 69.6449 15.6671 69.3115 15.5205C68.9782 15.3605 68.4382 15.1871 67.6915 15.0005C66.8915 14.8138 66.2249 14.6205 65.6915 14.4205C65.1582 14.2071 64.6982 13.8805 64.3115 13.4405C63.9249 12.9871 63.7315 12.3805 63.7315 11.6205C63.7315 10.9805 63.9049 10.4005 64.2515 9.88047C64.6115 9.34713 65.1315 8.92713 65.8115 8.62047C66.5049 8.3138 67.3249 8.16047 68.2715 8.16047C69.6715 8.16047 70.7715 8.50713 71.5715 9.20047C72.3849 9.8938 72.8515 10.8138 72.9715 11.9605H69.8115C69.7582 11.5738 69.5849 11.2671 69.2915 11.0405C69.0115 10.8138 68.6382 10.7005 68.1715 10.7005C67.7715 10.7005 67.4649 10.7805 67.2515 10.9405C67.0382 11.0871 66.9315 11.2938 66.9315 11.5605C66.9315 11.8805 67.0982 12.1205 67.4315 12.2805C67.7782 12.4405 68.3115 12.6005 69.0315 12.7605C69.8582 12.9738 70.5315 13.1871 71.0515 13.4005C71.5715 13.6005 72.0249 13.9338 72.4115 14.4005C72.8115 14.8538 73.0182 15.4671 73.0315 16.2405C73.0315 16.8938 72.8449 17.4805 72.4715 18.0005C72.1115 18.5071 71.5849 18.9071 70.8915 19.2005C70.2115 19.4938 69.4182 19.6405 68.5115 19.6405ZM79.7439 9.90047C80.0772 9.38047 80.5372 8.96047 81.1239 8.64047C81.7106 8.32047 82.3972 8.16047 83.1839 8.16047C84.1039 8.16047 84.9372 8.3938 85.6839 8.86047C86.4306 9.32714 87.0172 9.9938 87.4439 10.8605C87.8839 11.7271 88.1039 12.7338 88.1039 13.8805C88.1039 15.0271 87.8839 16.0405 87.4439 16.9205C87.0172 17.7871 86.4306 18.4605 85.6839 18.9405C84.9372 19.4071 84.1039 19.6405 83.1839 19.6405C82.4106 19.6405 81.7239 19.4805 81.1239 19.1605C80.5372 18.8405 80.0772 18.4271 79.7439 17.9205V24.8005H76.3239V8.32047H79.7439V9.90047ZM84.6239 13.8805C84.6239 13.0271 84.3839 12.3605 83.9039 11.8805C83.4372 11.3871 82.8572 11.1405 82.1639 11.1405C81.4839 11.1405 80.9039 11.3871 80.4239 11.8805C79.9572 12.3738 79.7239 13.0471 79.7239 13.9005C79.7239 14.7538 79.9572 15.4271 80.4239 15.9205C80.9039 16.4138 81.4839 16.6605 82.1639 16.6605C82.8439 16.6605 83.4239 16.4138 83.9039 15.9205C84.3839 15.4138 84.6239 14.7338 84.6239 13.8805ZM92.8181 7.16047C92.2181 7.16047 91.7248 6.98713 91.3381 6.64047C90.9648 6.28047 90.7781 5.84047 90.7781 5.32047C90.7781 4.78714 90.9648 4.34713 91.3381 4.00047C91.7248 3.64047 92.2181 3.46047 92.8181 3.46047C93.4048 3.46047 93.8848 3.64047 94.2581 4.00047C94.6448 4.34713 94.8381 4.78714 94.8381 5.32047C94.8381 5.84047 94.6448 6.28047 94.2581 6.64047C93.8848 6.98713 93.4048 7.16047 92.8181 7.16047ZM94.5181 8.32047V19.4805H91.0981V8.32047H94.5181ZM101.617 10.1805C102.017 9.56713 102.517 9.08713 103.117 8.74047C103.717 8.38047 104.383 8.20047 105.117 8.20047V11.8205H104.177C103.323 11.8205 102.683 12.0071 102.257 12.3805C101.83 12.7405 101.617 13.3805 101.617 14.3005V19.4805H98.1965V8.32047H101.617V10.1805ZM118.471 13.7205C118.471 14.0405 118.451 14.3738 118.411 14.7205H110.671C110.725 15.4138 110.945 15.9471 111.331 16.3205C111.731 16.6805 112.218 16.8605 112.791 16.8605C113.645 16.8605 114.238 16.5005 114.571 15.7805H118.211C118.025 16.5138 117.685 17.1738 117.191 17.7605C116.711 18.3471 116.105 18.8071 115.371 19.1405C114.638 19.4738 113.818 19.6405 112.911 19.6405C111.818 19.6405 110.845 19.4071 109.991 18.9405C109.138 18.4738 108.471 17.8071 107.991 16.9405C107.511 16.0738 107.271 15.0605 107.271 13.9005C107.271 12.7405 107.505 11.7271 107.971 10.8605C108.451 9.9938 109.118 9.32714 109.971 8.86047C110.825 8.3938 111.805 8.16047 112.911 8.16047C113.991 8.16047 114.951 8.38713 115.791 8.84047C116.631 9.2938 117.285 9.94047 117.751 10.7805C118.231 11.6205 118.471 12.6005 118.471 13.7205ZM114.971 12.8205C114.971 12.2338 114.771 11.7671 114.371 11.4205C113.971 11.0738 113.471 10.9005 112.871 10.9005C112.298 10.9005 111.811 11.0671 111.411 11.4005C111.025 11.7338 110.785 12.2071 110.691 12.8205H114.971Z" fill="white"/>
<path d="M7.37552 14.7228C5.48776 14.6153 4.41701 15.0909 3.77393 15.6347C2.56595 16.6556 2.69202 18.0628 1.85266 20.6166C1.26542 22.407 0.524999 23.7823 0 24.6548C0.80585 24.164 2.08723 23.4794 3.77872 22.9825C6.38935 22.2161 7.82392 22.5312 9.07818 21.4663C9.68137 20.9543 10.3867 20.0031 10.5319 18.0764C9.4803 16.9585 8.42712 15.8407 7.37552 14.7228Z" fill="#FEA734"/>
<path d="M25.2877 0.747671C23.893 0.356896 19.776 -0.610954 15.0749 1.05363C11.5053 2.31835 9.33345 4.4873 8.36484 5.58995C5.09995 4.45095 1.73772 5.72627 0.590382 8.06789C-0.593659 10.4852 1.07708 13.0298 1.19996 13.2116C1.28293 12.8965 1.75049 11.2577 3.45953 10.3368C4.58931 9.72793 5.6824 9.74459 6.14037 9.77791C5.88984 10.3141 5.62016 11.032 5.4574 11.9045C5.27548 12.8844 5.28984 13.7311 5.35048 14.3582C5.99037 14.9792 6.63027 15.6002 7.27016 16.2212L5.07601 18.1569C4.64038 18.5416 4.61484 19.1883 5.02016 19.6018C5.42548 20.0153 6.10686 20.0395 6.5425 19.6548L8.77654 17.6828C9.39728 18.2856 10.018 18.8884 10.6404 19.4897C11.234 19.5397 11.9489 19.5579 12.7515 19.4928C13.5622 19.4276 14.2691 19.2913 14.8483 19.1459C14.8053 19.6291 14.6808 20.2925 14.3201 21.0013C13.4856 22.6477 11.976 23.3884 11.4366 23.6232C13.192 24.7334 15.3765 24.9348 17.0856 24.0791C19.4185 22.9113 20.5643 19.9229 19.4185 17.1481C20.5898 16.2696 25.1824 12.6194 25.8749 6.56386C26.1526 4.16771 25.7313 2.14113 25.2877 0.747671ZM17.0425 11.1577C14.7207 11.1577 12.8393 9.37199 12.8393 7.1682C12.8393 4.96441 14.7207 3.17866 17.0425 3.17866C19.3643 3.17866 21.2457 4.96441 21.2457 7.1682C21.2457 9.37047 19.3643 11.1577 17.0425 11.1577Z" fill="#3F90F7"/>
</svg>
