<svg width="33" height="33" viewBox="0 0 33 33" fill="none" xmlns="http://www.w3.org/2000/svg">
<rect width="33" height="33" rx="5" fill="#8490F6"/>
<g clip-path="url(#clip0)">
<path d="M20.5638 14.4962C20.5156 14.1924 20.2403 13.9734 19.9164 13.9734H14.6691L13.7162 12.9059C13.5142 12.6815 13.2178 12.54 12.9059 12.54H9.49658C9.25364 12.54 9.02275 12.6477 8.86561 12.8238C8.70895 13.0003 8.64195 13.2421 8.68293 13.4689L8.77355 13.9734H8.71378C8.52289 13.9734 8.34214 14.0469 8.21874 14.1837C8.09341 14.321 8.03895 14.4999 8.06835 14.6782L9.12687 21.1782C9.19098 21.5691 9.54671 21.857 9.96462 21.857H20.9532C21.1441 21.857 21.3249 21.7776 21.4483 21.6421C21.5722 21.5052 21.6281 21.3278 21.5996 21.1494L20.5638 14.4962Z" fill="white"/>
<path d="M17.9508 9.64563H13.8464C13.5634 9.64563 13.334 9.88741 13.334 10.1557C13.334 10.4239 13.5639 10.6657 13.8464 10.6657H17.9508C18.2347 10.6657 18.4636 10.4239 18.4636 10.1557C18.4636 9.88741 18.2337 9.64563 17.9508 9.64563Z" fill="white"/>
<path d="M22.7878 13.2197C22.6697 13.0897 22.4967 13.0081 22.315 13.0081H21.1504L21.4155 15.3324L22.0484 19.393L22.9343 13.6942C22.9589 13.5245 22.9069 13.3502 22.7878 13.2197Z" fill="white"/>
<path d="M12.3508 8.59813H19.5155V13.2016H20.5065V8.2569C20.5061 7.93026 20.2178 7.66064 19.8727 7.66064H11.9492C11.5704 7.66064 11.2734 7.9558 11.2734 8.31438V11.8782H12.3508V8.59813Z" fill="white"/>
<path d="M17.9514 11.52H13.847C13.6007 11.52 13.3954 11.7043 13.3457 11.9301C13.6971 12.015 14.0167 12.1961 14.2572 12.463L14.3319 12.5396H17.9514C18.2353 12.5396 18.4643 12.2978 18.4643 12.0296C18.4643 11.7613 18.2344 11.52 17.9514 11.52Z" fill="white"/>
</g>
<defs>
<clipPath id="clip0">
<rect x="9" y="8.66064" width="15" height="14.1964" fill="white"/>
</clipPath>
</defs>
</svg>
