<svg width="33" height="33" viewBox="0 0 33 33" fill="none" xmlns="http://www.w3.org/2000/svg">
<rect width="33" height="33" rx="5" fill="#40D3B2"/>
<path d="M12.2527 14.0481C12.9253 14.0481 13.5514 13.781 14.0182 13.296C14.1371 13.0594 14.2885 12.842 14.467 12.6498C14.6245 12.3193 14.7046 11.965 14.7046 11.5962C14.7046 10.2442 13.6047 9.14429 12.2527 9.14429C10.9007 9.14429 9.80078 10.2442 9.80078 11.5962C9.80078 12.9482 10.9007 14.0481 12.2527 14.0481Z" fill="white"/>
<path d="M16.5027 16.9905C17.8547 16.9905 18.9546 15.8906 18.9546 14.5386C18.9546 13.1866 17.8547 12.0867 16.5027 12.0867C15.1507 12.0867 14.0508 13.1866 14.0508 14.5386C14.0508 15.8906 15.1507 16.9905 16.5027 16.9905Z" fill="white"/>
<path d="M18.9872 13.296C19.454 13.781 20.0801 14.0481 20.7527 14.0481C22.1047 14.0481 23.2046 12.9482 23.2046 11.5962C23.2046 10.2442 22.1047 9.14429 20.7527 9.14429C19.4007 9.14429 18.3008 10.2442 18.3008 11.5962C18.3008 11.965 18.3808 12.3193 18.5385 12.6497C18.7169 12.8419 18.8684 13.0594 18.9872 13.296Z" fill="white"/>
<path d="M20.7506 14.375C20.2324 14.375 19.7361 14.4871 19.2738 14.7081C19.207 15.8116 18.4933 16.7428 17.5078 17.1276C19.0934 17.569 20.2602 19.0257 20.2602 20.75V21.2404H24.1833V17.8077C24.1833 15.9149 22.6434 14.375 20.7506 14.375Z" fill="white"/>
<path d="M15.4939 17.1276C14.5084 16.7428 13.7947 15.8116 13.7279 14.7081C13.2656 14.4871 12.7693 14.375 12.2511 14.375C10.3583 14.375 8.81836 15.9149 8.81836 17.8077V21.2404H12.7414V20.75C12.7414 19.0257 13.9083 17.569 15.4939 17.1276Z" fill="white"/>
<path d="M16.5011 17.3174C14.6083 17.3174 13.0684 18.8573 13.0684 20.7501V24.1828H19.9337V20.7501C19.9337 18.8573 18.3938 17.3174 16.5011 17.3174Z" fill="white"/>
</svg>
