<svg width="22" height="22" viewBox="0 0 22 22" fill="none" xmlns="http://www.w3.org/2000/svg">
<circle cx="11" cy="11" r="11" fill="#1890FF"/>
<g clip-path="url(#clip0)">
<path d="M15.0794 7.56848H10.0047C9.91537 7.56848 9.83135 7.53368 9.76814 7.47047L9.19438 6.8967C9.02051 6.72284 8.78932 6.62708 8.54344 6.62708H6.92059C6.41297 6.62708 6 7.04006 6 7.54766V8.86678C6.25479 8.66944 6.57408 8.55155 6.92057 8.55155H15.0794C15.4259 8.55155 15.7452 8.66942 16 8.86678V8.48907C16 7.97977 15.5878 7.56848 15.0794 7.56848Z" fill="white"/>
<path d="M15.0794 9.13721H6.92057C6.41137 9.13721 6 9.54932 6 10.0578V14.451C6 14.9602 6.41213 15.3716 6.92057 15.3716H15.0794C15.5887 15.3716 16 14.9594 16 14.451V10.0578C16 9.5485 15.5878 9.13721 15.0794 9.13721Z" fill="white"/>
</g>
<defs>
<clipPath id="clip0">
<rect x="6" y="6" width="10" height="10" fill="white"/>
</clipPath>
</defs>
</svg>
