<svg width="15" height="9" viewBox="0 0 15 9" fill="none" xmlns="http://www.w3.org/2000/svg">
<path d="M14.5417 0.691853C14.2876 0.527728 13.9608 0.44871 13.6326 0.472014C13.3043 0.495318 13.0011 0.619055 12.789 0.816269L7.52166 5.75506L2.25424 0.81635C2.04278 0.618362 1.73935 0.494126 1.41068 0.470971C1.08201 0.447816 0.755036 0.52764 0.501681 0.692882C0.248326 0.858123 0.0893466 1.09525 0.0597166 1.35209C0.0300867 1.60893 0.132233 1.86445 0.343685 2.06244L6.56639 7.89774C6.68312 8.00714 6.82919 8.09514 6.99427 8.15554C7.15934 8.21594 7.33939 8.24724 7.52166 8.24724C7.70393 8.24724 7.88398 8.21594 8.04905 8.15554C8.21413 8.09514 8.3602 8.00714 8.47694 7.89774L14.6996 2.06236C14.911 1.86417 15.0131 1.60852 14.9835 1.35156C14.9539 1.0946 14.795 0.85733 14.5417 0.691853Z" fill="black"/>
</svg>
