<svg width="12" height="12" viewBox="0 0 12 12" fill="none" xmlns="http://www.w3.org/2000/svg">
<path d="M11.8627 0.137059C11.6796 -0.0460117 11.3828 -0.0460117 11.1998 0.137059L9.89818 1.43868C8.81211 0.508121 7.44284 -0.000238279 6.00001 -0.000238279C4.39735 -0.000238279 2.89062 0.623856 1.75735 1.75711C0.624076 2.89036 5.86174e-06 4.39711 5.86174e-06 5.99976C5.86174e-06 7.44396 0.50792 8.81226 1.43869 9.89817L0.137303 11.1996C-0.0457676 11.3826 -0.0457676 11.6794 0.137303 11.8625C0.228826 11.954 0.348779 11.9998 0.468756 11.9998C0.588732 11.9998 0.708686 11.954 0.800209 11.8625L11.8627 0.799965C12.0458 0.616918 12.0458 0.320105 11.8627 0.137059ZM0.937506 5.99976C0.937506 3.20829 3.20853 0.937262 6.00001 0.937262C7.19269 0.937262 8.32573 1.34899 9.2329 2.10396L2.10418 9.23268C1.34907 8.32565 0.937506 7.19353 0.937506 5.99976ZM11.4241 3.43171C11.8062 4.23757 12 5.10157 12 5.99976C12 7.18408 11.6485 8.33587 10.9834 9.33061C10.8931 9.46579 10.7446 9.53887 10.5933 9.53887C10.5038 9.53887 10.4132 9.51328 10.3332 9.45977C10.118 9.31589 10.0602 9.02477 10.204 8.80957C10.7657 7.96954 11.0625 6.99794 11.0625 5.99976C11.0625 5.24161 10.8992 4.51275 10.577 3.83343C10.4661 3.59953 10.5658 3.31996 10.7997 3.20903C11.0337 3.09806 11.3132 3.19781 11.4241 3.43171ZM9.26265 10.4913C9.39678 10.7127 9.326 11.001 9.10456 11.1351C8.17072 11.7008 7.09719 11.9998 6.00001 11.9998C5.12136 11.9998 4.27447 11.814 3.48284 11.4477C3.2479 11.339 3.14558 11.0604 3.2543 10.8254C3.36303 10.5905 3.64163 10.4882 3.87657 10.5969C4.5439 10.9057 5.25833 11.0623 6.00001 11.0623C6.9259 11.0623 7.83148 10.8102 8.61887 10.3332C8.84026 10.1991 9.12851 10.2698 9.26265 10.4913Z" fill="#2C3848"/>
</svg>
