<svg width="16" height="16" viewBox="0 0 16 16" fill="none" xmlns="http://www.w3.org/2000/svg">
<path d="M1.42857 6.57143H6.28571C6.4435 6.57143 6.57143 6.4435 6.57143 6.28571V1.42857C6.57143 0.639648 7.21108 0 8 0C8.78892 0 9.42857 0.639648 9.42857 1.42857V6.28571C9.42857 6.4435 9.5565 6.57143 9.71429 6.57143H14.5714C15.3604 6.57143 16 7.21108 16 8C16 8.78892 15.3604 9.42857 14.5714 9.42857H9.71429C9.5565 9.42857 9.42857 9.5565 9.42857 9.71429V14.5714C9.42857 15.3604 8.78892 16 8 16C7.21108 16 6.57143 15.3604 6.57143 14.5714V9.71429C6.57143 9.5565 6.4435 9.42857 6.28571 9.42857H1.42857C0.639647 9.42857 0 8.78892 0 8C0 7.21108 0.639647 6.57143 1.42857 6.57143Z" fill="#6672fb"/>
</svg>