<svg width="13" height="12" viewBox="0 0 13 12" fill="none" xmlns="http://www.w3.org/2000/svg">
<path d="M0.730744 6.68895L0.710452 6.68451L9.40946 6.68451L6.67481 9.42518C6.5409 9.55899 6.46744 9.74025 6.46744 9.93049C6.46744 10.1207 6.5409 10.3007 6.67481 10.4348L7.10032 10.8606C7.23413 10.9944 7.41243 11.0684 7.60257 11.0684C7.79281 11.0684 7.97122 10.9949 8.10502 10.8611L12.7927 6.17381C12.9271 6.03947 13.0005 5.86054 13 5.67019C13.0005 5.47878 12.9271 5.29974 12.7927 5.16562L8.10502 0.477907C7.97122 0.344208 7.79292 0.270647 7.60257 0.270647C7.41243 0.270647 7.23413 0.344314 7.10032 0.477907L6.67481 0.90363C6.5409 1.03722 6.46744 1.21563 6.46744 1.40587C6.46744 1.59601 6.5409 1.76501 6.67481 1.89871L9.44032 4.65471L0.721021 4.65471C0.329224 4.65471 -3.8147e-06 4.99239 -3.8147e-06 5.38398V5.9861C-3.8147e-06 6.37769 0.338947 6.68895 0.730744 6.68895Z" fill="#006ED3"/>
</svg>
