<svg width="33" height="33" viewBox="0 0 33 33" fill="none" xmlns="http://www.w3.org/2000/svg">
<rect width="33" height="33" rx="5" fill="#FFC059"/>
<g clip-path="url(#clip0)">
<path d="M13.0699 12.3208L11.6838 12.4279C11.2981 12.4577 10.9545 12.6599 10.7412 12.9825L9.14257 15.4004C8.98079 15.6451 8.95507 15.9513 9.07373 16.2195C9.19241 16.4878 9.43632 16.6747 9.72616 16.7196L10.9954 16.9162C11.2923 15.3406 12.003 13.7688 13.0699 12.3208Z" fill="white"/>
<path d="M16.084 22.0045L16.2806 23.2737C16.3255 23.5636 16.5124 23.8075 16.7806 23.9261C16.8922 23.9755 17.0104 23.9999 17.1279 23.9999C17.293 23.9999 17.4569 23.9518 17.5998 23.8573L20.0177 22.2587C20.3404 22.0453 20.5425 21.7018 20.5723 21.3161L20.6794 19.9299C19.2313 20.9969 17.6596 21.7076 16.084 22.0045Z" fill="white"/>
<path d="M15.6063 21.1249C15.6504 21.1249 15.6947 21.1212 15.7389 21.1139C16.399 21.0035 17.0353 20.8176 17.6422 20.5742L12.4257 15.3577C12.1823 15.9646 11.9964 16.6008 11.886 17.261C11.8425 17.5212 11.9298 17.7863 12.1163 17.9728L15.027 20.8836C15.1819 21.0384 15.3909 21.1249 15.6063 21.1249Z" fill="white"/>
<path d="M23.725 15.0938C25.0015 12.6259 25.0488 10.0179 24.9821 8.79478C24.9592 8.37568 24.6251 8.04156 24.206 8.01872C24.0068 8.00784 23.7708 8 23.5048 8C22.1371 8 19.973 8.20715 17.907 9.2758C16.2651 10.1251 14.112 11.9951 12.8418 14.4526C12.8568 14.4644 12.8715 14.4768 12.8853 14.4906L18.5102 20.1156C18.524 20.1294 18.5364 20.144 18.5482 20.159C21.0057 18.8887 22.8757 16.7357 23.725 15.0938ZM18.3038 11.3825C19.2176 10.4687 20.7045 10.4686 21.6183 11.3825C22.061 11.8251 22.3048 12.4137 22.3048 13.0397C22.3048 13.6658 22.061 14.2544 21.6183 14.697C21.1614 15.1539 20.5611 15.3823 19.9611 15.3824C19.3608 15.3824 18.7607 15.154 18.3038 14.697C17.8611 14.2544 17.6173 13.6658 17.6173 13.0397C17.6173 12.4137 17.8611 11.8251 18.3038 11.3825Z" fill="white"/>
<path d="M18.9646 14.034C19.5129 14.5823 20.4051 14.5823 20.9534 14.034C21.219 13.7683 21.3652 13.4152 21.3652 13.0396C21.3652 12.664 21.219 12.3108 20.9534 12.0453C20.6792 11.7711 20.3191 11.634 19.959 11.634C19.5989 11.634 19.2388 11.7711 18.9646 12.0453C18.699 12.3108 18.5527 12.664 18.5527 13.0396C18.5527 13.4152 18.699 13.7684 18.9646 14.034Z" fill="white"/>
<path d="M9.47853 21.1855C9.5985 21.1855 9.71847 21.1397 9.80997 21.0481L11.3404 19.5177C11.5234 19.3347 11.5234 19.0379 11.3404 18.8548C11.1573 18.6718 10.8605 18.6718 10.6775 18.8548L9.14706 20.3852C8.964 20.5683 8.964 20.8651 9.14706 21.0481C9.23859 21.1397 9.35856 21.1855 9.47853 21.1855Z" fill="white"/>
<path d="M12.7425 20.2574C12.5595 20.0744 12.2627 20.0744 12.0796 20.2574L9.1373 23.1998C8.95423 23.3828 8.95423 23.6796 9.1373 23.8627C9.22883 23.9542 9.3488 23.9999 9.46877 23.9999C9.58873 23.9999 9.7087 23.9542 9.8002 23.8626L12.7425 20.9203C12.9256 20.7373 12.9256 20.4405 12.7425 20.2574Z" fill="white"/>
<path d="M13.4821 21.6598L11.9517 23.1902C11.7687 23.3732 11.7687 23.67 11.9517 23.8531C12.0433 23.9446 12.1632 23.9904 12.2832 23.9904C12.4031 23.9904 12.5231 23.9446 12.6146 23.8531L14.145 22.3227C14.3281 22.1396 14.3281 21.8428 14.145 21.6598C13.962 21.4767 13.6652 21.4767 13.4821 21.6598Z" fill="white"/>
</g>
<defs>
<clipPath id="clip0">
<rect x="9" y="8" width="16" height="16" fill="white"/>
</clipPath>
</defs>
</svg>
