<svg width="9" height="16" viewBox="0 0 9 16" fill="none" xmlns="http://www.w3.org/2000/svg">
<path d="M0.647693 1.16855C0.474278 1.42261 0.390788 1.74937 0.415411 2.07765C0.440034 2.40593 0.570775 2.70912 0.779151 2.92118L5.9975 8.18854L0.779237 13.456C0.570043 13.6674 0.438774 13.9709 0.414309 14.2995C0.389843 14.6282 0.474185 14.9552 0.64878 15.2085C0.823375 15.4619 1.07392 15.6209 1.3453 15.6505C1.61668 15.6801 1.88667 15.578 2.09586 15.3665L8.26146 9.14382C8.37705 9.02709 8.47004 8.88101 8.53385 8.71594C8.59767 8.55086 8.63074 8.37082 8.63074 8.18854C8.63074 8.00627 8.59767 7.82623 8.53385 7.66115C8.47004 7.49607 8.37705 7.35 8.26146 7.23327L2.09577 1.01057C1.88637 0.799188 1.61625 0.697101 1.34475 0.726722C1.07324 0.756343 0.822537 0.91525 0.647693 1.16855Z" fill="black"/>
</svg>
