<svg width="201" height="69" viewBox="0 0 201 69" fill="none" xmlns="http://www.w3.org/2000/svg">
<g clip-path="url(#clip0)">
<path d="M81.6047 68.7065C79.7848 68.8397 78.0994 68.7761 76.2705 68.7912C76.3781 67.3594 76.8353 60.9843 76.9399 59.5525C76.9847 58.947 77.0624 58.269 77.5226 57.8755C77.8037 57.6666 78.1329 57.5342 78.4789 57.491C79.1812 57.3578 80.1046 57.1883 80.8128 57.3518C81.4105 57.491 81.3896 58.0208 81.4105 58.5444C81.5031 60.2578 81.2342 67.0355 81.6047 68.7065Z" fill="url(#paint0_linear)"/>
<path d="M54.7934 58.1688L54.6201 68.57L59.3357 68.8091C59.3357 68.8091 59.264 60.7176 57.7609 59.5431C56.8932 58.8533 55.8761 58.3823 54.7934 58.1688Z" fill="url(#paint1_linear)"/>
<path d="M60.5839 31.8545C59.9295 33.7737 59.9863 35.8533 60.0162 37.8815C60.1124 41.1832 60.0276 44.4879 59.7621 47.7801C59.5978 49.548 59.3468 51.3279 59.5589 53.0867C59.7711 54.8454 60.5212 56.6344 61.9496 57.6273C62.9716 58.3357 64.2327 58.59 65.4639 58.7231C66.7223 58.8454 67.9862 58.899 69.2502 58.8836C70.6062 58.9324 71.9626 58.8001 73.2845 58.4901C74.5934 58.1329 75.8515 57.4185 76.6284 56.2954C77.3456 55.2571 77.5997 53.9676 77.7939 52.7143C78.7138 46.8114 78.7239 40.7997 77.8238 34.8937C77.7353 34.1232 77.5464 33.3679 77.262 32.6476C76.8257 31.6486 76.0666 30.8313 75.3225 30.0413C74.5784 29.2512 73.7387 28.3642 72.7077 27.9223C71.8786 27.5951 70.9976 27.4238 70.1078 27.4167C66.211 27.2048 62.0423 27.5499 60.5839 31.8545Z" fill="#FFE368"/>
<path d="M76.0559 45.9154L75.6555 46.7751C75.514 46.0456 75.4797 45.2989 75.5539 44.5592L75.6973 41.8197C75.8087 40.6243 75.7745 39.4195 75.5957 38.2326C75.3656 37.055 74.8157 35.8987 73.8625 35.1873C72.6402 34.2792 71.0026 34.2277 69.4815 34.2368C68.077 34.2368 66.5679 34.3034 65.4442 35.1449C64.8467 35.6505 64.3411 36.258 63.9501 36.94C63.4581 37.6136 63.0803 38.3655 62.8324 39.1649C62.7102 39.7191 62.655 40.2863 62.6681 40.854C62.6232 43.754 62.7697 46.7085 61.9897 49.5025C61.7327 50.4106 61.392 51.3188 61.2815 52.2753C61.2488 52.4388 61.2787 52.6087 61.3651 52.7506C61.464 52.8479 61.5904 52.9114 61.7267 52.9322C62.811 53.1817 63.9085 53.3677 65.0139 53.4892L70.9159 54.2581C71.5677 54.3789 72.2339 54.3973 72.8912 54.3126C73.3425 54.2339 73.7877 54.0553 74.227 53.9736C75.7212 53.6981 76.5191 52.8929 76.295 51.3339C76.0768 49.5367 75.9969 47.7251 76.0559 45.9154Z" fill="url(#paint2_linear)"/>
<path d="M61.9465 51.0434C60.2428 51.5151 58.6754 52.3934 57.3756 53.6047C56.0758 54.816 55.0814 56.3251 54.4756 58.0057C56.3642 59.2166 58.4561 60.7574 58.6085 63.0186C58.6294 63.3001 58.6384 68.5461 58.8625 68.7096C59.0031 68.7911 59.1639 68.83 59.3257 68.8216C65.2606 69.0698 71.1965 69.0607 77.1333 68.7943C77.1692 67.5835 77.2021 61.4354 77.2349 60.2155C77.2265 60.0384 77.2603 59.8619 77.3336 59.7009C77.4524 59.5288 77.6187 59.3961 77.8117 59.3195C79.0832 58.6648 80.4042 58.1142 81.7623 57.6727C81.2105 56.2045 80.4635 54.8195 79.542 53.5559C78.6873 52.3813 74.1868 49.8537 66.7488 49.9445C65.0663 49.9627 63.5722 50.6075 61.9465 51.0434Z" fill="#68E1FD"/>
<path d="M52.4667 68.5428C43.1579 68.2643 33.8761 67.565 24.8184 65.6277C25.0425 64.1141 25.0903 62.5824 25.3174 61.087C25.6163 59.1375 26.3394 57.1275 27.8964 55.9409C29.5967 54.6635 31.8081 54.6271 33.7326 53.8946C35.7528 53.1348 38.2152 53.7493 40.3548 53.8946C43.0294 54.0732 45.8564 54.3153 48.02 55.9046C49.5142 57.0004 50.5541 58.6623 51.1936 60.421C51.8331 62.1798 52.0901 64.0536 52.2993 65.9213C52.3232 66.0363 52.4428 67.6013 52.4667 68.5428Z" fill="#68E1FD"/>
<path d="M34.7056 51.8214C32.968 51.9299 31.2397 51.4922 29.7569 50.5681C29.378 50.338 29.0279 50.0626 28.714 49.7478C28.3532 49.3526 28.0301 48.9239 27.7487 48.4673L25.9557 45.7429C25.5468 45.196 25.2344 44.5815 25.0323 43.9267C24.936 43.596 24.9252 43.2457 25.0011 42.9096C25.077 42.5735 25.237 42.2629 25.4656 42.0075C24.9994 40.2154 24.7663 37.9844 25.6509 36.3619C26.2067 35.3387 27.2108 34.6486 27.9489 33.7495C28.8215 32.6809 29.3774 31.2673 30.5817 30.6074C31.8996 29.8869 33.5073 30.3258 35.0015 30.4257C37.6611 30.5983 40.3626 29.6236 42.9625 30.2229C43.5874 30.3569 44.1815 30.6096 44.7136 30.9676C45.9807 31.8515 46.6292 33.3893 47.6452 34.5547C48.6613 35.7202 50.1136 36.6737 50.4005 38.1873C50.6993 39.7946 49.5578 41.3052 49.3665 42.9307C49.2559 43.854 49.4621 44.7954 49.3157 45.7126C49.0557 47.3352 47.69 48.6308 46.1391 49.103C45.1589 49.4057 44.0472 49.4542 43.2972 50.1655C42.6756 50.771 42.4006 51.776 41.5878 52.0696C41.266 52.1595 40.9297 52.1832 40.5987 52.1392C38.7369 52.0181 36.5733 51.7003 34.7056 51.8214Z" fill="#606161"/>
<path d="M34.7056 51.8214C32.968 51.9299 31.2397 51.4922 29.7569 50.5681C29.378 50.338 29.0279 50.0626 28.714 49.7478C28.3532 49.3526 28.0301 48.9239 27.7487 48.4673L25.9557 45.7429C25.5468 45.196 25.2344 44.5815 25.0323 43.9267C24.936 43.596 24.9252 43.2457 25.0011 42.9096C25.077 42.5735 25.237 42.2629 25.4656 42.0075C24.9994 40.2154 24.7663 37.9844 25.6509 36.3619C26.2067 35.3387 27.2108 34.6486 27.9489 33.7495C28.8215 32.6809 29.3774 31.2673 30.5817 30.6074C31.8996 29.8869 33.5073 30.3258 35.0015 30.4257C37.6611 30.5983 40.3626 29.6236 42.9625 30.2229C43.5874 30.3569 44.1815 30.6096 44.7136 30.9676C45.9807 31.8515 46.6292 33.3893 47.6452 34.5547C48.6613 35.7202 50.1136 36.6737 50.4005 38.1873C50.6993 39.7946 49.5578 41.3052 49.3665 42.9307C49.2559 43.854 49.4621 44.7954 49.3157 45.7126C49.0557 47.3352 47.69 48.6308 46.1391 49.103C45.1589 49.4057 44.0472 49.4542 43.2972 50.1655C42.6756 50.771 42.4006 51.776 41.5878 52.0696C41.266 52.1595 40.9297 52.1832 40.5987 52.1392C38.7369 52.0181 36.5733 51.7003 34.7056 51.8214Z" fill="url(#paint3_linear)"/>
<path d="M35.108 53.5891C34.9247 53.9234 34.7917 54.2835 34.7135 54.6577C34.6647 55.1131 34.7611 55.5724 34.9885 55.9684C35.2663 56.4539 35.6589 56.8619 36.131 57.1557C36.6031 57.4495 37.1398 57.6198 37.6929 57.6515C38.8087 57.6961 39.8967 57.2924 40.7202 56.5284C41.076 56.2441 41.3283 55.8479 41.4374 55.4023C41.4701 55.0113 41.4275 54.6175 41.3118 54.2429C41.1358 53.4606 41.0515 52.6599 41.0608 51.8576C41.0608 51.2522 41.1206 50.5832 40.8158 50.0413C40.4721 49.4359 39.7728 49.1756 39.1094 49.0424C38.18 48.8607 36.4647 48.5792 36.148 49.781C35.8013 51.0917 35.6878 52.3419 35.108 53.5891Z" fill="#775339"/>
<path d="M35.2623 53.5615C35.276 53.6254 35.2971 53.6873 35.325 53.7462C35.5225 54.102 35.7793 54.4206 36.0841 54.6876C36.4755 54.9952 36.9689 55.1383 37.4617 55.0872C38.3209 55.019 39.1272 54.6397 39.7329 54.0186C40.6802 53.0802 41.5677 51.3608 40.8147 50.0501C40.471 49.4447 39.7717 49.1843 39.1083 49.0511C38.1789 48.8695 36.4636 48.588 36.1468 49.7898C35.8869 50.7675 35.7494 51.7756 35.4356 52.7382C35.331 53.0681 35.2025 53.28 35.2623 53.5615Z" fill="url(#paint4_linear)"/>
<path d="M31.8964 42.8063C31.5976 42.6731 31.1643 42.6489 30.973 42.9304C30.9151 43.0307 30.8785 43.142 30.8654 43.2574C30.6921 44.3592 31.1822 45.5913 32.1594 46.1059C32.2554 46.1661 32.3662 46.1976 32.4791 46.1967C32.7421 46.1725 32.8796 45.8728 32.9334 45.6125C33.1754 44.4955 33.032 43.2786 31.8964 42.8063Z" fill="#775339"/>
<path d="M43.7295 43.3511C43.8318 43.1812 43.9657 43.0332 44.1239 42.9152C44.2038 42.8569 44.2981 42.8223 44.3963 42.8154C44.4945 42.8084 44.5927 42.8294 44.6798 42.8759C44.7579 42.9448 44.8219 43.0287 44.8681 43.1227C44.9142 43.2167 44.9416 43.319 44.9487 43.4238C45.0204 43.8203 45.0772 44.2683 44.8501 44.6043C44.7275 44.7706 44.5664 44.9037 44.3809 44.9918C44.2975 45.0483 44.2038 45.0872 44.1052 45.1065C44.0067 45.1257 43.9054 45.1248 43.8072 45.1038C43.6354 45.0259 43.501 44.8823 43.4336 44.7042C43.3751 44.5949 43.3405 44.4741 43.332 44.3501C43.3809 43.9889 43.5175 43.6457 43.7295 43.3511Z" fill="#775339"/>
<path d="M33.1882 47.2198C34.0309 48.9876 35.3547 50.7009 37.2314 51.1853C39.1081 51.6696 41.2448 50.704 42.482 49.1359C43.7191 47.5679 44.2122 45.5034 44.2959 43.5055C44.3915 41.2321 43.9074 38.7559 42.225 37.2454C41.0923 36.2835 39.6468 35.7828 38.1698 35.8408C36.6967 35.9113 35.2619 36.339 33.9861 37.088C30.2715 39.1404 31.694 44.0867 33.1882 47.2198Z" fill="#775339"/>
<path d="M31.8956 42.8066C31.8956 42.8066 30.4672 39.1468 34.5612 36.0349C38.6553 32.9231 43.1587 36.7281 43.8431 39.4919C44.5274 42.2556 44.3152 42.8399 44.3152 42.8399C44.3152 42.8399 42.9316 38.1388 39.2141 38.0691C35.4966 37.9995 33.5093 39.6554 31.8956 42.8066Z" fill="#68E1FD"/>
<path d="M31.8732 44.3834C31.8732 44.2351 31.9031 44.0807 31.8732 43.9385C31.8433 43.7962 31.7597 43.6357 31.6132 43.6206C31.555 43.624 31.4993 43.6456 31.4538 43.6825C31.4083 43.7194 31.3752 43.7697 31.3592 43.8265C31.3256 43.94 31.3256 44.061 31.3592 44.1746C31.4323 44.4562 31.5324 44.73 31.6581 44.9919C31.7148 45.116 31.7806 45.2583 31.9121 45.2946C31.9605 45.3086 32.0117 45.309 32.0604 45.2957C32.109 45.2825 32.1531 45.2562 32.1881 45.2195C32.2231 45.1828 32.2476 45.1372 32.259 45.0875C32.2703 45.0378 32.2682 44.9859 32.2527 44.9374C32.196 44.7376 31.8971 44.7043 31.8732 44.3834Z" fill="url(#paint5_linear)"/>
<path d="M44.519 43.7477C44.5014 43.7061 44.4922 43.6613 44.4922 43.616C44.4922 43.5707 44.5014 43.5259 44.519 43.4843C44.5715 43.4108 44.6494 43.3599 44.7372 43.342C44.7682 43.4166 44.7815 43.4975 44.776 43.5782C44.776 43.7598 44.776 43.9384 44.776 44.12C44.7797 44.2019 44.7696 44.2838 44.7461 44.3622C44.7278 44.4167 44.6984 44.4666 44.6598 44.5089C44.6212 44.5511 44.5742 44.5847 44.522 44.6074C44.4354 44.6467 44.3099 44.6377 44.271 44.5469C44.2023 44.3894 44.3696 44.2653 44.4653 44.1806C44.6057 44.0504 44.5788 43.9323 44.519 43.7477Z" fill="url(#paint6_linear)"/>
<path d="M65.4031 48.8275C64.8263 50.1262 64.1809 51.5277 64.5066 52.9141C64.8562 54.4277 66.3833 55.472 67.9073 55.469C69.4314 55.466 70.8658 54.5246 71.6906 53.2259C72.1952 52.5199 72.4095 51.643 72.2883 50.78C72.1658 50.1746 71.8221 49.6539 71.6906 49.0636C71.3918 47.8316 71.9894 46.4694 71.5262 45.2919C71.1527 44.3323 70.1665 43.7601 69.1834 43.4756C68.6024 43.2892 67.9818 43.2693 67.3904 43.4181C66.2996 43.7541 66.1293 44.5532 66.195 45.5371C66.2428 46.7055 65.8663 47.7801 65.4031 48.8275Z" fill="url(#paint7_linear)"/>
<path d="M66.5597 48.7277C66.9961 49.3674 67.6471 49.8246 68.3916 50.0142C68.7644 50.1363 69.1633 50.152 69.5444 50.0597C69.9256 49.9673 70.2742 49.7704 70.5521 49.4905C70.9287 49.1465 71.2296 48.7263 71.4356 48.257C71.6415 47.7876 71.7478 47.2797 71.7475 46.7661C71.7644 46.4129 71.6587 46.0648 71.4486 45.7823C71.2683 45.5962 71.0441 45.4597 70.7972 45.3857C70.1436 45.1611 69.4487 45.0877 68.7635 45.171C68.0782 45.2543 67.4201 45.4922 66.8376 45.8671C65.8066 46.5179 65.9292 47.7681 66.5597 48.7277Z" fill="url(#paint8_linear)"/>
<path d="M63.5951 44.7104C64.4438 46.224 65.7109 47.5589 67.3216 48.0645C68.2472 48.3343 69.2293 48.3338 70.1545 48.0627C71.0798 47.7917 71.9107 47.2614 72.5512 46.5327C73.0956 45.8648 73.5415 45.1205 73.8751 44.3229C74.658 42.6066 75.2557 40.7631 75.2856 38.8741C75.3155 36.9852 74.7238 35.0327 73.4179 33.7462C72.4429 32.8433 71.2286 32.2488 69.9245 32.0359C68.2271 31.715 66.4012 31.8815 64.8861 32.7715C63.9516 33.3197 63.1915 34.1275 62.6956 35.0993C62.2026 36.0771 62.2922 36.849 62.2593 37.8813C62.1786 40.3241 62.3908 42.5551 63.5951 44.7104Z" fill="url(#paint9_linear)"/>
<path d="M61.4362 38.0719C61.4258 38.1766 61.4466 38.282 61.496 38.3746C61.5572 38.4406 61.633 38.4909 61.7171 38.5215C61.8013 38.552 61.8914 38.5618 61.9801 38.5502C62.9653 38.5669 63.9506 38.5184 64.9296 38.4049C65.0728 37.8038 65.151 37.1887 65.1627 36.5705C65.3659 37.0906 65.4849 37.6405 65.5153 38.1991C66.9848 38.0689 68.4606 38.0265 69.9351 38.0719C69.7467 37.5239 69.6994 36.9363 69.7976 36.3646C69.8399 36.9028 69.9861 37.4273 70.228 37.9085C70.2683 38.0114 70.3367 38.1007 70.4252 38.1658C70.5171 38.2032 70.616 38.2202 70.715 38.2155C70.814 38.2108 70.9108 38.1845 70.9989 38.1385C72.0284 37.7927 73.1238 37.6973 74.1965 37.86L74.2533 37.1456C74.4708 37.5347 74.6481 37.9456 74.7822 38.3716C74.9823 38.225 75.2097 38.121 75.4506 38.0659C75.6915 38.0107 75.9409 38.0056 76.1838 38.0507L75.7743 35.5685C75.7478 34.9528 75.574 34.3529 75.2679 33.8204C74.9618 33.2878 74.5326 32.8385 74.0172 32.5111C73.3885 31.954 72.7034 31.4659 71.9732 31.0551C70.7022 30.4321 69.2728 30.2207 67.8791 30.4496C66.488 30.6819 65.1628 31.2157 63.9942 32.0147C63.5554 32.279 63.1709 32.6264 62.8616 33.0378C62.5628 33.4616 62.5628 33.9278 62.3686 34.3819C61.8665 35.6078 61.4362 36.7158 61.4362 38.0719Z" fill="#FFE368"/>
<path d="M142.995 67.1686C133.354 67.8073 123.702 68.2038 114.038 68.446C114.003 68.4264 113.975 68.397 113.957 68.3612C113.917 68.2782 113.897 68.1871 113.897 68.0949C113.871 66.4828 113.982 64.8715 114.229 63.2787C114.396 62.2434 114.62 61.184 115.179 60.3061C115.738 59.4282 116.903 58.3294 118.021 58.2719C119.187 58.2234 120.412 58.511 121.607 58.4989C123.036 58.4989 124.461 58.3657 125.886 58.2234C128.693 57.9449 131.475 57.5 134.293 57.3304C135.431 57.2699 136.597 57.2336 137.679 56.837C138.19 56.6463 138.736 56.3678 139.259 56.5494C139.466 56.6301 139.659 56.7436 139.83 56.8855C140.556 57.4515 141.291 58.0176 141.767 58.8016C142.314 59.6916 142.481 60.7511 142.624 61.7864C142.875 63.5693 143.114 65.3735 142.995 67.1686Z" fill="#68E1FD"/>
<path d="M142.986 67.1685C133.346 67.8072 123.705 68.2038 114.041 68.4459H113.972C113.972 68.4459 113.948 68.4459 113.936 68.4096C113.898 68.3266 113.881 68.2347 113.889 68.1432C113.859 66.5315 113.966 64.9202 114.208 63.3271C114.376 62.2797 114.6 61.2323 115.171 60.3423C115.741 59.4524 116.883 58.3656 118.001 58.3172C119.166 58.2597 120.391 58.5473 121.587 58.5352C123.015 58.5352 124.441 58.4141 125.866 58.2718C128.672 57.9691 131.466 57.5483 134.272 57.3637C135.411 57.291 136.588 57.2668 137.658 56.8703C138.169 56.6765 138.728 56.401 139.239 56.5675C139.446 56.6526 139.639 56.7701 139.81 56.9157C140.536 57.4696 141.271 58.0478 141.749 58.8288C142.293 59.7097 142.46 60.7692 142.616 61.8044C142.855 63.5935 143.094 65.3855 142.986 67.1685Z" fill="url(#paint10_linear)"/>
<path d="M122.866 36.7156C121.249 38.7002 120.136 41.0555 119.624 43.5761C119.112 46.0967 119.216 48.706 119.929 51.1761C120.257 52.278 120.715 53.4253 120.446 54.5453C120.126 55.8803 118.883 56.746 118.082 57.857C117.957 57.9997 117.889 58.1841 117.891 58.3746C117.918 58.6168 118.148 58.7772 118.363 58.8862C118.938 59.1803 119.566 59.3543 120.21 59.3978C120.786 59.4371 121.381 59.3705 121.928 59.5612C122.373 59.7512 122.785 60.0107 123.15 60.3301C124.865 61.6257 126.88 62.4491 128.867 63.2452C129.578 63.5328 130.319 63.8234 131.084 63.772C131.683 63.7061 132.261 63.5077 132.776 63.1908C134.883 62.0132 136.531 60.1422 137.446 57.8873C137.517 57.6258 137.669 57.3943 137.88 57.2273C138.244 57.0094 138.731 57.2273 139.12 57.0669C139.78 56.7793 139.55 55.7289 139.018 55.2506C138.486 54.7724 137.736 54.4485 137.476 53.7734C137.157 52.9379 137.742 52.0631 138.095 51.2427C138.752 49.7141 138.615 47.9704 138.445 46.3116C138.071 42.7002 137.434 38.7862 134.787 36.3403C133.717 35.3565 132.396 34.6965 131.072 34.1184C129.683 33.5129 127.908 32.9075 126.473 33.6915C125.102 34.4733 123.881 35.4975 122.866 36.7156Z" fill="#68E1FD"/>
<path d="M121.903 49.451C120.708 46.5783 121.007 43.1637 123.209 40.9751C122.414 41.4927 121.521 42.7217 121.198 44.1384C120.962 45.1616 120.962 46.4027 120.938 47.4531C120.896 49.8326 121.711 52.146 123.23 53.9614L123.649 53.2561C124.969 55.0963 126.48 56.7871 128.158 58.2993C128.352 58.4488 128.511 58.64 128.624 58.8593C128.702 59.1106 128.733 59.3745 128.714 59.6372C128.728 60.6355 129.083 61.5981 129.718 62.3616C129.809 62.4863 129.933 62.5819 130.076 62.6371C130.224 62.6658 130.377 62.6533 130.519 62.6008C132.253 62.0953 133.779 61.033 134.867 59.5737C133.716 60.3354 132.403 60.8095 131.036 60.9571C130.744 61.0132 130.443 60.9816 130.169 60.8662C129.892 60.6919 129.692 60.4151 129.613 60.0943C129.383 59.2536 129.491 58.3548 129.912 57.5939C130.33 56.8418 130.843 56.1487 131.439 55.5325L132.886 53.9069C133.135 53.6471 133.354 53.3586 133.537 53.0472C133.717 52.6599 133.856 52.2539 133.949 51.8364C134.248 50.7769 134.69 49.7628 135.007 48.7094C135.324 47.6559 135.509 46.5238 135.261 45.4492C135.013 44.3745 134.254 43.3756 133.205 43.085C132.762 42.9845 132.307 42.9488 131.855 42.979L127.512 43.0456C126.89 43.0162 126.268 43.1035 125.678 43.3029C124.676 43.7177 123.523 44.9527 122.863 45.8064C122.586 46.1955 122.414 46.65 122.361 47.1262C122.247 47.5833 121.724 49.0212 121.903 49.451Z" fill="url(#paint11_linear)"/>
<path d="M128.313 40.3515C128.526 40.2284 128.768 40.1656 129.013 40.1699C129.279 40.2255 129.526 40.3484 129.733 40.5271C131.26 41.5896 133.295 42.1557 134.141 43.8297C134.631 44.8044 134.595 45.9486 134.502 47.0475C134.353 48.7729 134.072 50.5226 133.262 52.0452C132.452 53.5679 131.033 54.8453 129.341 55.0723C127.124 55.3751 124.969 53.8312 123.888 51.8424C122.958 50.1442 121.847 46.775 122.964 44.9588C124.18 43.0063 126.272 41.3262 128.313 40.3515Z" fill="url(#paint12_linear)"/>
<path d="M132.66 41.6894C133.031 41.9739 134.797 43.9022 135.221 44.1111C135.646 44.32 135.948 36.7824 130.44 34.3456C130.063 34.1791 129.579 33.9824 129.307 34.2972C129.101 34.5333 129.176 34.9026 129.245 35.2053C129.421 36.0302 129.516 36.8708 129.529 37.7148C129.546 38.3384 129.343 39.2828 129.645 39.8338C130.18 40.7994 131.809 41.0416 132.66 41.6894Z" fill="url(#paint13_linear)"/>
<path d="M112.068 68.4945C102.94 68.6963 93.8073 68.7921 84.6709 68.7821C84.7277 66.7115 84.8353 64.0265 85.1699 61.3777C85.3356 60.136 85.7737 58.9477 86.4522 57.9C87.1307 56.8524 88.0323 55.972 89.0907 55.3235C89.2819 55.2145 89.4851 55.0813 89.53 54.8664C89.5341 54.7128 89.5024 54.5603 89.4373 54.4214C89.1385 53.4225 90.0529 52.2419 91.1018 52.3267C91.1586 51.3489 92.076 50.6042 93.0263 50.4468C94.9628 50.1441 96.711 51.6274 98.7042 51.5184C99.8219 51.47 100.928 51.243 102.045 51.3005C103.009 51.3748 103.962 51.5565 104.887 51.8423C105.244 51.9219 105.583 52.0698 105.885 52.2782C106.656 52.8685 106.656 54.034 106.585 55.0026C108.596 55.4597 110.129 57.1579 110.959 59.059C111.79 60.96 112.017 63.0578 112.233 65.1132C112.235 65.2403 112.152 66.987 112.068 68.4945Z" fill="#68E1FD"/>
<path d="M93.2263 52.8292C92.9634 52.4326 92.7333 51.8726 93.047 51.5154C93.2831 51.249 93.6866 51.2612 94.0362 51.2944L102.622 52.0997C102.832 52.0972 103.038 52.1665 103.204 52.2964C103.305 52.429 103.355 52.5943 103.345 52.7613C103.334 52.9284 103.264 53.0859 103.148 53.2046C102.911 53.4318 102.653 53.6346 102.377 53.81C101.851 54.2338 101.522 54.8997 100.918 55.1994C100.505 55.364 100.061 55.4333 99.6184 55.4023H96.5374C95.8412 55.4023 95.2076 55.3296 94.7444 54.7696C94.2394 54.1399 93.6806 53.5012 93.2263 52.8292Z" fill="url(#paint14_linear)"/>
<path d="M90.954 37.3906C91.102 37.0206 91.2297 36.6426 91.3365 36.2584C91.5607 35.2897 91.3605 34.2757 91.3814 33.2797C91.4023 32.2838 91.737 31.1608 92.6275 30.743C93.4194 30.3646 94.3458 30.6643 95.2184 30.7097C96.8829 30.7915 98.5056 29.9106 100.155 30.0407C100.782 30.094 101.389 30.2879 101.932 30.6084C102.475 30.9288 102.941 31.3677 103.296 31.8933C103.834 32.7046 104.109 33.7247 104.862 34.3362C105.092 34.5239 105.358 34.6631 105.597 34.8387C106.323 35.43 106.815 36.2658 106.984 37.1938C107.145 38.1145 107.198 39.0514 107.142 39.9848C107.115 41.1623 107.055 42.4368 106.32 43.3479C105.585 44.2591 104.318 44.586 103.147 44.7767C100.025 45.2849 96.849 45.3522 93.7093 44.9765C92.1464 44.7888 90.8614 44.3711 90.5446 42.6941C90.2123 40.9208 90.3537 39.0899 90.954 37.3906Z" fill="#606161"/>
<path d="M90.954 37.3906C91.102 37.0206 91.2297 36.6426 91.3365 36.2584C91.5607 35.2897 91.3605 34.2757 91.3814 33.2797C91.4023 32.2838 91.737 31.1608 92.6275 30.743C93.4194 30.3646 94.3458 30.6643 95.2184 30.7097C96.8829 30.7915 98.5056 29.9106 100.155 30.0407C100.782 30.094 101.389 30.2879 101.932 30.6084C102.475 30.9288 102.941 31.3677 103.296 31.8933C103.834 32.7046 104.109 33.7247 104.862 34.3362C105.092 34.5239 105.358 34.6631 105.597 34.8387C106.323 35.43 106.815 36.2658 106.984 37.1938C107.145 38.1145 107.198 39.0514 107.142 39.9848C107.115 41.1623 107.055 42.4368 106.32 43.3479C105.585 44.2591 104.318 44.586 103.147 44.7767C100.025 45.2849 96.849 45.3522 93.7093 44.9765C92.1464 44.7888 90.8614 44.3711 90.5446 42.6941C90.2123 40.9208 90.3537 39.0899 90.954 37.3906Z" fill="url(#paint15_linear)"/>
<path d="M94.9657 54.0068C94.8283 54.2149 94.7739 54.468 94.8133 54.7151C94.872 54.8526 94.9634 54.9732 95.0793 55.0663C95.8772 55.814 96.7378 56.5798 97.7927 56.8432C98.5923 57.0305 99.4311 56.9343 100.169 56.5707C100.907 56.2071 101.5 55.5981 101.848 54.8453C101.906 54.7203 101.944 54.5863 101.958 54.4488C101.925 54.1438 101.823 53.8507 101.66 53.5921C101.394 52.9624 101.436 52.2511 101.418 51.5639C101.4 50.8768 101.283 50.1382 100.799 49.6629C100.341 49.2763 99.7574 49.0747 99.1614 49.0968C98.3515 49.0696 95.9997 49.2179 95.6351 50.0867C95.4229 50.5983 95.5783 51.5155 95.4947 52.0846C95.4133 52.7483 95.2351 53.3961 94.9657 54.0068Z" fill="#F1B475"/>
<path d="M95.5298 50.6861C95.6714 51.2625 95.8531 51.828 96.0737 52.3783C96.1861 52.654 96.3543 52.9029 96.5674 53.1088C96.7804 53.3147 97.0337 53.4732 97.3109 53.574C97.8817 53.7405 98.4883 53.5468 99.0382 53.3197C99.4112 53.1755 99.7687 52.9929 100.105 52.7749C100.461 52.5216 100.788 52.2304 101.082 51.9061C101.374 51.6206 101.62 51.2919 101.814 50.9313C101.913 50.7612 101.977 50.5728 102.002 50.3772C102.027 50.1816 102.013 49.9828 101.961 49.7927C101.909 49.6027 101.82 49.4252 101.698 49.2708C101.577 49.1164 101.427 48.9883 101.256 48.8941C100.931 48.7047 100.58 48.564 100.216 48.4763C99.4265 48.2464 98.6066 48.1442 97.786 48.1736C97.1525 48.2069 96.1305 48.3341 95.6613 48.8245C95.1922 49.3149 95.3565 50.1261 95.5298 50.6861Z" fill="url(#paint16_linear)"/>
<path d="M90.5411 42.8397C90.3288 43.1232 90.1916 43.457 90.1424 43.8093C90.0932 44.1616 90.1337 44.5209 90.26 44.8529C90.3863 45.1849 90.5943 45.4788 90.8642 45.7066C91.1341 45.9343 91.4569 46.0885 91.8021 46.1544C91.9438 46.1973 92.0944 46.2003 92.2376 46.1629C92.3809 46.1256 92.5113 46.0494 92.615 45.9425C92.681 45.8447 92.724 45.7328 92.7405 45.6155C92.8065 44.7981 92.6307 43.9793 92.2355 43.2635C91.9247 42.7246 90.9744 42.2494 90.5411 42.8397Z" fill="#F1B475"/>
<path d="M106.845 41.9314C107.213 41.9889 107.422 42.3946 107.488 42.7639C107.554 43.1641 107.516 43.5752 107.375 43.9553C107.234 44.3355 106.997 44.6711 106.687 44.9283C106.549 45.0475 106.383 45.1297 106.206 45.1674C106.117 45.1849 106.025 45.1818 105.938 45.1582C105.85 45.1346 105.769 45.0911 105.701 45.0312C105.568 44.8674 105.499 44.6613 105.503 44.45C105.464 43.9233 105.426 43.221 105.715 42.7518C105.931 42.4036 106.4 41.8648 106.845 41.9314Z" fill="#F1B475"/>
<path d="M91.7622 42.1946C91.7473 44.3409 92.1148 46.5355 93.2026 48.376C94.2904 50.2165 96.191 51.6483 98.2828 51.8088C99.2166 51.8379 100.15 51.7361 101.056 51.506C101.538 51.4226 102.009 51.2845 102.461 51.0944C103.695 50.5283 104.493 49.2781 105.039 48.037C106.422 44.8265 106.601 41.2153 105.542 37.881C105.356 37.2998 105.042 36.652 104.451 36.5309C104.211 36.4945 103.967 36.5195 103.74 36.6036C102.843 36.8881 102.072 37.5299 101.179 37.8538C100.052 38.2624 98.7878 38.1323 97.6373 37.8538C96.4868 37.5753 95.3393 37.1485 94.1529 36.9759C93.8023 36.9045 93.44 36.9169 93.095 37.0122C91.4425 37.5904 91.7712 40.8415 91.7622 42.1946Z" fill="#F1B475"/>
<path d="M97.4432 58.6624C96.0403 58.6206 94.6421 58.4769 93.2595 58.2326C92.5929 58.0866 91.9149 58.0005 91.2334 57.9752C90.4002 57.9902 89.5846 58.2205 88.8639 58.6443C88.1433 59.0681 87.5414 59.6714 87.1155 60.3969C86.6582 59.7249 86.7688 58.7805 87.1752 58.0751C87.5816 57.3698 88.2331 56.8461 88.8666 56.3406C89.0904 56.1363 89.3513 55.978 89.6346 55.8744C90.7284 55.5566 92.1419 56.9551 93.0802 57.388C94.464 58.0299 95.9345 58.4594 97.4432 58.6624Z" fill="url(#paint17_linear)"/>
<path d="M100.511 58.8136C103.033 58.4474 105.648 58.0841 108.092 58.8136C108.411 58.9577 108.77 58.9824 109.105 58.8833C109.278 58.7941 109.417 58.6508 109.503 58.4746C109.606 58.2358 109.651 57.975 109.632 57.7149C109.613 57.4548 109.532 57.2032 109.395 56.9822C109.117 56.5438 108.749 56.1711 108.316 55.8895C107.796 55.5171 106.822 54.9087 106.147 55.2114C105.636 55.4414 105.185 56.2921 104.745 56.6826C103.54 57.753 102.081 58.4875 100.511 58.8136Z" fill="url(#paint18_linear)"/>
<path d="M172.486 64.196C169.05 64.8195 165.545 65.2312 162.06 65.5793C156.487 66.1454 150.887 66.6146 145.301 66.9991C145.05 63.1577 144.85 55.3084 145.325 53.6798C145.855 51.6685 147.025 49.8905 148.654 48.6215C148.953 48.6215 149.805 47.9131 150.116 47.7557C150.665 47.5072 151.229 47.2938 151.804 47.117C152.83 46.7836 153.873 46.5107 154.93 46.2997C157.282 45.8062 160.064 46.336 162.467 46.4419C163.94 46.5025 165.455 46.5751 166.782 47.2381C167.934 47.8748 168.91 48.7938 169.621 49.911C170.989 51.8877 172.095 59.2829 172.486 64.196Z" fill="#68E1FD"/>
<path d="M155.135 45.867C154.926 46.3816 154.66 46.8992 154.672 47.4562C154.714 48.037 154.965 48.582 155.378 48.9879C155.783 49.4362 156.284 49.7838 156.843 50.0037C157.403 50.2237 158.004 50.3101 158.602 50.2563C159.198 50.1883 159.766 49.9591 160.245 49.5927C160.724 49.2263 161.097 48.7362 161.324 48.1736C161.406 47.9758 161.449 47.7643 161.453 47.5501C161.432 47.2773 161.371 47.0091 161.274 46.7539C160.909 45.6116 160.754 44.4112 160.816 43.2122C160.855 42.4645 160.921 41.5745 160.335 41.1174C160.155 40.9883 159.952 40.8958 159.738 40.845C158.705 40.5468 157.611 40.5468 156.579 40.845C155.407 41.181 155.736 41.8137 155.73 42.8157C155.725 43.8618 155.523 44.8974 155.135 45.867Z" fill="#775339"/>
<path d="M157.682 45.1129C158.432 45.4308 159.38 45.4005 159.974 44.8405C160.569 44.2805 160.659 43.4389 160.739 42.6519L160.85 41.5651C160.866 41.5144 160.868 41.4603 160.857 41.4083C160.846 41.3563 160.821 41.3082 160.786 41.2689C160.75 41.2296 160.705 41.2005 160.655 41.1845C160.605 41.1684 160.551 41.1661 160.5 41.1777C159.575 41.0743 158.644 41.051 157.715 41.108C157.096 41.1444 156.221 41.1081 155.892 41.7649C155.312 42.9939 156.639 44.671 157.682 45.1129Z" fill="url(#paint19_linear)"/>
<path d="M152.22 38.6593C152.588 39.582 153.101 40.4386 153.738 41.196C155.307 42.9366 157.922 43.5209 160.16 42.87C162.398 42.2192 164.233 40.4483 165.258 38.3294C166.283 36.2104 166.549 33.7705 166.304 31.4245C166.17 30.1289 165.862 28.803 165.07 27.792C164.42 26.9945 163.569 26.3899 162.607 26.0423C160.885 25.3701 158.986 25.3241 157.234 25.912C155.482 26.4999 153.985 27.6854 153 29.2662C151.129 32.2661 150.806 35.4233 152.22 38.6593Z" fill="#775339"/>
<path d="M150.101 34.8786C149.988 35.0418 149.913 35.2283 149.881 35.4247C149.848 35.621 149.859 35.8223 149.913 36.0138C150.024 36.3957 150.213 36.7495 150.469 37.0521C150.542 37.1693 150.638 37.2698 150.752 37.3469C150.866 37.4241 150.994 37.4763 151.129 37.5001C151.259 37.4936 151.386 37.4553 151.499 37.3883C151.611 37.3213 151.706 37.2278 151.775 37.1156C152.599 35.9744 151.153 33.4892 150.101 34.8786Z" fill="#775339"/>
<path d="M166.669 34.082C166.864 34.0741 167.056 34.1215 167.225 34.2189C167.394 34.3163 167.533 34.4597 167.626 34.633C167.807 34.9848 167.844 35.3946 167.73 35.7742C167.617 36.1502 167.426 36.4978 167.171 36.7943C166.957 37.0952 166.663 37.3283 166.323 37.4663C166.151 37.531 165.964 37.5395 165.788 37.4907C165.611 37.4418 165.454 37.338 165.339 37.1939C165.261 37.0688 165.205 36.9304 165.175 36.7852C164.957 35.8771 165.561 34.185 166.669 34.082Z" fill="#775339"/>
<path d="M151.84 35.3023C152.139 35.2236 152.172 34.8089 152.139 34.4971C152.049 32.9122 152.389 31.3326 153.122 29.9292C153.654 30.4226 154.491 30.1411 155.175 29.905C158.092 28.8909 161.274 29.2178 164.349 29.4903C164.476 29.4896 164.6 29.5275 164.705 29.5992C164.767 29.6582 164.815 29.7306 164.845 29.8111C165.564 31.3243 165.957 32.9755 165.996 34.6545C166.299 34.3999 166.64 34.1956 167.006 34.0491C167.167 33.2348 166.952 32.3993 166.734 31.5971C166.286 29.9322 165.801 28.1977 164.663 26.9112C163.109 25.1554 160.602 24.5712 158.277 24.6832C155.734 24.8073 153.044 25.8123 151.702 28.013C150.958 29.2451 150.731 30.6981 150.707 32.1208C150.707 32.702 150.591 33.6011 150.806 34.152C150.919 34.4093 151.643 35.3507 151.84 35.3023Z" fill="#606161"/>
<path d="M151.84 35.3658C152.139 35.2901 152.172 34.8754 152.139 34.5636C152.049 32.9786 152.389 31.399 153.122 29.9957C153.654 30.4861 154.491 30.2076 155.175 29.9684C158.092 28.9574 161.274 29.2813 164.349 29.5568C164.476 29.5561 164.6 29.5941 164.705 29.6657C164.766 29.7241 164.814 29.7954 164.845 29.8746C165.564 31.3881 165.956 33.0391 165.996 34.718C166.299 34.4643 166.64 34.2601 167.006 34.1126C167.167 33.2983 166.952 32.4598 166.734 31.6606C166.286 29.9927 165.801 28.2612 164.663 26.9746C163.109 25.2189 160.602 24.6316 158.277 24.7467C155.734 24.8708 153.044 25.8758 151.702 28.0765C150.958 29.3085 150.731 30.7646 150.707 32.1873C150.707 32.7685 150.591 33.6676 150.806 34.2185C150.919 34.4758 151.643 35.4172 151.84 35.3658Z" fill="url(#paint20_linear)"/>
<path d="M152.641 40.0218C152.78 40.49 152.981 40.9371 153.238 41.3507C153.77 42.0663 154.475 42.6305 155.285 42.9883C155.704 43.2048 156.143 43.3763 156.597 43.4999C157.238 43.6361 157.894 43.691 158.549 43.6634C159.944 43.6634 161.337 43.5695 162.732 43.4787C163.038 43.4835 163.34 43.4106 163.611 43.2668C163.845 43.0891 164.03 42.8535 164.149 42.5827C164.933 41.2031 165.421 39.6713 165.58 38.0874C165.592 37.5307 165.633 36.975 165.703 36.4225C165.849 35.6052 166.235 34.806 166.124 33.9827C165.777 34.0765 165.586 34.4458 165.443 34.7818C165.144 35.4599 164.878 36.1471 164.546 36.807C164.36 37.2204 164.112 37.6022 163.811 37.9391C163.076 38.711 161.955 38.9592 160.897 39.047C160.09 39.1106 159.281 39.1015 158.471 39.0864C157.195 39.0622 155.835 38.9956 154.792 38.2539C153.519 37.3458 153.077 35.5568 151.75 34.7516C151.604 34.9998 151.825 35.4236 151.846 35.699C151.878 36.2015 151.923 36.701 151.995 37.2126C152.13 38.166 152.346 39.1059 152.641 40.0218Z" fill="#606161"/>
<path d="M152.641 40.0218C152.78 40.49 152.981 40.9371 153.238 41.3507C153.77 42.0663 154.475 42.6305 155.285 42.9883C155.704 43.2048 156.143 43.3763 156.597 43.4999C157.238 43.6361 157.894 43.691 158.549 43.6634C159.944 43.6634 161.337 43.5695 162.732 43.4787C163.038 43.4835 163.34 43.4106 163.611 43.2668C163.845 43.0891 164.03 42.8535 164.149 42.5827C164.933 41.2031 165.421 39.6713 165.58 38.0874C165.592 37.5307 165.633 36.975 165.703 36.4225C165.849 35.6052 166.235 34.806 166.124 33.9827C165.777 34.0765 165.586 34.4458 165.443 34.7818C165.144 35.4599 164.878 36.1471 164.546 36.807C164.36 37.2204 164.112 37.6022 163.811 37.9391C163.076 38.711 161.955 38.9592 160.897 39.047C160.09 39.1106 159.281 39.1015 158.471 39.0864C157.195 39.0622 155.835 38.9956 154.792 38.2539C153.519 37.3458 153.077 35.5568 151.75 34.7516C151.604 34.9998 151.825 35.4236 151.846 35.699C151.878 36.2015 151.923 36.701 151.995 37.2126C152.13 38.166 152.346 39.1059 152.641 40.0218Z" fill="url(#paint21_linear)"/>
<path d="M159.767 40.0668L158.111 40.0093C157.855 39.9845 157.596 40.0092 157.349 40.0819C157.226 40.1199 157.115 40.1922 157.03 40.2907C156.945 40.3891 156.889 40.5098 156.868 40.6389C156.872 40.8484 156.945 41.0506 157.074 41.2141C157.143 41.3243 157.23 41.4216 157.331 41.5017C157.544 41.6165 157.786 41.662 158.025 41.6318L161.013 41.5683C161.094 41.5724 161.174 41.5557 161.246 41.5198C161.317 41.4696 161.368 41.3956 161.39 41.311C161.46 41.096 161.467 40.8651 161.409 40.6463C161.352 40.4275 161.233 40.2303 161.067 40.0789C160.744 39.8367 160.158 40.0789 159.767 40.0668Z" fill="#775339"/>
</g>
<defs>
<linearGradient id="paint0_linear" x1="76.2705" y1="63.0397" x2="81.6047" y2="63.0397" gradientUnits="userSpaceOnUse">
<stop stop-color="#E5C6D6"/>
<stop offset="0.42" stop-color="#EAD4D0"/>
<stop offset="1" stop-color="#F0E9CB"/>
</linearGradient>
<linearGradient id="paint1_linear" x1="936.677" y1="3657.04" x2="1011.09" y2="3657.04" gradientUnits="userSpaceOnUse">
<stop stop-color="#E5C6D6"/>
<stop offset="0.42" stop-color="#EAD4D0"/>
<stop offset="1" stop-color="#F0E9CB"/>
</linearGradient>
<linearGradient id="paint2_linear" x1="69.1558" y1="24.5167" x2="68.4107" y2="82.5856" gradientUnits="userSpaceOnUse">
<stop stop-color="#010101" stop-opacity="0"/>
<stop offset="0.95" stop-color="#010101"/>
</linearGradient>
<linearGradient id="paint3_linear" x1="3272.24" y1="4860.75" x2="3364.57" y2="6419.29" gradientUnits="userSpaceOnUse">
<stop stop-color="#010101" stop-opacity="0"/>
<stop offset="0.95" stop-color="#010101"/>
</linearGradient>
<linearGradient id="paint4_linear" x1="793.767" y1="2010.41" x2="841.81" y2="1733.32" gradientUnits="userSpaceOnUse">
<stop stop-color="#010101" stop-opacity="0"/>
<stop offset="0.95" stop-color="#010101"/>
</linearGradient>
<linearGradient id="paint5_linear" x1="130.769" y1="511.365" x2="146.156" y2="506.653" gradientUnits="userSpaceOnUse">
<stop stop-color="#010101" stop-opacity="0"/>
<stop offset="0.95" stop-color="#010101"/>
</linearGradient>
<linearGradient id="paint6_linear" x1="122.329" y1="393.2" x2="131.621" y2="395.225" gradientUnits="userSpaceOnUse">
<stop stop-color="#010101" stop-opacity="0"/>
<stop offset="0.95" stop-color="#010101"/>
</linearGradient>
<linearGradient id="paint7_linear" x1="1801.69" y1="3586.98" x2="2010.79" y2="3586.98" gradientUnits="userSpaceOnUse">
<stop stop-color="#E5C6D6"/>
<stop offset="0.42" stop-color="#EAD4D0"/>
<stop offset="1" stop-color="#F0E9CB"/>
</linearGradient>
<linearGradient id="paint8_linear" x1="1389.66" y1="1541.37" x2="1450.7" y2="836.799" gradientUnits="userSpaceOnUse">
<stop stop-color="#010101" stop-opacity="0"/>
<stop offset="0.95" stop-color="#010101"/>
</linearGradient>
<linearGradient id="paint9_linear" x1="2460.81" y1="3950.24" x2="3032.55" y2="4059.67" gradientUnits="userSpaceOnUse">
<stop stop-color="#E5C6D6"/>
<stop offset="0.42" stop-color="#EAD4D0"/>
<stop offset="1" stop-color="#F0E9CB"/>
</linearGradient>
<linearGradient id="paint10_linear" x1="12755" y1="4439.96" x2="12760.1" y2="2578.26" gradientUnits="userSpaceOnUse">
<stop stop-color="#010101" stop-opacity="0"/>
<stop offset="0.95" stop-color="#010101"/>
</linearGradient>
<linearGradient id="paint11_linear" x1="6064.87" y1="7325.12" x2="8989.08" y2="3899.13" gradientUnits="userSpaceOnUse">
<stop stop-color="#010101" stop-opacity="0"/>
<stop offset="0.95" stop-color="#010101"/>
</linearGradient>
<linearGradient id="paint12_linear" x1="5118.72" y1="4311.27" x2="5605.84" y2="4311.27" gradientUnits="userSpaceOnUse">
<stop stop-color="#E5C6D6"/>
<stop offset="0.42" stop-color="#EAD4D0"/>
<stop offset="1" stop-color="#F0E9CB"/>
</linearGradient>
<linearGradient id="paint13_linear" x1="2848.7" y1="1970.66" x2="3210.72" y2="3199.38" gradientUnits="userSpaceOnUse">
<stop stop-color="#010101" stop-opacity="0"/>
<stop offset="0.95" stop-color="#010101"/>
</linearGradient>
<linearGradient id="paint14_linear" x1="3572.53" y1="1260.28" x2="3569.11" y2="1476.57" gradientUnits="userSpaceOnUse">
<stop stop-color="#010101" stop-opacity="0"/>
<stop offset="0.95" stop-color="#010101"/>
</linearGradient>
<linearGradient id="paint15_linear" x1="5640.01" y1="4141.58" x2="5872.63" y2="3287.23" gradientUnits="userSpaceOnUse">
<stop stop-color="#010101" stop-opacity="0"/>
<stop offset="0.95" stop-color="#010101"/>
</linearGradient>
<linearGradient id="paint16_linear" x1="2292.12" y1="1726.37" x2="2387.66" y2="1385.02" gradientUnits="userSpaceOnUse">
<stop stop-color="#010101" stop-opacity="0"/>
<stop offset="0.95" stop-color="#010101"/>
</linearGradient>
<linearGradient id="paint17_linear" x1="3406.87" y1="1533.69" x2="3430.52" y2="1272.53" gradientUnits="userSpaceOnUse">
<stop stop-color="#010101" stop-opacity="0"/>
<stop offset="0.95" stop-color="#010101"/>
</linearGradient>
<linearGradient id="paint18_linear" x1="3348.8" y1="1280.88" x2="3331.28" y2="1042.14" gradientUnits="userSpaceOnUse">
<stop stop-color="#010101" stop-opacity="0"/>
<stop offset="0.95" stop-color="#010101"/>
</linearGradient>
<linearGradient id="paint19_linear" x1="2869.29" y1="1221.62" x2="2908.5" y2="1084.32" gradientUnits="userSpaceOnUse">
<stop stop-color="#010101" stop-opacity="0"/>
<stop offset="0.95" stop-color="#010101"/>
</linearGradient>
<linearGradient id="paint20_linear" x1="8941.93" y1="2162.05" x2="8937.72" y2="2602.93" gradientUnits="userSpaceOnUse">
<stop stop-color="#010101" stop-opacity="0"/>
<stop offset="0.95" stop-color="#010101"/>
</linearGradient>
<linearGradient id="paint21_linear" x1="7544.87" y1="2521.09" x2="8242.92" y2="2521.09" gradientUnits="userSpaceOnUse">
<stop stop-color="#010101" stop-opacity="0"/>
<stop offset="0.95" stop-color="#010101"/>
</linearGradient>
<clipPath id="clip0">
<rect width="201" height="69" fill="white"/>
</clipPath>
</defs>
</svg>
