<svg width="224" height="229" viewBox="0 0 224 229" fill="none" xmlns="http://www.w3.org/2000/svg">
<g clip-path="url(#clip0)">
<path opacity="0.18" d="M223.187 95.8772C220.523 109.071 211.333 120.033 201.004 128.614C191.226 136.746 180.084 143.41 171.772 153.027C157.357 169.753 152.951 193.806 137.121 209.187C125.223 220.766 107.825 225.269 91.3992 222.928C83.6691 221.858 76.243 219.193 69.5884 215.099C60.6233 209.534 53.2847 201.725 44.6141 195.704C37.2563 190.589 29.0276 186.807 21.8747 181.403C18.5759 178.903 15.5685 176.038 12.9096 172.86C2.02339 159.904 -3.14437 141.982 1.95294 125.951C6.54437 111.554 18.2823 100.477 23.5653 86.3242C30.8847 66.7616 25.3135 43.0241 36.8529 25.6358C44.5373 14.0887 58.3372 8.02241 72.0026 6.00246C85.668 3.98252 99.5703 5.4042 113.377 5.59719C128.258 5.80364 143.124 4.5801 157.773 1.94328C173.622 -0.919385 177.714 -2.96506 181.153 14.2173C183.074 23.8668 190.931 30.9044 197.898 37.7748C213.575 53.2139 227.567 74.2496 223.187 95.8772Z" fill="#68E1FD"/>
<path opacity="0.48" d="M157.581 89.4309C152.881 101.544 163.588 116.012 158.01 127.745C153.527 137.15 141.072 139.498 134.227 147.334C126.03 156.719 127.823 171.367 121.791 182.284C115.445 193.754 101.197 199.814 96.6566 212.139C95.2478 215.941 94.5562 220.579 91.4184 222.927C83.6882 221.858 76.2621 219.192 69.6075 215.098C60.6424 209.534 53.3038 201.724 44.6332 195.703C37.2754 190.589 29.0467 186.806 21.8938 181.403C18.595 178.903 15.5876 176.037 12.9287 172.86C14.6039 171.579 16.505 170.627 18.5319 170.055C22.4586 164.452 27.5318 159.758 33.4117 156.285C39.2915 152.812 45.8423 150.642 52.625 149.92C59.3809 149.238 66.1879 150.036 72.9694 150.441C78.848 150.78 84.7329 150.829 90.6243 150.589C94.0631 150.441 97.6683 150.139 100.537 148.215C106.55 144.149 106.435 135.214 110.431 129.141C113.991 123.731 120.414 121.132 126.357 118.598C132.299 116.063 138.601 112.84 141.258 106.928C143.698 101.518 142.449 95.2205 143.333 89.3537C144.082 84.3167 146.387 79.6721 148.654 75.124C149.967 72.5058 153.431 74.3971 156.044 75.6965C157.343 76.3701 158.413 77.4169 159.118 78.7034C159.822 79.9899 160.13 81.458 160.002 82.9207C159.739 85.2366 158.42 87.263 157.581 89.4309Z" fill="#68E1FD"/>
<path opacity="0.48" d="M146.542 108.839C142.315 119.743 151.953 132.77 146.932 143.326C142.904 151.779 131.679 153.87 125.519 160.946C118.142 169.393 119.755 182.58 114.325 192.41C108.613 202.76 95.7543 208.19 91.688 219.28C90.4073 222.709 89.7669 226.884 86.9685 229C80.0085 228.026 73.3241 225.617 67.3349 221.924C59.2791 216.913 52.6577 209.882 44.8645 204.465C38.2367 199.853 30.8276 196.45 24.3728 191.599C21.4038 189.352 18.699 186.773 16.3105 183.912C17.8149 182.758 19.5226 181.9 21.3438 181.384C24.8794 176.342 29.4459 172.116 34.7379 168.99C40.0299 165.864 45.9255 163.909 52.0302 163.256C58.1136 162.651 64.2419 163.365 70.3446 163.725C75.6369 164.04 80.9417 164.085 86.2385 163.86C89.3379 163.732 92.5909 163.455 95.1652 161.725C100.576 158.064 100.474 150.023 104.073 144.555C107.275 139.685 113.038 137.35 118.404 135.066C123.77 132.783 129.431 129.875 131.852 124.561C134.042 119.692 132.921 114.018 133.709 108.736C134.388 104.233 146.868 78.5723 148.911 74.4809C150.089 72.1264 153.688 74.4809 156.038 75.6839C158.389 76.8868 157.21 76.6038 156.928 79.222C156.704 81.3127 147.297 106.871 146.542 108.839Z" fill="#68E1FD"/>
<path d="M69.6592 165.449C69.142 165.477 68.6352 165.606 68.1672 165.829C67.3403 166.071 66.5987 166.544 66.0283 167.193C65.2599 168.248 65.5224 169.721 65.8746 170.982C66.1857 172.263 66.6637 173.498 67.2963 174.655C67.9332 175.818 68.9129 176.755 70.1011 177.337C70.2614 177.426 70.4437 177.466 70.6262 177.453C70.7648 177.416 70.8938 177.348 71.0043 177.256C71.1149 177.164 71.2043 177.049 71.2665 176.919C71.8908 175.9 72.1421 174.695 71.9774 173.51C71.8462 173.023 71.8462 172.51 71.9774 172.024C72.1691 171.684 72.4085 171.375 72.6882 171.104C73.0266 170.67 73.2225 170.141 73.2489 169.59C73.2753 169.039 73.1308 168.494 72.8354 168.029C72.368 167.321 71.5547 167.025 71.0424 166.414C70.5878 165.925 70.4469 165.449 69.6592 165.449Z" fill="#68E1FD"/>
<path d="M69.7608 166.028C69.4845 166.254 69.2761 166.552 69.1589 166.89C69.1085 167.122 69.1263 167.363 69.2101 167.585C69.3802 168.038 69.6841 168.429 70.081 168.704C70.3505 168.923 70.6826 169.049 71.0288 169.064C71.2846 169.043 71.5332 168.969 71.7588 168.846C72.6224 168.442 73.4159 167.901 74.1089 167.244C74.4885 166.943 74.7586 166.525 74.8774 166.054C74.905 165.767 74.8811 165.477 74.8069 165.198C74.7493 164.922 74.6789 164.651 74.6148 164.375C74.5929 164.258 74.554 164.146 74.4996 164.04C74.4352 163.935 74.3553 163.839 74.2626 163.757C73.906 163.359 73.4695 163.041 72.9819 162.825C72.5272 162.657 72.3799 162.882 72.1238 163.236C71.4098 164.227 70.6197 165.161 69.7608 166.028Z" fill="#F3BD8F"/>
<path d="M99.8902 123.686C99.4355 127.366 97.3991 134.757 96.3874 138.34C94.383 145.416 93.749 149.386 89.2088 155.182C86.6877 158.397 83.8159 161.319 80.6472 163.892C78.7261 165.455 76.5872 166.922 74.1602 167.475C73.6223 166.369 72.2391 165.925 71.5988 164.902C71.5668 164.85 71.5411 164.799 71.5091 164.754C70.8688 163.545 71.4707 162.065 72.0983 160.843C74.6746 155.808 77.5287 150.922 80.6472 146.208C81.1693 145.502 81.5996 144.733 81.9279 143.918C82.1533 143.149 82.2929 142.357 82.3441 141.557C82.4722 140.47 82.6451 139.395 82.8564 138.34C83.7131 134.473 84.8168 130.666 86.1607 126.941C86.5207 125.618 87.1198 124.373 87.9281 123.268C89.4458 121.454 91.9304 120.798 94.2677 120.463C97.8666 119.929 100.422 119.402 99.8902 123.686Z" fill="#3E3E54"/>
<path d="M47.611 130.383C47.1973 130.067 46.7248 129.837 46.2214 129.707C45.4321 129.363 44.5626 129.247 43.7112 129.373C42.4304 129.688 41.7132 130.987 41.1497 132.178C40.5622 133.36 40.1316 134.614 39.869 135.909C39.6147 137.21 39.7668 138.558 40.3044 139.768C40.3698 139.941 40.4832 140.09 40.631 140.199C40.7608 140.258 40.9016 140.289 41.044 140.289C41.1865 140.289 41.3272 140.258 41.4571 140.199C42.5859 139.821 43.5482 139.059 44.1786 138.044C44.3838 137.583 44.7062 137.183 45.1136 136.886C45.4762 136.745 45.8587 136.663 46.247 136.642C46.784 136.526 47.2721 136.246 47.6447 135.841C48.0172 135.436 48.256 134.925 48.3282 134.378C48.4179 133.535 48.0016 132.802 47.9824 131.985C47.9888 131.354 48.2001 130.897 47.611 130.383Z" fill="#68E1FD"/>
<path d="M69.6592 165.449C69.142 165.477 68.6352 165.606 68.1672 165.829C67.3403 166.071 66.5987 166.544 66.0283 167.193C65.2599 168.248 65.5224 169.721 65.8746 170.982C66.1857 172.263 66.6637 173.498 67.2963 174.655C67.9332 175.818 68.9129 176.755 70.1011 177.337C70.2614 177.426 70.4437 177.466 70.6262 177.453C70.7648 177.416 70.8938 177.348 71.0043 177.256C71.1149 177.164 71.2043 177.049 71.2665 176.919C71.8908 175.9 72.1421 174.695 71.9774 173.51C71.8462 173.023 71.8462 172.51 71.9774 172.024C72.1691 171.684 72.4085 171.375 72.6882 171.104C73.0266 170.67 73.2225 170.141 73.2489 169.59C73.2753 169.039 73.1308 168.494 72.8354 168.029C72.368 167.321 71.5547 167.025 71.0424 166.414C70.5878 165.925 70.4469 165.449 69.6592 165.449Z" fill="url(#paint0_linear)"/>
<path d="M47.611 130.383C47.1973 130.067 46.7248 129.837 46.2214 129.707C45.4321 129.363 44.5626 129.247 43.7112 129.373C42.4304 129.688 41.7132 130.987 41.1497 132.178C40.5622 133.36 40.1316 134.614 39.869 135.909C39.6147 137.21 39.7668 138.558 40.3044 139.768C40.3698 139.941 40.4832 140.09 40.631 140.199C40.7608 140.258 40.9016 140.289 41.044 140.289C41.1865 140.289 41.3272 140.258 41.4571 140.199C42.5859 139.821 43.5482 139.059 44.1786 138.044C44.3838 137.583 44.7062 137.183 45.1136 136.886C45.4762 136.745 45.8587 136.663 46.247 136.642C46.784 136.526 47.2721 136.246 47.6447 135.841C48.0172 135.436 48.256 134.925 48.3282 134.378C48.4179 133.535 48.0016 132.802 47.9824 131.985C47.9888 131.354 48.2001 130.897 47.611 130.383Z" fill="url(#paint1_linear)"/>
<path d="M47.9125 131.58C47.5629 131.515 47.2024 131.546 46.8687 131.67C46.6596 131.785 46.4866 131.956 46.3693 132.165C46.139 132.587 46.0408 133.069 46.0875 133.548C46.0935 133.898 46.2126 134.237 46.4269 134.513C46.6073 134.698 46.8259 134.841 47.0673 134.931C47.9327 135.331 48.8555 135.592 49.8016 135.703C50.2767 135.799 50.7701 135.733 51.204 135.517C51.4396 135.356 51.6437 135.153 51.806 134.918C51.9789 134.693 52.139 134.468 52.3055 134.236C52.373 134.141 52.4289 134.037 52.4719 133.928C52.5072 133.809 52.5266 133.685 52.5296 133.561C52.6168 133.041 52.5972 132.509 52.4719 131.998C52.3055 131.547 52.0365 131.573 51.6011 131.605C50.3728 131.695 49.1394 131.686 47.9125 131.58Z" fill="#F3BD8F"/>
<path d="M92.2958 125.05C92.1848 125.54 91.9032 125.973 91.5018 126.272C87.5955 129.933 86.2188 134.777 82.3189 138.437C81.4326 139.366 80.3953 140.136 79.2516 140.714C78.3102 141.126 66.0088 140.914 62.141 140.914C58.2732 140.914 54.1108 140.612 50.8193 138.482C50.3888 138.246 50.032 137.894 49.7883 137.466C49.5768 136.896 49.5367 136.276 49.6731 135.684C49.7808 134.58 50.0438 133.497 50.4543 132.467C50.7208 131.828 51.1437 131.266 51.6838 130.833C52.9646 129.849 54.7192 129.875 56.3265 129.92C62.0774 130.084 67.8328 129.884 73.5587 129.322C73.926 129.32 74.2862 129.22 74.6025 129.032C74.9441 128.707 75.1692 128.277 75.2429 127.81C76.0064 125.077 76.9367 122.393 78.0285 119.775C78.6112 118.392 79.9496 113.793 81.5697 113.259L81.6914 113.226C83.4076 112.885 86.2892 116.707 87.3138 117.839C89.0026 119.699 90.5241 121.705 91.8604 123.834C92.1354 124.18 92.2885 124.608 92.2958 125.05Z" fill="#3E3E54"/>
<path d="M59.6502 101.152C59.627 100.349 59.8337 99.5564 60.2457 98.8681C60.9216 97.5877 61.848 96.4576 62.9693 95.5456C64.0906 94.6337 65.3837 93.9586 66.7711 93.5609C67.3346 94.5838 67.8917 95.568 68.4488 96.5909C68.625 96.8614 68.7428 97.166 68.7946 97.485C68.769 98.0413 68.582 98.578 68.2567 99.0289C67.86 99.7568 67.5791 100.543 67.4243 101.358C67.3937 101.757 67.2686 102.143 67.0592 102.483C67.0039 102.564 66.9327 102.633 66.85 102.685C66.7673 102.737 66.6748 102.772 66.5783 102.787C66.4817 102.802 66.3832 102.797 66.2886 102.773C66.194 102.748 66.1054 102.704 66.0282 102.644C66.0989 101.759 65.9899 100.868 65.7081 100.026C64.8564 100.361 64.4273 101.28 64.1264 102.142C63.9396 103.04 63.5471 103.881 62.9801 104.6C62.852 104.735 62.6599 104.857 62.4934 104.78C62.3269 104.703 62.2949 104.445 62.3077 104.24L62.4358 102.194C62.4356 102.677 62.2856 103.147 62.0067 103.541C61.7278 103.934 61.3339 104.23 60.8797 104.388C60.6241 103.334 60.7512 102.223 61.2383 101.255C60.9758 101.538 60.9437 101.962 60.7516 102.297C60.5595 102.631 60.0216 102.837 59.8231 102.503C59.7565 102.362 59.7428 102.202 59.7847 102.052C59.8984 101.218 60.0936 100.397 60.3674 99.6015L59.8487 101.03C59.7463 101.12 59.7463 101.229 59.6502 101.152Z" fill="#F3BD8F"/>
<path d="M149.251 69.9C148.943 70.8783 148.425 71.7765 147.733 72.5311C145.851 74.7312 143.36 76.2944 140.977 77.9284C134.644 82.2706 128.811 87.3591 121.959 90.8714C120.121 91.8171 118.187 92.6662 116.688 94.0879C115.822 94.964 115.077 95.9528 114.473 97.0278C113.385 98.8386 112.486 100.757 111.79 102.753C110.509 106.336 108.799 109.707 107.384 113.226C105.866 117.002 104.246 120.772 101.851 124.053C100.244 126.253 98.1434 128.305 95.4475 128.845C92.886 129.353 90.2093 128.35 88.1409 126.754C86.0725 125.159 84.5228 123.03 83.018 120.926L82.9795 120.881C82.6017 120.36 82.2175 119.826 81.8781 119.266C81.3754 118.504 81.0212 117.653 80.8343 116.758C80.7822 116.445 80.7523 116.129 80.7447 115.812C80.7447 113.985 81.5323 112.19 82.3264 110.511C85.2422 104.348 88.1558 98.1878 91.0674 92.0294C91.0674 92.0294 91.0674 92.0294 91.0674 91.9779C85.6526 92.1922 80.3611 93.6653 75.6089 96.2815C74.3362 97.0837 72.9734 97.7315 71.549 98.2114C70.8316 98.4431 70.0693 98.4986 69.3261 98.3732C68.5829 98.2479 67.8805 97.9453 67.2778 97.4909C65.7281 96.1207 65.7921 93.5475 66.8679 91.7785C67.9437 90.0094 69.7688 88.8515 71.5362 87.7708C78.1704 83.7437 85.3745 79.8261 93.1293 80.0512C96.2159 80.1413 100.698 79.4787 103.772 79.8196C110.246 80.5337 116.317 82.3092 121.555 78.4237C125.24 75.5518 129.127 72.9504 133.184 70.6398C136.04 69.1088 139.05 67.8608 142.047 66.6192C143.151 66.0916 144.335 65.7504 145.55 65.6093C146.16 65.5451 146.776 65.6337 147.344 65.8672C147.911 66.1007 148.413 66.4718 148.803 66.9473C149.088 67.3765 149.276 67.8634 149.354 68.3736C149.431 68.8838 149.396 69.4049 149.251 69.9Z" fill="#68E1FD"/>
<path d="M106.102 69.7974L105.776 69.315C105.616 69.0563 105.415 68.8259 105.18 68.6331C105.06 68.5392 104.918 68.4786 104.767 68.4571C104.617 68.4357 104.463 68.4542 104.322 68.5108C103.919 68.7038 103.451 68.9161 103.419 69.3664C103.409 70.3649 103.644 71.3504 104.104 72.2355C104.4 72.627 104.635 73.0607 104.802 73.5221C104.838 73.7847 104.838 74.0508 104.802 74.3134C104.694 76.4748 105.648 78.7135 104.924 80.7463C104.674 81.4411 104.239 82.0972 104.284 82.837C104.324 83.3848 104.569 83.8971 104.969 84.2716C105.372 84.6391 105.841 84.9252 106.352 85.1143C107.13 85.4303 107.95 85.6297 108.786 85.7061C109.13 85.7801 109.49 85.7471 109.816 85.6116C110.141 85.4761 110.419 85.2443 110.611 84.947C111.271 84.1602 111.8 83.2718 112.179 82.316C113.364 81.6043 114.586 80.96 115.842 80.3861C119.384 78.8808 121.087 74.7637 121.51 70.9232C121.708 69.1541 121.689 67.2821 120.869 65.7061C120.317 64.7267 119.522 63.9075 118.562 63.3281C117.601 62.7487 116.508 62.4288 115.388 62.3995C113.133 62.3813 110.951 63.2043 109.266 64.709C107.799 65.9505 105.968 67.8611 106.102 69.7974Z" fill="#F3BD8F"/>
<path d="M119.838 60.5919C118.474 59.5433 116.636 59.5047 115.022 58.8421C114.498 58.5831 113.96 58.3554 113.409 58.1602C111.827 57.7163 110.207 58.4626 108.721 59.2152C107.875 59.6094 107.092 60.1275 106.397 60.7527C105.43 61.7048 104.905 63.0235 104.027 64.0592C103.15 65.0949 101.94 65.8025 100.89 66.671C99.8394 67.5394 98.8853 68.6845 98.7956 70.0483C98.6867 71.753 99.9547 73.2326 101.299 74.2876C102.644 75.3426 104.187 76.2175 105.046 77.7292L105.404 74.6929C105.469 74.4092 105.469 74.1145 105.404 73.8309C105.28 73.5478 105.104 73.2904 104.885 73.0718C104.074 72.0863 103.649 70.8375 103.688 69.5594C103.688 69.1991 103.797 68.7746 104.136 68.6459C104.476 68.5173 104.937 68.8839 105.199 69.2377L106.864 71.4957C106.625 70.3313 106.683 69.1248 107.035 67.9894C107.387 66.8541 108.02 65.8271 108.875 65.0049C110.616 63.366 112.925 62.475 115.311 62.5217C116.63 62.5217 118.071 62.8691 118.865 63.9306C119.659 64.992 120.786 67.1084 121.247 64.4066C121.368 63.7024 121.301 62.9787 121.053 62.3088C120.806 61.6388 120.387 61.0465 119.838 60.5919Z" fill="#3E3E54"/>
<path d="M148.161 63.1653C148.467 62.2259 148.898 61.3322 149.442 60.5085C149.926 59.9867 150.496 59.5516 151.126 59.2219C151.173 59.1844 151.228 59.157 151.286 59.1415C151.344 59.1261 151.405 59.1227 151.465 59.1318C151.523 59.1589 151.572 59.2003 151.609 59.2521C151.646 59.3039 151.669 59.3644 151.676 59.4277C151.856 60.1354 151.446 60.8687 151.51 61.5956C151.509 61.6279 151.515 61.6599 151.527 61.6897C151.539 61.7196 151.558 61.7467 151.58 61.7693C151.676 61.8465 151.811 61.7693 151.901 61.6857C152.798 60.8273 153.75 60.0279 154.75 59.2926C155.759 58.5495 156.983 58.1626 158.234 58.1926C158.234 59.1833 157.408 59.9488 156.633 60.5664C157.646 59.7245 158.868 59.1753 160.168 58.9774C160.405 59.3441 160.078 59.8073 159.771 60.1225L157.638 62.2904C158.525 61.665 159.548 61.2634 160.622 61.1196C160.724 61.0875 160.834 61.0875 160.936 61.1196C161.014 61.1689 161.072 61.2447 161.099 61.3333C161.126 61.4219 161.121 61.5173 161.083 61.6021C161.01 61.7735 160.893 61.9223 160.744 62.0331C159.539 63.113 158.226 64.0637 156.825 64.87C157.611 64.5015 158.446 64.2459 159.303 64.1109C159.345 64.3324 159.323 64.5613 159.24 64.7708C159.158 64.9804 159.017 65.162 158.836 65.2946C158.289 65.7745 157.685 66.183 157.036 66.5104C155.852 67.2762 154.536 67.8129 153.156 68.0929C152.285 68.2087 151.35 68.1379 150.594 68.5754C150.242 68.7812 149.954 69.09 149.621 69.3216C149.292 69.5569 148.916 69.7174 148.519 69.7919C148.122 69.8663 147.713 69.8529 147.322 69.7526C146.976 69.6539 146.655 69.4816 146.381 69.2474C146.107 69.0132 145.886 68.7226 145.734 68.3953C145.528 67.9954 145.45 67.542 145.508 67.0959C145.566 66.6498 145.759 66.2322 146.06 65.8993C146.936 65.1389 147.651 64.2091 148.161 63.1653Z" fill="#F3BD8F"/>
<path d="M93.244 98.379C90.5628 103.217 88.3252 108.29 86.5586 113.535C85.6877 116.153 84.868 118.9 83.0301 120.933C82.9925 120.984 82.9496 121.032 82.9021 121.074C82.5193 120.501 82.181 119.899 81.8903 119.273C81.3754 118.172 80.9948 117.012 80.7568 115.819C80.7568 113.992 81.5445 112.197 82.3385 110.518C85.2543 104.355 88.168 98.1946 91.0795 92.0361C92.1169 91.9396 93.2952 92.4092 94.5951 93.9081C95.6389 95.1046 94.0124 96.9895 93.244 98.379Z" fill="url(#paint2_linear)"/>
<path d="M82.6327 120.418C82.3637 121.557 81.4864 122.573 81.0446 123.635C80.0776 126.002 79.8343 129.476 77.6378 131.122C76.0625 132.531 73.7957 132.866 71.7273 133.052C65.5477 133.618 59.3234 133.49 53.1567 133.355C52.3236 133.431 51.4886 133.23 50.7809 132.782C50.6718 132.695 50.573 132.596 50.4863 132.486C50.7528 131.846 51.1757 131.284 51.7158 130.852C52.9966 129.868 54.7512 129.894 56.3585 129.939C62.1094 130.103 67.8648 129.903 73.5907 129.341C73.958 129.339 74.3182 129.239 74.6345 129.051C74.9761 128.726 75.2012 128.296 75.2749 127.829C76.0272 125.09 76.9468 122.4 78.0285 119.775C78.6112 118.392 79.9496 113.792 81.5697 113.258C81.932 113.937 82.15 114.684 82.2101 115.452C82.3958 116.964 82.9977 118.868 82.6327 120.418Z" fill="url(#paint3_linear)"/>
<path d="M72.1694 164.458C71.9934 164.632 71.7953 164.781 71.5802 164.902C71.5482 164.85 71.5226 164.799 71.4906 164.754C70.8502 163.545 71.4521 162.065 72.0797 160.843C74.6623 155.808 77.5228 150.922 80.6478 146.208C81.1699 145.502 81.6003 144.733 81.9285 143.918C82.154 143.149 82.2936 142.357 82.3448 141.557C82.4728 140.47 82.6457 139.395 82.8571 138.34C84.4772 137.002 87.0451 135.619 87.0451 135.124C87.1539 137.53 87.218 139.923 87.2372 142.335C87.1923 143.75 74.1225 162.708 72.1694 164.458Z" fill="url(#paint4_linear)"/>
<path d="M104.745 69.9904C104.656 69.9785 104.565 69.9951 104.486 70.0378C104.406 70.0805 104.342 70.1472 104.303 70.2284C104.226 70.3958 104.212 70.5856 104.265 70.7623C104.323 70.9333 104.392 71.1008 104.469 71.2641C104.579 71.5795 104.727 71.8799 104.911 72.1583C105.004 72.2972 105.136 72.4055 105.289 72.4696C105.443 72.5337 105.612 72.5507 105.776 72.5185C105.849 72.4943 105.915 72.4523 105.968 72.3963C106.02 72.309 106.047 72.2086 106.045 72.1068C106.059 71.6273 105.925 71.1552 105.661 70.7559C105.55 70.626 105.42 70.5133 105.276 70.4214C105.11 70.2799 104.982 70.0354 104.745 69.9904Z" fill="url(#paint5_linear)"/>
<path d="M162.932 72.7185L151.824 67.827C151.059 67.4904 150.168 67.8401 149.833 68.608L148.141 72.4848C147.806 73.2527 148.154 74.1481 148.919 74.4847L160.027 79.3762C160.791 79.7128 161.682 79.3632 162.018 78.5953L163.709 74.7185C164.044 73.9506 163.696 73.0552 162.932 72.7185Z" fill="#68E1FD"/>
<path d="M163.088 75.4203L149.892 69.6094C149.25 69.327 148.503 69.6204 148.221 70.2646L148.185 70.3471C147.904 70.9914 148.196 71.7426 148.838 72.025L162.034 77.836C162.675 78.1184 163.423 77.825 163.704 77.1807L163.74 77.0983C164.021 76.454 163.729 75.7027 163.088 75.4203Z" fill="#68E1FD"/>
<path d="M178.06 57.6972C177.197 59.6813 175.868 61.4253 174.186 62.7793L163.62 73.2071L151.273 67.7712L152.407 52.3322C152.398 50.329 152.834 48.349 153.684 46.5369C154.534 44.7248 155.776 43.1262 157.32 41.858C158.863 40.5898 160.669 39.6839 162.606 39.2065C164.542 38.7291 166.561 38.6923 168.513 39.0987C170.466 39.5051 172.304 40.3445 173.892 41.5556C175.48 42.7666 176.779 44.3188 177.694 46.0987C178.609 47.8787 179.117 49.8414 179.18 51.8436C179.243 53.8458 178.861 55.8369 178.06 57.6715V57.6972Z" fill="#68E1FD"/>
<path opacity="0.69" d="M178.06 57.6972C177.197 59.6813 175.868 61.4253 174.186 62.7793L163.62 73.2071L151.273 67.7712L152.407 52.3322C152.398 50.329 152.834 48.349 153.684 46.5369C154.534 44.7248 155.776 43.1262 157.32 41.858C158.863 40.5898 160.669 39.6839 162.606 39.2065C164.542 38.7291 166.561 38.6923 168.513 39.0987C170.466 39.5051 172.304 40.3445 173.892 41.5556C175.48 42.7666 176.779 44.3188 177.694 46.0987C178.609 47.8787 179.117 49.8414 179.18 51.8436C179.243 53.8458 178.861 55.8369 178.06 57.6715V57.6972Z" fill="url(#paint6_radial)"/>
<path d="M155.699 69.9584C155.546 65.3837 156.404 60.8318 158.209 56.6293C158.613 55.6901 159.24 54.6415 160.252 54.545C161.501 54.4292 162.359 55.8316 162.468 57.1182C162.535 57.9405 162.426 58.7677 162.149 59.5443C161.871 60.3209 161.432 61.0291 160.86 61.6213C160.656 60.4704 160.776 59.2851 161.206 58.1989C161.414 57.3641 161.808 56.5877 162.359 55.9281C162.644 55.6056 163.015 55.3732 163.429 55.259C163.843 55.1448 164.281 55.1538 164.69 55.2848C165.906 55.7737 166.098 57.472 165.708 58.7329C165.255 60.1691 164.338 61.4122 163.102 62.2646C163.185 61.3794 163.5 60.5322 164.014 59.8082C164.528 59.0843 165.222 58.5092 166.028 58.141C166.568 57.877 167.177 57.7893 167.77 57.8902C168.064 57.9464 168.337 58.0848 168.557 58.2896C168.777 58.4944 168.934 58.7573 169.012 59.0481C169.063 59.3897 169.03 59.7386 168.916 60.0645C168.276 62.4769 166.464 64.4067 164.581 66.0536C162.698 67.7004 160.636 69.1671 159.093 71.1356" stroke="white" stroke-width="0.8" stroke-miterlimit="10"/>
<path d="M162.932 72.7185L151.824 67.827C151.059 67.4904 150.168 67.8401 149.833 68.608L148.141 72.4848C147.806 73.2527 148.154 74.1481 148.919 74.4847L160.027 79.3762C160.791 79.7128 161.682 79.3632 162.018 78.5953L163.709 74.7185C164.044 73.9506 163.696 73.0552 162.932 72.7185Z" fill="url(#paint7_linear)"/>
<path d="M163.088 75.4203L149.892 69.6094C149.25 69.327 148.503 69.6204 148.221 70.2646L148.185 70.3471C147.904 70.9914 148.196 71.7426 148.838 72.025L162.034 77.836C162.675 78.1184 163.423 77.825 163.704 77.1807L163.74 77.0983C164.021 76.454 163.729 75.7027 163.088 75.4203Z" fill="url(#paint8_linear)"/>
</g>
<defs>
<linearGradient id="paint0_linear" x1="65.5353" y1="171.458" x2="73.2197" y2="171.458" gradientUnits="userSpaceOnUse">
<stop offset="0.01"/>
<stop offset="0.13" stop-opacity="0.69"/>
<stop offset="1" stop-opacity="0"/>
</linearGradient>
<linearGradient id="paint1_linear" x1="995.245" y1="2666.15" x2="1110.46" y2="2666.15" gradientUnits="userSpaceOnUse">
<stop offset="0.01"/>
<stop offset="0.13" stop-opacity="0.69"/>
<stop offset="1" stop-opacity="0"/>
</linearGradient>
<linearGradient id="paint2_linear" x1="2198.19" y1="5366.99" x2="3249.23" y2="5450.64" gradientUnits="userSpaceOnUse">
<stop offset="0.01"/>
<stop offset="0.13" stop-opacity="0.69"/>
<stop offset="1" stop-opacity="0"/>
</linearGradient>
<linearGradient id="paint3_linear" x1="5472.38" y1="4934.35" x2="5118.58" y2="4021.67" gradientUnits="userSpaceOnUse">
<stop offset="0.01"/>
<stop offset="0.13" stop-opacity="0.69"/>
<stop offset="1" stop-opacity="0"/>
</linearGradient>
<linearGradient id="paint4_linear" x1="2672.44" y1="7473.33" x2="3370.48" y2="7780.32" gradientUnits="userSpaceOnUse">
<stop offset="0.01"/>
<stop offset="0.13" stop-opacity="0.69"/>
<stop offset="1" stop-opacity="0"/>
</linearGradient>
<linearGradient id="paint5_linear" x1="485.72" y1="398.847" x2="499.497" y2="411.321" gradientUnits="userSpaceOnUse">
<stop offset="0.01"/>
<stop offset="0.13" stop-opacity="0.69"/>
<stop offset="1" stop-opacity="0"/>
</linearGradient>
<radialGradient id="paint6_radial" cx="0" cy="0" r="1" gradientUnits="userSpaceOnUse" gradientTransform="translate(164.341 55.5921) rotate(-156.234) scale(15.1238 15.1705)">
<stop offset="0.34" stop-color="white"/>
<stop offset="1" stop-color="white" stop-opacity="0.39"/>
</radialGradient>
<linearGradient id="paint7_linear" x1="-17789.6" y1="1574.05" x2="-17460.6" y2="1717.58" gradientUnits="userSpaceOnUse">
<stop offset="0.01"/>
<stop offset="0.13" stop-opacity="0.69"/>
<stop offset="1" stop-opacity="0"/>
</linearGradient>
<linearGradient id="paint8_linear" x1="-17240.4" y1="-4689.73" x2="-16829.2" y2="-4510.3" gradientUnits="userSpaceOnUse">
<stop offset="0.01"/>
<stop offset="0.13" stop-opacity="0.69"/>
<stop offset="1" stop-opacity="0"/>
</linearGradient>
<clipPath id="clip0">
<rect width="224" height="229" fill="white"/>
</clipPath>
</defs>
</svg>
