<svg width="203" height="245" viewBox="0 0 203 245" fill="none" xmlns="http://www.w3.org/2000/svg">
<g clip-path="url(#clip0)">
<path fill-rule="evenodd" clip-rule="evenodd" d="M107.166 83.295C96.2768 104.748 78.1974 131.948 76.9331 132.994C76.0906 133.696 56.6027 138.283 18.4703 146.768L20.5681 153.681C62.0749 150.739 84.1946 148.383 86.9212 146.607C91.0087 143.949 115.337 112.943 131.354 95.176L107.166 83.295Z" fill="#E59D73"/>
<path fill-rule="evenodd" clip-rule="evenodd" d="M112.056 85.697L106.1 159.036L96.8193 218.95L103.254 222.108L134.166 96.555L112.056 85.697Z" fill="#E59D73"/>
<path fill-rule="evenodd" clip-rule="evenodd" d="M95.368 215.258C94.0887 216.46 93.2682 217.432 92.9061 218.166C92.4678 219.056 91.9749 220.433 91.4319 222.286C92.4677 222.795 101.773 227.365 119.346 235.992C121.252 233.956 121.468 232.457 120.001 231.496C118.534 230.539 117.318 229.729 116.359 229.064L106.229 216.916C106.032 216.683 105.685 216.65 105.451 216.847C105.446 216.853 105.441 216.853 105.441 216.859L103.612 218.467C101.831 218.43 100.49 218.19 99.5872 217.747C98.8523 217.386 97.982 216.592 96.9819 215.364C96.5988 214.891 95.9043 214.82 95.4306 215.208C95.4043 215.227 95.3887 215.239 95.368 215.258Z" fill="white"/>
<path fill-rule="evenodd" clip-rule="evenodd" d="M75.2026 201.694L107.425 213.402L136.308 97.6116L108.914 84.1563L75.2026 201.694Z" fill="#005EFF"/>
<path fill-rule="evenodd" clip-rule="evenodd" d="M18.6528 144.898C16.9081 144.693 15.6359 144.689 14.8401 144.884C13.8758 145.121 12.5028 145.629 10.7329 146.405C11.0083 147.524 13.4831 157.582 18.1613 176.574C20.9476 176.723 22.2362 175.925 22.0309 174.184C21.8217 172.447 21.6617 170.996 21.5549 169.834L24.3611 154.275C24.4137 153.974 24.2157 153.687 23.9146 153.635C23.9068 153.635 23.9029 153.631 23.899 153.635L21.4897 153.269C20.3742 151.883 19.696 150.702 19.4549 149.727C19.2599 148.932 19.3097 147.756 19.6083 146.202C19.7253 145.604 19.3332 145.027 18.731 144.914C18.7076 144.906 18.6802 144.902 18.6528 144.898Z" fill="white"/>
<path fill-rule="evenodd" clip-rule="evenodd" d="M28.5592 142.238L36.9399 175.814C69.4257 163.141 89.1539 154.152 96.1239 148.84C103.094 143.533 115.629 126.033 133.727 96.3469L102.884 81.1986C87.8923 107.774 79.8212 121.57 78.6595 122.58C77.5089 123.589 60.8086 130.14 28.5592 142.238Z" fill="#0077FF"/>
<path fill-rule="evenodd" clip-rule="evenodd" d="M149.443 16.963C149.818 24.338 148.88 40.5294 145.831 42.4427L129.908 38.9895C129.911 38.9615 129.914 38.9335 129.923 38.9051C124.161 36.9738 120.661 30.9803 121.982 24.9146L124.485 13.3992C125.902 6.88744 132.336 2.75614 138.855 4.16508L139.952 4.40276C145.872 5.68865 149.825 11.1016 149.443 16.963Z" fill="#182228"/>
<path fill-rule="evenodd" clip-rule="evenodd" d="M128.638 24.0545C126.751 20.5419 125.829 16.5344 127.001 12.5223C130.378 0.963312 146.176 7.09495 148.066 13.7082C149.956 20.3215 146.311 35.264 141.97 35.4301C140.237 35.4995 136.969 33.7029 133.882 30.7932L132.682 47.0448L119.507 44.1882L128.638 24.0545Z" fill="#E59D73"/>
<path fill-rule="evenodd" clip-rule="evenodd" d="M132.633 22.8463C131.82 29.4917 129.963 36.877 127.77 38.2489L111.847 34.7957C114.306 19.2067 121.588 27.027 124.742 12.5351C125.392 12.1269 126.008 11.7215 126.603 11.3845L126.679 10.9567C130.661 5.91622 134.775 3.85492 139.01 4.77369C145.366 6.15162 146.731 9.54039 147.894 12.4187C145.663 16.5229 140.563 16.0964 135.564 17.8694C135.137 17.3329 134.527 16.939 133.809 16.7813C132.141 16.4183 130.495 17.4792 130.131 19.1454C129.767 20.8115 130.829 22.4555 132.497 22.8185C132.542 22.8259 132.588 22.8388 132.633 22.8463Z" fill="#182228"/>
<path fill-rule="evenodd" clip-rule="evenodd" d="M156.265 85.508L177.004 81.6225C181 79.1992 184.722 77.5028 188.175 76.5273C189.162 76.4411 190.776 76.6865 188.598 78.6506C186.42 80.6148 184.225 82.7745 184.736 83.7257C185.247 84.6769 187.401 84.1903 187.905 85.6691C188.241 86.6567 184.705 87.0233 177.297 86.7742L160.857 94.0584L156.265 85.508ZM78.5202 71.7172L88.9194 75.949C74.1334 92.606 66.2272 101.418 65.2013 102.389C62.897 104.574 63.5848 109.594 63.6906 112.181C59.678 112.221 62.3073 107.146 57.2182 107.268C52.5729 107.381 48.2647 109.242 44.8661 104.832C44.4496 104.289 44.3597 102.849 46.2369 102.507C50.9162 101.653 57.972 99.7011 59.2689 98.6465C61.0395 97.2038 67.4546 88.2257 78.5202 71.7172Z" fill="#E59D73"/>
<path fill-rule="evenodd" clip-rule="evenodd" d="M126.533 42.2828L131.25 42.4966C139.328 53.5358 138.911 75.9697 144.944 80.1976C150.647 84.1917 160.064 83.4057 171.346 82.0514L173.184 89.4511C161.592 97.1435 139.476 101.103 132.168 94.7323C120.47 84.5379 122.925 57.2722 126.533 42.2828Z" fill="#FEA734"/>
<path fill-rule="evenodd" clip-rule="evenodd" d="M95.568 91.6537C113.862 95.4291 127.319 98.2017 135.94 99.9826C137.788 100.364 137.951 97.8046 137.944 96.4961C137.86 81.3922 129.074 63.3214 133.34 42.7253L122.046 38.6222C109.428 51.0804 102.415 68.1786 95.568 91.6537Z" fill="white"/>
<path fill-rule="evenodd" clip-rule="evenodd" d="M94.5756 76.1748C83.4813 88.32 74.4975 96.8589 67.6302 101.797L59.4852 98.5069C71.4653 68.1055 92.0649 48.0945 121.295 38.4729L121.431 38.5006L125.911 39.4216C129.485 74.8096 127.782 97.5483 120.802 107.638L84.458 100.139C86.7117 92.1666 90.3265 83.9941 94.5756 76.1748Z" fill="#FEA734"/>
</g>
<defs>
<clipPath id="clip0">
<rect y="14.9819" width="184" height="230" transform="rotate(-4.67041 0 14.9819)" fill="white"/>
</clipPath>
</defs>
</svg>
