<svg width="20" height="19" viewBox="0 0 20 19" fill="none" xmlns="http://www.w3.org/2000/svg">
<path d="M5.09367 10.8776L4.43414 13.2166L2.02357 13.2651C1.30316 11.9957 0.894531 10.5433 0.894531 8.99998C0.894531 7.50756 1.27659 6.10019 1.95381 4.86096H1.95433L4.10041 5.23474L5.04053 7.26129C4.84376 7.80625 4.73652 8.39125 4.73652 8.99998C4.73659 9.66063 4.86256 10.2936 5.09367 10.8776Z" fill="#FBBB00"/>
<path d="M19.6761 7.31836C19.7849 7.86279 19.8416 8.42504 19.8416 8.99967C19.8416 9.64402 19.7703 10.2725 19.6344 10.8788C19.1732 12.9419 17.9682 14.7434 16.2989 16.0182L16.2984 16.0177L13.5952 15.8867L13.2127 13.6179C14.3204 13.0007 15.186 12.035 15.642 10.8788H10.5762V7.31836H19.6761Z" fill="#518EF8"/>
<path d="M16.2985 16.0193L16.299 16.0198C14.6755 17.2595 12.6131 18.0012 10.3681 18.0012C6.76028 18.0012 3.62357 16.0855 2.02344 13.2664L5.09354 10.8789C5.89359 12.9074 7.95334 14.3513 10.3681 14.3513C11.406 14.3513 12.3784 14.0848 13.2128 13.6194L16.2985 16.0193Z" fill="#28B446"/>
<path d="M16.415 2.07197L13.346 4.45894C12.4824 3.94615 11.4616 3.64992 10.368 3.64992C7.89861 3.64992 5.80034 5.16013 5.04037 7.26131L1.95413 4.86099H1.95361C3.53032 1.97308 6.70659 0 10.368 0C12.6667 0 14.7743 0.777867 16.415 2.07197Z" fill="#F14336"/>
</svg>
