<svg width="237" height="211" viewBox="0 0 237 211" fill="none" xmlns="http://www.w3.org/2000/svg">
<path d="M155.491 1H39.1646C36.8341 1 34.9458 3.26258 34.9458 6.0518V9.16285H159.703V6.0518C159.706 3.25933 157.818 1 155.491 1Z" fill="#FEA734" stroke="#FEA734" stroke-width="0.5" stroke-miterlimit="10"/>
<path d="M34.9491 81.5816C34.9491 84.3708 36.8374 86.6334 39.1679 86.6334H155.491C157.821 86.6334 159.709 84.3708 159.709 81.5816V9.15945H34.9491V81.5816Z" fill="white" stroke="#FEA734" stroke-width="0.5" stroke-miterlimit="10"/>
<path d="M41.8623 6.12354C42.4385 6.12354 42.9056 5.65634 42.9056 5.08002C42.9056 4.5037 42.4385 4.0365 41.8623 4.0365C41.286 4.0365 40.8189 4.5037 40.8189 5.08002C40.8189 5.65634 41.286 6.12354 41.8623 6.12354Z" fill="white"/>
<path d="M46.5231 6.12354C47.0993 6.12354 47.5664 5.65634 47.5664 5.08002C47.5664 4.5037 47.0993 4.0365 46.5231 4.0365C45.9469 4.0365 45.4798 4.5037 45.4798 5.08002C45.4798 5.65634 45.9469 6.12354 46.5231 6.12354Z" fill="white"/>
<path d="M51.3692 6.12354C51.9454 6.12354 52.4125 5.65634 52.4125 5.08002C52.4125 4.5037 51.9454 4.0365 51.3692 4.0365C50.793 4.0365 50.3259 4.5037 50.3259 5.08002C50.3259 5.65634 50.793 6.12354 51.3692 6.12354Z" fill="white"/>
<path fill-rule="evenodd" clip-rule="evenodd" d="M66.6193 61.4621C59.2218 73.513 47.3422 88.5871 46.5524 89.1397C46.0258 89.5103 34.403 91.2658 11.6838 94.4126L12.5809 98.5639C37.0097 98.8272 50.0659 98.5054 51.7462 97.5952C54.2652 96.2331 69.9833 79.2279 80.2053 69.5827L66.6193 61.4621Z" fill="#E59D73"/>
<path fill-rule="evenodd" clip-rule="evenodd" d="M69.3658 63.1074L62.3745 105.797L54.0799 140.464L57.6942 142.626L81.7849 70.529L69.3658 63.1074Z" fill="#E59D73"/>
<path fill-rule="evenodd" clip-rule="evenodd" d="M53.4071 138.234C52.601 138.878 52.0745 139.408 51.8275 139.821C51.5285 140.321 51.1742 141.105 50.7679 142.164C51.3497 142.512 56.5761 145.636 66.447 151.533C67.6594 150.431 67.8576 149.563 67.0451 148.929C66.2325 148.299 65.5597 147.766 65.0299 147.33L59.6833 139.726C59.5793 139.58 59.3778 139.544 59.2315 139.648C59.2283 139.651 59.225 139.651 59.225 139.655L58.0777 140.51C57.0376 140.402 56.264 140.198 55.757 139.895C55.3442 139.648 54.8729 139.141 54.3464 138.374C54.1449 138.078 53.7419 138.003 53.4461 138.208C53.4298 138.215 53.4168 138.224 53.4071 138.234Z" fill="#E5E9F2"/>
<path fill-rule="evenodd" clip-rule="evenodd" d="M42.2556 129.317L60.5511 137.72L82.9875 71.2474L67.6009 62.0508L42.2556 129.317Z" fill="#005EFF"/>
<path fill-rule="evenodd" clip-rule="evenodd" d="M11.8826 93.3244C10.8715 93.1206 10.1272 93.0578 9.65218 93.1339C9.07654 93.2266 8.24876 93.4588 7.17593 93.8287C7.28347 94.4981 8.2501 100.511 10.0783 111.864C11.7016 112.085 12.4938 111.679 12.4571 110.649C12.4203 109.618 12.3937 108.762 12.3868 108.076L14.7739 99.0923C14.8191 98.9185 14.717 98.7412 14.5433 98.696C14.5387 98.6956 14.5366 98.6931 14.5341 98.6952L13.1418 98.3657C12.5554 97.4998 12.2151 96.7755 12.1207 96.1927C12.0446 95.7176 12.1301 95.0305 12.3793 94.134C12.4763 93.7894 12.2745 93.4325 11.9275 93.3376C11.9117 93.3339 11.8959 93.3302 11.8826 93.3244Z" fill="#E5E9F2"/>
<path fill-rule="evenodd" clip-rule="evenodd" d="M17.804 92.2411L21.103 112.318C40.7182 106.447 52.692 102.124 57.0246 99.3442C61.3572 96.568 69.5283 86.913 81.5379 70.3825L64.2141 60.0286C54.1709 74.8849 48.7885 82.5829 48.0605 83.1193C47.3324 83.6557 37.2534 86.6952 17.804 92.2411Z" fill="#0077FF"/>
<path fill-rule="evenodd" clip-rule="evenodd" d="M94.5291 24.6143C94.3958 28.9542 93.073 38.3979 91.1976 39.3731L82.045 36.5871C82.0482 36.5709 82.0514 36.5546 82.0579 36.5384C78.7785 35.1308 77.0168 31.4508 78.0797 27.9594L80.0948 21.331C81.2356 17.5828 85.1977 15.4697 88.9452 16.6075L89.5757 16.7993C92.9787 17.8363 95.0329 21.2009 94.5291 24.6143Z" fill="#182228"/>
<path fill-rule="evenodd" clip-rule="evenodd" d="M82.0157 27.7739C81.0796 25.6251 80.7318 23.2325 81.6094 20.9374C84.1381 14.3252 93.0892 18.6748 93.879 22.6408C94.6721 26.6069 91.8216 35.1891 89.2734 35.0785C88.2561 35.0363 86.4295 33.827 84.7621 31.974L83.2833 41.4404L75.7102 39.1356L82.0157 27.7739Z" fill="#E59D73"/>
<path fill-rule="evenodd" clip-rule="evenodd" d="M84.4111 27.257C83.618 31.1125 82.1782 35.3515 80.8293 36.0505L71.6767 33.2645C73.8641 24.2467 77.7481 29.1782 80.2866 20.8366C80.6863 20.6285 81.0666 20.4205 81.4306 20.2514L81.4956 20.0044C84.0666 17.2411 86.5725 16.2301 89.0069 16.9713C92.6602 18.0831 93.2972 20.1344 93.84 21.8768C92.3384 24.1752 89.3742 23.681 86.3645 24.4807C86.1402 24.1459 85.8022 23.8858 85.3894 23.7591C84.4306 23.4665 83.4165 24.0094 83.124 24.9684C82.8315 25.9274 83.3743 26.9416 84.3331 27.2342C84.3591 27.2407 84.3851 27.2505 84.4111 27.257Z" fill="#182228"/>
<path fill-rule="evenodd" clip-rule="evenodd" d="M95.2442 65.1097L107.566 63.8256C110.02 62.5968 112.279 61.7808 114.346 61.3745C114.928 61.3712 115.86 61.5923 114.492 62.6391C113.124 63.6858 111.736 64.8464 111.989 65.4283C112.243 66.0102 113.527 65.8281 113.751 66.7189C113.901 67.3138 111.814 67.3593 107.491 66.8587L97.5226 70.3403L95.2442 65.1097ZM50.4104 53.3059L56.2933 56.2837C46.8449 65.3373 41.7973 70.1225 41.1505 70.6426C39.6976 71.8129 39.8601 74.7874 39.7984 76.3088C37.4485 76.1398 39.2296 73.2921 36.2459 73.1198C33.5222 72.9637 30.9122 73.8479 29.1343 71.101C28.9166 70.7629 28.9328 69.9144 30.0477 69.8039C32.8266 69.5276 37.0487 68.7214 37.858 68.1655C38.9631 67.4048 43.1461 62.4505 50.4104 53.3059Z" fill="#E59D73"/>
<path fill-rule="evenodd" clip-rule="evenodd" d="M79.9095 38.3552L82.6592 38.7063C86.8585 45.5623 85.5422 58.6892 88.8704 61.4556C92.0166 64.0693 97.5648 64.0596 104.231 63.806L104.953 68.2304C97.802 72.1834 84.6711 73.4447 80.6993 69.3617C74.3418 62.8307 77.085 46.9667 79.9095 38.3552Z" fill="#E6E6E6"/>
<path fill-rule="evenodd" clip-rule="evenodd" d="M59.4331 65.8053C69.9573 68.8936 77.6994 71.1627 82.6593 72.619C83.7221 72.9311 83.9399 71.439 83.9984 70.6718C84.6712 61.8165 80.3938 50.8059 83.8748 38.9404L77.4621 35.9951C69.4828 42.6918 64.5587 52.3793 59.4331 65.8053Z" fill="white"/>
<path fill-rule="evenodd" clip-rule="evenodd" d="M59.5923 56.6868C52.5198 63.273 46.8546 67.8469 42.6001 70.4118L37.9912 68.0939C46.4549 50.8515 59.4655 40.1108 77.0298 35.8717L77.1078 35.8944L79.6853 36.6486C80.085 57.558 78.0016 70.8019 73.4351 76.3803L52.5263 70.246C54.2262 65.6818 56.7288 61.0656 59.5923 56.6868Z" fill="#E6E6E6"/>
<path d="M194.825 165.239L192.654 164.68C192.517 164.644 192.397 164.569 192.303 164.465L190.804 162.797C190.424 162.375 189.729 162.547 189.589 163.096L189.03 165.268C188.994 165.404 188.919 165.525 188.815 165.619L187.148 167.118C186.725 167.498 186.898 168.194 187.447 168.333L189.618 168.893C189.755 168.928 189.875 169 189.969 169.104L191.467 170.772C191.848 171.194 192.543 171.022 192.683 170.473L193.242 168.301C193.278 168.164 193.349 168.044 193.457 167.95L195.121 166.451C195.546 166.077 195.374 165.382 194.825 165.239Z" fill="#C5DCF3"/>
<path fill-rule="evenodd" clip-rule="evenodd" d="M166.132 89.9008C167.396 87.4009 167.975 84.5694 167.087 81.7737C164.526 73.7116 153.55 78.279 152.331 82.957C151.112 87.6349 153.917 98.0701 156.966 98.1156C158.182 98.1351 160.444 96.8218 162.563 94.725L163.671 106.122L172.866 103.896L166.132 89.9008Z" fill="#F2C0A2"/>
<path fill-rule="evenodd" clip-rule="evenodd" d="M179.38 181.435C176.744 184.152 177.943 190.03 180.66 190.661C188.789 192.549 228.813 194.08 231.325 194.259C233.837 194.438 235.443 190.439 232.45 189.484C227.681 187.966 211.037 183.323 203.087 182.218C199.807 181.763 196.671 181.366 193.869 181.041C201.806 178.792 213.27 175.125 228.267 170.037L227.278 165.145C215.028 165.944 206.288 166.903 201.056 168.025C192.098 169.946 184.356 171.897 181.57 172.83C177.196 174.296 177.569 178.72 179.38 181.435Z" fill="#F2C0A2"/>
<path fill-rule="evenodd" clip-rule="evenodd" d="M220.856 163.971L181.362 170.749C174.667 173.018 179.321 184.857 183.004 184.409C191.36 183.395 219.634 174.9 222.124 174.598L220.856 163.971Z" fill="#E6E6E6"/>
<path fill-rule="evenodd" clip-rule="evenodd" d="M225.137 164.085C226.134 163.321 226.915 162.856 227.474 162.684C228.153 162.479 229.18 162.29 230.555 162.121C230.795 162.911 232.944 170.005 237 183.408C235.339 184.516 234.257 184.494 233.75 183.346C233.243 182.198 232.81 181.249 232.456 180.495L225.052 171.939C224.909 171.773 224.929 171.526 225.091 171.383C225.094 171.38 225.098 171.38 225.101 171.376L226.45 170.274C226.632 169.016 226.615 168.041 226.407 167.352C226.238 166.793 225.777 166.087 225.026 165.236C224.737 164.91 224.769 164.41 225.094 164.124C225.107 164.108 225.124 164.095 225.137 164.085Z" fill="#E5E9F2"/>
<path fill-rule="evenodd" clip-rule="evenodd" d="M230.727 188.056C231.975 187.894 232.882 187.881 233.451 188.014C234.143 188.177 235.128 188.528 236.402 189.067C236.213 189.87 234.526 197.091 231.345 210.725C229.352 210.851 228.426 210.292 228.559 209.047C228.692 207.799 228.796 206.762 228.865 205.933L226.729 194.818C226.687 194.604 226.827 194.399 227.041 194.357C227.044 194.357 227.048 194.357 227.051 194.353L228.77 194.074C229.557 193.072 230.031 192.224 230.194 191.522C230.327 190.953 230.282 190.111 230.054 188.999C229.966 188.573 230.243 188.157 230.668 188.069C230.691 188.06 230.707 188.056 230.727 188.056Z" fill="#E5E9F2"/>
<path fill-rule="evenodd" clip-rule="evenodd" d="M116.533 100.944C111.297 108.206 106.061 115.469 100.825 122.731C104.842 128.062 108.856 133.39 112.873 138.722C117.19 130.978 121.503 123.232 125.819 115.488C122.722 110.641 119.627 105.794 116.533 100.944Z" fill="#E6E6E6"/>
<path fill-rule="evenodd" clip-rule="evenodd" d="M183.173 192.367C193.372 194.75 218.295 195.465 220.541 195.985L222.985 185.563C201.4 182.127 190.544 180.164 190.421 179.666C190.232 178.922 199.45 153.006 201.316 145.022C204.004 133.511 197.857 127.055 184.505 123.524L179.178 146.326C178.59 151.085 177.816 176.445 177.397 185.83C177.215 189.854 180.365 191.714 183.173 192.367Z" fill="#FCF5EF"/>
<path fill-rule="evenodd" clip-rule="evenodd" d="M167.52 91.1099C167.455 85.6875 169.967 81.3737 168.898 79.2021C168.186 77.7555 167.045 77.0241 165.472 77.0078C163.97 74.1601 161.188 73.4677 157.125 74.9305C151.028 77.1248 147.823 80.5967 150.83 85.8013C152.348 85.434 154.047 84.4522 156.804 84.7611C157.678 84.8586 158.471 85.6258 159.186 87.0594L160.33 86.7831C161.006 84.7123 161.939 83.7826 163.135 84.0004C164.331 84.2182 164.858 85.317 164.715 87.3065L166.304 91.4058L167.52 91.1099Z" fill="#B87C5E"/>
<path fill-rule="evenodd" clip-rule="evenodd" d="M117.261 103.453C112.506 110.049 107.751 116.645 102.996 123.241C106.643 128.082 110.29 132.922 113.936 137.763C117.856 130.731 121.773 123.696 125.692 116.665C122.881 112.26 120.069 107.855 117.261 103.453Z" fill="#1D1513"/>
<path fill-rule="evenodd" clip-rule="evenodd" d="M141.775 116.164C137.9 124.919 134.023 133.67 130.148 142.424C124.389 141.192 118.63 139.957 112.87 138.725C117.186 130.982 121.5 123.235 125.816 115.491C131.137 115.716 136.454 115.94 141.775 116.164Z" fill="#E6E6E6"/>
<path fill-rule="evenodd" clip-rule="evenodd" d="M161.952 118.202L146.354 117.796C143.094 116.434 140.14 115.592 137.494 115.273C136.766 115.332 135.638 115.719 137.513 116.957C139.392 118.196 141.31 119.581 141.085 120.374C140.861 121.167 139.23 121.06 139.09 122.259C138.999 123.059 141.612 122.903 146.929 121.791L159.937 125.341L161.952 118.202ZM145.785 133.628L138.931 133.439C136.714 130.972 135.079 129.996 134.026 130.513C133.031 130.552 136.282 133.442 134.605 133.91C132.924 134.379 127.799 133.527 127.447 134.418C126.927 135.731 129.079 137.844 130.724 138.598C133.795 140.009 135.749 140.029 140.091 139.131C142.363 138.663 145.08 138.67 148.243 139.148L145.785 133.628Z" fill="#F2C0A2"/>
<path fill-rule="evenodd" clip-rule="evenodd" d="M167.113 113.668C162.826 115.817 156.68 117.839 148.636 117.107L148.987 123.645C155.305 125.644 162.94 126.031 168.01 123.241C172.005 121.044 171.556 115.075 167.113 113.668Z" fill="#FE7235"/>
<path fill-rule="evenodd" clip-rule="evenodd" d="M165.755 125.14C161.809 128.595 153.537 131.167 140.936 132.857C141.105 139.684 141.888 144.209 143.283 146.433C154.876 146.507 163.801 144.606 170.325 141.43C172.09 145.363 174.426 148.767 177.706 151.293C184.444 156.481 200.029 140.451 207.007 138.439C204.348 123.511 193.983 122.217 189.735 113.973C185.084 104.945 170.685 94.7736 169.619 95.323L159.891 100.326C162.904 107.497 164.113 116.489 165.755 125.14Z" fill="#FEA734"/>
</svg>
