<svg width="50" height="50" viewBox="0 0 50 50" fill="none" xmlns="http://www.w3.org/2000/svg">
<path d="M23.1417 33.7292L14.5244 26.3815L16.136 24.4936L22.9937 30.3448L36.0479 17.0933L37.8141 18.8332L23.1417 33.7292Z" fill="#3F90F7"/>
<path d="M25 0C11.2156 0 0 11.2156 0 25C0 38.7844 11.2156 50 25 50C38.7844 50 50 38.7844 50 25C50 11.2156 38.7844 0 25 0ZM25 48.0134C12.3109 48.0134 1.98658 37.6891 1.98658 25C1.98658 12.3109 12.3109 1.98658 25 1.98658C37.6891 1.98658 48.0134 12.3109 48.0134 25C48.0134 37.6891 37.6891 48.0134 25 48.0134Z" fill="#3F90F7"/>
</svg>
