<svg width="128" height="40" viewBox="0 0 128 40" fill="none" xmlns="http://www.w3.org/2000/svg">
<path d="M18.7593 22.8724C12.3653 22.8724 7.16699 17.7782 7.16699 11.5207C7.16699 5.26317 12.3653 0.165283 18.7593 0.165283C25.1534 0.165283 30.3555 5.25941 30.3555 11.5207C30.3555 17.782 25.1534 22.8724 18.7593 22.8724ZM18.7593 2.04781C13.4265 2.04781 9.08943 6.2948 9.08943 11.5207C9.08943 16.7466 13.4265 20.9898 18.7593 20.9898C24.0922 20.9898 28.433 16.7428 28.433 11.5207C28.433 6.29857 24.0922 2.04781 18.7593 2.04781Z" fill="#3F90F7"/>
<path d="M37.5184 39.9998H0L0.0499835 39.0096C0.557508 29.2543 8.77402 21.615 18.7592 21.615C28.7443 21.615 36.9609 29.2581 37.4684 39.0133L37.5184 39.9998ZM2.05317 38.1173H35.4652C34.5309 29.8417 27.3794 23.4975 18.7592 23.4975C10.139 23.4975 2.98747 29.8417 2.05317 38.1173Z" fill="#3F90F7"/>
<path d="M109.241 22.7068C102.847 22.7068 97.6484 17.6127 97.6484 11.3552C97.6484 5.09765 102.847 -0.000244141 109.241 -0.000244141C115.635 -0.000244141 120.837 5.09388 120.837 11.3514C120.837 17.6089 115.631 22.7068 109.241 22.7068ZM109.241 1.88229C103.908 1.88229 99.5709 6.12927 99.5709 11.3514C99.5709 16.5736 103.908 20.8205 109.241 20.8205C114.574 20.8205 118.914 16.5736 118.914 11.3514C118.914 6.12927 114.574 1.88229 109.241 1.88229Z" fill="#3F90F7"/>
<path d="M128 39.8341H90.4814L90.5314 38.8439C91.039 29.0886 99.2555 21.4456 109.241 21.4456C119.226 21.4456 127.442 29.0886 127.95 38.8439L128 39.8341ZM92.5346 37.9516H125.947C125.012 29.676 117.861 23.3319 109.241 23.3319C100.62 23.3319 93.4689 29.676 92.5346 37.9516Z" fill="#3F90F7"/>
<path d="M63.9981 22.7972C57.604 22.7972 52.4058 17.703 52.4058 11.4417C52.4058 5.18045 57.6079 0.0900879 63.9981 0.0900879C70.3883 0.0900879 75.5943 5.18421 75.5943 11.4417C75.5943 17.6993 70.3921 22.7972 63.9981 22.7972ZM63.9981 1.97262C58.6652 1.97262 54.3282 6.21961 54.3282 11.4417C54.3282 16.6639 58.6652 20.9146 63.9981 20.9146C69.3309 20.9146 73.6718 16.6676 73.6718 11.4417C73.6718 6.21584 69.3309 1.97262 63.9981 1.97262Z" fill="#3F90F7"/>
<path d="M82.7571 39.9244H45.2388L45.2888 38.9342C45.7963 29.179 54.0128 21.5359 63.9979 21.5359C73.9831 21.5359 82.1996 29.179 82.7071 38.9342L82.7571 39.9244ZM47.2919 38.0419H80.704C79.7696 29.7663 72.6182 23.4222 63.9979 23.4222C55.3777 23.4222 48.2301 29.7663 47.2919 38.0419Z" fill="#3F90F7"/>
</svg>
