<svg width="300" height="428" viewBox="0 0 300 428" fill="none" xmlns="http://www.w3.org/2000/svg">
<path d="M180.801 28.5689C181.925 30.3774 183.987 31.5649 185.737 30.7264C183.756 33.2419 184.318 40.3261 183.792 43.7209C194.018 36.1064 204.252 28.3287 216.299 28.8137C218.248 28.8907 220.401 29.0086 221.924 27.5582C222.64 26.8738 223.134 25.9084 223.542 24.9248C226.212 18.4797 225.786 10.9014 225.301 3.73556C225.215 2.49366 225.042 1.06594 224.154 0.408734C223.646 0.0325401 223.021 0.00534123 222.423 0.000808767C212.143 -0.0626457 202.045 3.63131 191.747 2.79281C188.474 2.52539 182.433 -1.04165 179.5 1.1022C176.903 3.00583 177.207 8.21363 177.397 11.2821C177.714 16.431 178.163 24.3129 180.801 28.5689Z" fill="#E3E5FC"/>
<path d="M222.536 49.6451L222.89 47.7506C223.044 46.9211 223.098 45.7472 223.162 44.5053C223.27 42.298 223.388 39.8731 224.073 38.0783C222.473 37.9378 220.963 36.9406 220.052 35.7123C217.301 31.9957 216.816 25.3557 216.499 20.9637L216.485 20.7824C216.295 18.1808 215.941 13.3401 218.992 11.4637C221.244 10.0768 224.766 11.0467 227.871 11.9033C229.335 12.3067 230.722 12.6875 231.741 12.7554C237.285 13.1316 242.905 12.3747 248.344 11.645C252.913 11.0286 257.567 10.3623 262.363 10.4167C263.088 10.4212 263.849 10.4575 264.534 10.8835C265.866 11.7084 266.007 13.4081 266.079 14.3237C266.533 19.8623 267.09 26.7607 264.239 32.526C263.849 33.3101 263.292 34.3028 262.39 35.0189C260.654 36.4103 258.347 36.3333 256.321 36.2608C244.654 35.88 234.47 42.1938 224.671 48.3171L222.536 49.6451ZM228.918 34.7923L226.284 37.5979C225.138 38.8216 224.979 42.0215 224.852 44.5914C224.825 45.1671 224.798 45.7246 224.762 46.2549C234.47 40.1995 244.518 34.1713 256.253 34.5611C258.193 34.6246 260.069 34.688 261.32 33.6909C261.959 33.1832 262.395 32.3991 262.707 31.7736C265.35 26.4299 264.81 19.7944 264.38 14.4596C264.307 13.5441 264.162 12.6557 263.632 12.3249C263.324 12.1345 262.848 12.1164 262.345 12.1118C257.708 12.0892 253.076 12.7192 248.561 13.3265C243.041 14.0699 237.33 14.8358 231.615 14.4506C230.427 14.369 228.963 13.9656 227.408 13.5396C224.639 12.7781 221.494 11.9079 219.871 12.9095C217.7 14.2421 218.004 18.412 218.171 20.6555L218.185 20.8368C218.489 25.0339 218.951 31.3793 221.412 34.7016C222.273 35.8619 223.941 36.7911 225.351 36.2245L228.918 34.7923Z" fill="#E3E5FC"/>
<path d="M195.128 49.3405C196.252 50.8543 198.314 51.8515 200.064 51.1489C198.083 53.2565 198.645 59.194 198.12 62.0359C208.345 55.6542 218.579 49.1365 230.626 49.5399C232.575 49.6034 234.728 49.7031 236.251 48.4884C236.967 47.9173 237.461 47.106 237.869 46.2811C240.539 40.8784 240.113 34.5284 239.628 28.5229C239.542 27.4804 239.369 26.2884 238.481 25.7354C237.973 25.4227 237.348 25.4 236.75 25.3955C226.47 25.3456 216.372 28.4413 206.074 27.7342C202.802 27.5121 196.76 24.5207 193.827 26.3156C191.23 27.911 191.534 32.2758 191.724 34.8502C192.041 39.1696 192.49 45.7734 195.128 49.3405Z" fill="#A7ADFF"/>
<path d="M171.179 61.6468C171.075 58.8004 170.93 55.7954 169.389 53.4022C168.799 52.4821 167.979 51.6618 166.941 51.3218C166.03 51.0227 165.047 51.1133 164.095 51.2085C159.689 51.6482 155.288 52.0878 150.883 52.5275C148.58 52.7586 146.223 53.0034 144.138 54.0005C142.053 55.0022 140.254 56.9285 140.068 59.2355C139.937 60.8627 140.612 62.4536 141.455 63.8495C142.053 64.8422 142.751 65.7849 143.635 66.5328C145.77 68.3367 148.734 68.8081 151.526 68.7401C154.318 68.6721 157.097 68.1418 159.889 68.246C162.984 68.3594 167.168 71.1332 169.747 71.2964C174.995 71.6363 171.283 64.4841 171.179 61.6468Z" fill="#E3E5FC"/>
<path d="M223.007 59.1764C224.381 58.4512 226.017 58.4919 227.572 58.5509C237.965 58.9316 248.357 59.3123 258.75 59.6976C259.394 59.7203 260.06 59.752 260.627 60.0602C261.647 60.6131 262.014 61.8732 262.263 63.0063C263.056 66.5779 263.627 70.1993 263.972 73.8389C264.071 74.9131 264.144 76.0552 263.664 77.0252C262.757 78.8427 260.396 79.2552 258.374 79.45C250.402 80.2115 242.397 80.9729 234.397 80.5786C230.926 80.4064 227.431 80.0211 223.977 80.4381C220.46 80.8642 212.175 85.0204 208.925 83.3661C206.573 82.1695 209.047 80.8551 210.684 79.373C213.725 76.6263 216.626 74.1153 218.212 70.2129C219.599 66.7864 219.282 61.1389 223.007 59.1764Z" fill="#E3E5FC"/>
<path d="M197.455 95.9754C199.993 96.7052 202.264 98.1601 204.77 98.9895C208.033 100.064 211.546 100.027 214.982 99.9821C221.169 99.9005 227.351 99.8144 233.538 99.7328C235.269 99.7102 237.227 99.7827 238.378 101.07C239.131 101.913 239.353 103.091 239.543 104.206C240.141 107.678 240.74 111.146 241.333 114.617C241.651 116.458 241.923 118.52 240.839 120.043C239.625 121.752 237.25 122.046 235.16 122.191C226.263 122.803 217.37 123.419 208.473 124.031C207.635 124.09 206.737 124.136 206.007 123.719C205.337 123.333 204.924 122.622 204.571 121.933C203.079 119.028 202.001 115.914 201.375 112.709C200.927 110.407 200.691 107.996 199.567 105.938C197.813 102.733 198.851 102.588 197.187 99.7555C194.771 95.6355 194.971 95.2593 197.455 95.9754Z" fill="#E3E5FC"/>
<path d="M274.945 42.4243C276.377 42.8368 277.665 43.6617 279.083 44.1285C280.928 44.7359 282.913 44.7177 284.858 44.6905C288.357 44.6452 291.856 44.5953 295.35 44.55C296.329 44.5364 297.435 44.5772 298.088 45.3069C298.514 45.7829 298.641 46.4491 298.75 47.0791C299.09 49.0417 299.425 51.0042 299.765 52.9668C299.946 54.0093 300.096 55.1741 299.484 56.0353C298.799 57.0007 297.453 57.1684 296.27 57.25C291.239 57.599 286.208 57.9434 281.177 58.2924C280.701 58.3242 280.194 58.3514 279.781 58.1157C279.401 57.8981 279.169 57.4947 278.97 57.1049C278.127 55.4642 277.515 53.7011 277.162 51.8881C276.908 50.5827 276.776 49.223 276.137 48.0581C275.145 46.2452 275.729 46.1636 274.791 44.5636C273.427 42.2294 273.54 42.0209 274.945 42.4243Z" fill="#A7ADFF"/>
<path d="M231.258 72.9607C232.627 72.9607 233.737 71.8507 233.737 70.4815C233.737 69.1122 232.627 68.0022 231.258 68.0022C229.888 68.0022 228.778 69.1122 228.778 70.4815C228.778 71.8507 229.888 72.9607 231.258 72.9607Z" fill="#4B369D"/>
<path d="M241.618 72.9607C242.987 72.9607 244.097 71.8507 244.097 70.4815C244.097 69.1122 242.987 68.0022 241.618 68.0022C240.249 68.0022 239.139 69.1122 239.139 70.4815C239.139 71.8507 240.249 72.9607 241.618 72.9607Z" fill="#4B369D"/>
<path d="M252.456 72.9607C253.825 72.9607 254.935 71.8507 254.935 70.4815C254.935 69.1122 253.825 68.0022 252.456 68.0022C251.087 68.0022 249.977 69.1122 249.977 70.4815C249.977 71.8507 251.087 72.9607 252.456 72.9607Z" fill="#4B369D"/>
<path d="M282.309 53.5516C283.211 53.5516 283.941 52.8211 283.941 51.9199C283.941 51.0187 283.211 50.2882 282.309 50.2882C281.408 50.2882 280.678 51.0187 280.678 51.9199C280.678 52.8211 281.408 53.5516 282.309 53.5516Z" fill="white"/>
<path d="M289.136 53.5516C290.037 53.5516 290.767 52.8211 290.767 51.9199C290.767 51.0187 290.037 50.2882 289.136 50.2882C288.234 50.2882 287.504 51.0187 287.504 51.9199C287.504 52.8211 288.234 53.5516 289.136 53.5516Z" fill="white"/>
<path d="M296.27 53.5516C297.172 53.5516 297.902 52.8211 297.902 51.9199C297.902 51.0187 297.172 50.2882 296.27 50.2882C295.369 50.2882 294.639 51.0187 294.639 51.9199C294.639 52.8211 295.369 53.5516 296.27 53.5516Z" fill="white"/>
<path d="M217.189 13.5798H185.752C185.244 13.5798 184.827 13.1629 184.827 12.6552V9.23322C184.827 8.72558 185.244 8.30859 185.752 8.30859H217.189C217.697 8.30859 218.114 8.72558 218.114 9.23322V12.6552C218.114 13.1629 217.697 13.5798 217.189 13.5798Z" fill="white"/>
<path d="M217.188 22.2418H199.194C198.687 22.2418 198.27 21.8249 198.27 21.3172V17.8952C198.27 17.3876 198.687 16.9706 199.194 16.9706H217.188C217.696 16.9706 218.113 17.3876 218.113 17.8952V21.3172C218.113 21.8249 217.696 22.2418 217.188 22.2418Z" fill="white"/>
<path d="M222.796 33.2153H198.524C198.017 33.2153 197.6 32.7983 197.6 32.2907V31.8193C197.6 31.3116 198.017 30.8947 198.524 30.8947H222.796C223.303 30.8947 223.72 31.3116 223.72 31.8193V32.2907C223.72 32.7983 223.303 33.2153 222.796 33.2153Z" fill="white"/>
<path d="M233.069 39.1084H198.522C198.015 39.1084 197.598 38.6914 197.598 38.1837V37.7396C197.598 37.2319 198.015 36.8149 198.522 36.8149H233.069C233.576 36.8149 233.993 37.2319 233.993 37.7396V38.1837C233.998 38.6914 233.581 39.1084 233.069 39.1084Z" fill="white"/>
<path d="M233.069 44.7144H198.522C198.015 44.7144 197.598 44.2975 197.598 43.7898V43.3456C197.598 42.838 198.015 42.421 198.522 42.421H233.069C233.576 42.421 233.993 42.838 233.993 43.3456V43.7898C233.998 44.2975 233.581 44.7144 233.069 44.7144Z" fill="white"/>
<path d="M225.659 118.543H218.203C216.295 118.543 214.731 116.979 214.731 115.071V107.615C214.731 105.707 216.295 104.143 218.203 104.143H225.659C227.567 104.143 229.131 105.707 229.131 107.615V115.071C229.131 116.979 227.567 118.543 225.659 118.543Z" fill="white"/>
<path d="M222.495 112.234H221.362C220.07 112.234 219.01 111.178 219.01 109.882V108.749C219.01 107.457 220.066 106.396 221.362 106.396H222.495C223.787 106.396 224.848 107.452 224.848 108.749V109.882C224.848 111.178 223.787 112.234 222.495 112.234Z" fill="#4B369D"/>
<path d="M221.928 112.275C219.825 112.275 218.103 113.997 218.103 116.1H225.749C225.753 113.997 224.031 112.275 221.928 112.275Z" fill="#4B369D"/>
<path d="M163.188 62.8665H152.573C150.665 62.8665 149.102 61.3028 149.102 59.3946V48.7796C149.102 46.8714 150.665 45.3077 152.573 45.3077H163.188C165.097 45.3077 166.66 46.8714 166.66 48.7796V59.3946C166.66 61.3073 165.101 62.8665 163.188 62.8665Z" fill="#A7ADFF"/>
<path d="M43.7559 197.891L95.8338 139.739L88.4731 156.922L46.8198 197.891H43.7559Z" fill="#4B369D"/>
<path d="M72.4907 257.203L37.6043 243.777C31.5173 241.434 28.4533 234.536 30.7966 228.449L40.9221 202.133C43.2654 196.046 50.1638 192.982 56.2509 195.326L91.1372 208.751C97.2243 211.094 100.288 217.992 97.945 224.079L87.8194 250.395C85.4762 256.482 78.5823 259.546 72.4907 257.203Z" fill="#4B369D"/>
<path d="M176.524 160.238L197.093 125.646C197.093 125.646 205.115 121.073 203.397 127.228C201.68 133.383 183.527 163.216 183.527 163.216L176.524 160.238Z" fill="#4B369D"/>
<path d="M118.355 132.536L112.227 152.216L95.0811 154.278C95.0811 154.278 107.958 142.92 109.467 130.279C110.981 117.643 118.355 132.536 118.355 132.536Z" fill="#D4A79A"/>
<path d="M142.663 95.2482C142.663 95.2482 144.925 100.619 138.099 113.596C131.278 126.572 122.897 137.01 118.945 135.12C108.012 129.899 106.036 120.739 103.811 112.739C101.087 102.931 116.103 84.5017 116.103 84.5017L126.541 81.8774L142.663 95.2482Z" fill="#EAC2AB"/>
<path d="M106.72 101.294C106.72 101.294 105.614 109.281 105.6 118.935C105.6 119.297 105.568 119.596 105.337 119.873C104.766 120.548 100.465 113.342 100.143 112.784C98.0309 109.149 94.8038 104.707 96.082 100.306C96.44 99.078 97.0836 97.9222 97.197 96.6531C97.4054 94.26 95.5607 92.7416 95.1347 90.5932C94.7358 88.5989 95.2706 86.3236 95.8871 84.4381C97.061 80.8575 99.445 76.9369 102.717 74.9109C105.296 73.3155 107.481 74.0951 110.06 73.1976C111.42 72.7263 112.032 71.1943 112.947 70.0838C114.357 68.3796 116.65 67.6001 118.862 67.5411C121.591 67.4641 125.529 68.008 127.855 69.5853C130.814 71.5931 131.109 76.9007 133.905 78.3828C134.386 78.6366 134.939 78.6955 135.478 78.7454C140.695 79.253 145.644 79.0173 149.823 82.5889C156.423 88.2273 151.899 108.17 142.163 102.527C141.049 101.879 140.101 100.982 139.036 100.252C133.914 96.7302 127.41 102.631 123.961 93.7252C123.345 92.1343 112.698 91.5677 112.557 95.9143C112.381 101.589 106.72 101.294 106.72 101.294Z" fill="#4B369D"/>
<path d="M109.092 101.162C109.092 101.162 106.064 95.2926 104.673 102.726C103.281 110.159 106.73 112.638 106.73 112.638L109.092 101.162Z" fill="#EAC2AB"/>
<path d="M31.7906 376.338L16.2533 398.007L8.47559 393.556L26.0298 371.909C26.0298 371.914 30.6257 373.731 31.7906 376.338Z" fill="#D4A79A"/>
<path d="M35.6287 424.853C35.2389 425.316 32.252 424.613 31.7988 424.545C27.1213 423.852 19.8965 423.022 16.3204 419.668C12.8395 416.4 11.0628 411.469 8.13028 407.739C6.06347 405.114 3.18537 403.256 0.570137 401.207C-2.31251 398.946 6.49858 385.534 9.96592 388.498C12.7715 390.901 10.3829 395.9 18.4371 396.512C25.3355 397.038 19.4297 406.048 26.3961 413.128C32.5512 419.392 39.8756 419.809 35.6287 424.853Z" fill="#F3AA02"/>
<path d="M80.0055 286.555C74.7343 305.351 77.7982 305.659 64.8172 320.321C58.4854 327.474 23.4223 357.007 16.8956 363.996C7.5859 373.963 17.2944 378.545 24.2019 381.464C28.7208 383.372 31.4176 393.303 38.2842 385.992C38.9641 385.272 50.7848 370.011 54.3337 363.325C58.3948 355.67 81.6871 334.73 89.714 327.369C108.823 309.851 99.1642 301.435 110.858 278.5C115.309 269.766 114.321 260.47 115.64 250.426C116.446 244.28 107.069 215.513 94.0244 220.598C85.9068 223.766 89.007 240.233 89.3514 246.728C89.5917 251.22 90.2398 256.173 89.1248 260.52C86.8359 269.44 82.4984 277.675 80.0055 286.555Z" fill="#2D3EC0"/>
<path d="M121.202 385.955L127.098 412.782L118.333 415.674L113.841 387.314C113.845 387.319 118.4 385.048 121.202 385.955Z" fill="#EAC2AB"/>
<path d="M162.996 423.356C162.996 423.356 156.438 425.595 143.865 426.528C131.292 427.462 117.259 427.929 114.712 426.062C112.16 424.194 110.519 408.335 114.712 408.335C118.905 408.335 120.532 414.399 127.924 408.988C134.256 404.351 139.314 413.094 150.337 415.424C161.36 417.754 165.82 418.687 162.996 423.356Z" fill="#FDC510"/>
<path d="M143.375 396.402C142.954 395.418 141.848 394.684 140.887 393.918C132.107 386.92 136.69 376.296 135.656 366.918C132.434 337.702 137.981 320.61 126.995 290.764C119.516 270.454 117.499 257.052 115.691 234.489C115.061 226.657 130.575 216.536 118.741 218.775C113.135 219.836 107.6 219.627 102.012 218.648C99.0703 218.131 102.071 217.175 99.0703 218.131C88.8496 221.395 81.2442 239.692 81.1173 246.74C80.8317 262.54 92.9606 272.911 96.2738 286.73C102.093 311.001 111.24 328.17 108.851 348.14C107.682 357.926 106.322 367.684 105.017 377.452C104.255 383.149 99.4918 395.632 102.687 400.789C107.075 407.869 126.623 401.868 133.154 401.71C138.063 401.587 144.807 399.742 143.375 396.402Z" fill="#2B44FF"/>
<path d="M121.087 181.374C118.123 169.345 121.341 149.112 112.861 140.187C111.991 139.272 111.071 138.37 109.919 137.849C99.2635 133.049 92.8365 141.796 88.2542 149.379C83.6673 156.971 83.7716 165.184 81.5325 173.696C78.9853 183.373 79.4975 193.435 79.3162 203.424C79.2029 209.507 79.9462 215.549 79.6017 221.64C79.3615 225.892 78.7587 230.116 77.7887 234.259C77.1451 237.014 73.5418 242.485 74.5934 245.291C75.4273 247.512 79.2437 246.673 81.1201 246.736C88.3766 246.977 95.488 244.824 101.942 241.633C107.839 238.719 114.071 238.832 120.874 238.27C124.251 237.989 128.629 235.079 127.102 228.942C123.48 214.397 124.537 201.657 123.041 191.386C122.551 188.068 121.908 184.71 121.087 181.374Z" fill="#ECEFF1"/>
<path d="M102.179 155.734C102.179 155.734 117.349 190.348 124.728 195.012C132.107 199.676 138.497 199.01 151.505 190.493C164.518 181.977 176.216 171.806 177.454 170.646C178.691 169.485 189.361 168.216 190.294 163.611C191.228 159.006 195.285 144.108 191.378 147.032C187.471 149.955 184.103 159.6 180.849 159.768C177.594 159.935 182.204 149.805 179.244 151.437C176.284 153.069 176.076 155.752 175.011 158.032C173.946 160.312 175.351 162.882 168.883 168.547C162.415 174.213 141.262 189.002 135.175 187.901C129.088 186.795 106.788 153.993 105.877 151.482C104.962 148.976 102.179 155.734 102.179 155.734Z" fill="#EAC2AB"/>
<path d="M123.087 167.128C123.087 167.128 113.868 139.535 102.908 145.096C91.9487 150.657 108.207 179.978 108.207 179.978L126.01 170.614L123.087 167.128Z" fill="#FDC510"/>
</svg>
