<svg width="1440" height="1054" viewBox="0 0 1440 1054" fill="none" xmlns="http://www.w3.org/2000/svg">
<path d="M1440 0H0V1075H720H1440V0Z" fill="#132135"/>
<path d="M1292.77 369.257L1290.7 368.127C1290.57 368.056 1290.46 367.944 1290.4 367.822L1289.29 365.715C1289.01 365.186 1288.26 365.186 1287.98 365.715L1286.87 367.822C1286.8 367.954 1286.69 368.066 1286.57 368.127L1284.5 369.257C1283.98 369.542 1283.98 370.305 1284.5 370.59L1286.57 371.72C1286.7 371.791 1286.81 371.903 1286.87 372.025L1287.98 374.132C1288.26 374.662 1289.01 374.662 1289.29 374.132L1290.4 372.025C1290.47 371.893 1290.58 371.781 1290.7 371.72L1292.77 370.59C1293.3 370.316 1293.3 369.542 1292.77 369.257Z" fill="#ECF4FD"/>
<path d="M892.04 52.9035L889.43 51.4786C889.27 51.387 889.13 51.2547 889.05 51.0918L887.65 48.4354C887.3 47.7637 886.35 47.7637 885.99 48.4354L884.59 51.0918C884.5 51.2547 884.37 51.3972 884.21 51.4786L881.6 52.9035C880.94 53.2597 880.94 54.2266 881.6 54.593L884.21 56.0178C884.37 56.1094 884.51 56.2417 884.59 56.4046L885.99 59.061C886.34 59.7327 887.29 59.7327 887.65 59.061L889.05 56.4046C889.14 56.2417 889.27 56.0993 889.43 56.0178L892.04 54.593C892.7 54.2266 892.7 53.2597 892.04 52.9035Z" fill="#C5DCF3"/>
<path d="M495.117 102.514L492.227 100.936C492.047 100.834 491.897 100.692 491.797 100.499L490.247 97.5572C489.857 96.8143 488.807 96.8143 488.417 97.5572L486.867 100.499C486.767 100.682 486.628 100.834 486.438 100.936L483.547 102.514C482.818 102.911 482.818 103.979 483.547 104.376L486.438 105.954C486.618 106.056 486.767 106.198 486.867 106.391L488.417 109.333C488.807 110.076 489.857 110.076 490.247 109.333L491.797 106.391C491.897 106.208 492.037 106.056 492.227 105.954L495.117 104.376C495.847 103.979 495.847 102.911 495.117 102.514Z" fill="#8CB3F7"/>
<path d="M1337.99 233.252L1335.87 232.102C1335.74 232.031 1335.63 231.919 1335.56 231.787L1334.43 229.629C1334.14 229.079 1333.38 229.079 1333.09 229.629L1331.96 231.787C1331.89 231.919 1331.78 232.031 1331.65 232.102L1329.53 233.252C1328.99 233.547 1328.99 234.321 1329.53 234.616L1331.65 235.766C1331.78 235.837 1331.89 235.949 1331.96 236.082L1333.09 238.239C1333.38 238.789 1334.14 238.789 1334.43 238.239L1335.56 236.082C1335.63 235.949 1335.74 235.837 1335.87 235.766L1337.99 234.616C1338.53 234.321 1338.53 233.537 1337.99 233.252Z" fill="#8CB3F7"/>
<path d="M1152.33 450.078L1151.22 449.478C1151.15 449.437 1151.09 449.386 1151.06 449.315L1150.47 448.185C1150.32 447.9 1149.92 447.9 1149.77 448.185L1149.18 449.315C1149.14 449.386 1149.09 449.447 1149.02 449.478L1147.91 450.078C1147.63 450.231 1147.63 450.638 1147.91 450.791L1149.02 451.391C1149.09 451.432 1149.15 451.483 1149.18 451.554L1149.77 452.684C1149.92 452.969 1150.32 452.969 1150.47 452.684L1151.06 451.554C1151.1 451.483 1151.15 451.422 1151.22 451.391L1152.33 450.791C1152.61 450.638 1152.61 450.231 1152.33 450.078Z" fill="#ECF4FD"/>
<path d="M1198.35 490.983L1196.28 489.853C1196.15 489.782 1196.04 489.67 1195.98 489.548L1194.87 487.441C1194.59 486.912 1193.84 486.912 1193.56 487.441L1192.45 489.548C1192.38 489.68 1192.27 489.792 1192.15 489.853L1190.08 490.983C1189.56 491.268 1189.56 492.031 1190.08 492.316L1192.15 493.446C1192.28 493.517 1192.39 493.629 1192.45 493.751L1193.56 495.858C1193.84 496.387 1194.59 496.387 1194.87 495.858L1195.98 493.751C1196.05 493.619 1196.16 493.507 1196.28 493.446L1198.35 492.316C1198.88 492.031 1198.88 491.268 1198.35 490.983Z" fill="#ECF4FD"/>
<path opacity="0.2" d="M64.2479 334.116C80.6956 365.869 115.797 397.082 151.064 387.123C174.709 380.442 188.231 357.392 193.859 334.857C199.487 312.312 199.628 288.397 207.982 266.694C236.441 192.792 339.823 177.837 402.628 126.425C441.765 94.392 463.416 48.9195 472.891 0H145.365C137.767 8.67908 130.357 17.5041 123.231 26.5425C54.4431 113.726 12.1794 233.56 64.2479 334.116Z" fill="#373850"/>
<path opacity="0.2" d="M1309.74 0H753.076C743.744 6.20897 734.104 11.9576 724.334 17.2347C661.836 50.9854 591.29 71.274 530.325 107.315C454.848 151.934 396.384 220.514 366.403 299.602C349.814 343.346 341.802 391.12 351.123 437.536C368.751 525.281 450.753 598.194 543.965 617.899C637.176 637.604 736.806 607.12 803.658 546.378C870.511 485.635 905.542 397.542 907.63 308.921C908.869 256.05 899.17 202.145 910.167 150.587C921.163 99.0291 961.173 48.0549 1017.62 45.7869C1061.9 44.0017 1104.02 73.8901 1124.19 111.559C1144.35 149.229 1145.78 192.95 1139.34 233.819C1124.64 327.189 1043 384 1011.59 484.67C920.114 663.192 656.5 1060.5 480 1083.5H1183.52C1191.48 1074.67 743 972.5 917.223 668.143C945.933 617.988 985.373 579.634 1027.61 542.414C1069.85 505.205 1124.46 476.608 1183.52 477.439C1239.25 478.225 1292.29 505.048 1335.56 539.315C1378.88 573.605 1414.56 616.17 1440.47 663.192V128.805C1401.45 82.12 1357.5 39.3983 1309.74 0Z" fill="#373850"/>
<path d="M176.96 63.5188L174.89 62.3891C174.76 62.3179 174.65 62.2059 174.59 62.0838L173.48 59.977C173.2 59.4478 172.45 59.4478 172.17 59.977L171.06 62.0838C170.99 62.2161 170.88 62.3281 170.76 62.3891L168.69 63.5188C168.17 63.8038 168.17 64.5672 168.69 64.8521L170.76 65.9819C170.89 66.0531 171 66.1651 171.06 66.2872L172.17 68.394C172.45 68.9232 173.2 68.9232 173.48 68.394L174.59 66.2872C174.66 66.1549 174.77 66.0429 174.89 65.9819L176.96 64.8521C177.49 64.5672 177.49 63.8038 176.96 63.5188Z" fill="#ECF4FD"/>
<path d="M106.22 298.879L103.33 297.301C103.15 297.2 103 297.057 102.9 296.864L101.35 293.922C100.96 293.179 99.91 293.179 99.52 293.922L97.97 296.864C97.87 297.047 97.73 297.2 97.54 297.301L94.65 298.879C93.92 299.276 93.92 300.345 94.65 300.741L97.54 302.319C97.72 302.421 97.87 302.563 97.97 302.757L99.52 305.698C99.91 306.441 100.96 306.441 101.35 305.698L102.9 302.757C103 302.573 103.14 302.421 103.33 302.319L106.22 300.741C106.95 300.345 106.95 299.276 106.22 298.879Z" fill="#8CB3F7"/>
<path d="M82.5399 185.234L80.4699 184.104C80.3399 184.033 80.2299 183.921 80.1699 183.799L79.0599 181.692C78.7799 181.163 78.0299 181.163 77.7499 181.692L76.6399 183.799C76.5699 183.931 76.4599 184.043 76.3399 184.104L74.2499 185.234C73.7299 185.519 73.7299 186.282 74.2499 186.567L76.3199 187.697C76.4499 187.768 76.5599 187.88 76.6199 188.002L77.7299 190.109C78.0099 190.638 78.7599 190.638 79.0399 190.109L80.1499 188.002C80.2199 187.87 80.3299 187.758 80.4499 187.697L82.5199 186.567C83.0699 186.282 83.0699 185.519 82.5399 185.234Z" fill="#ECF4FD"/>
<path d="M394.87 563.764L392.75 562.614C392.62 562.543 392.51 562.431 392.44 562.298L391.31 560.141C391.02 559.591 390.26 559.591 389.97 560.141L388.84 562.298C388.77 562.431 388.66 562.543 388.53 562.614L386.41 563.764C385.87 564.059 385.87 564.833 386.41 565.128L388.53 566.278C388.66 566.349 388.77 566.461 388.84 566.593L389.97 568.751C390.26 569.301 391.02 569.301 391.31 568.751L392.44 566.593C392.51 566.461 392.62 566.349 392.75 566.278L394.87 565.128C395.4 564.833 395.4 564.049 394.87 563.764Z" fill="#8CB3F7"/>
</svg>
