<svg width="206" height="159" viewBox="0 0 206 159" fill="none" xmlns="http://www.w3.org/2000/svg">
<g clip-path="url(#clip0)">
<path opacity="0.18" d="M203.562 131.868C201.397 136.776 198.277 141.204 194.383 144.894C190.49 148.583 185.901 151.461 180.884 153.358C174.286 155.833 167.153 156.476 160.122 157.012C133.233 159.052 106.248 159.524 79.3042 158.427C58.1389 157.565 43.2617 149.766 24.389 141.27C21.7732 140.169 19.2404 138.881 16.8103 137.414C6.19667 130.639 1.14141 117.722 0.160043 105.061C0.0858225 104.104 0.0404654 103.152 0.0116018 102.199C-0.083236 98.3758 0.13118 94.4208 1.51664 90.8288C6.67499 77.4131 25.8941 72.9632 29.5886 59.0733C31.4977 51.8809 28.5495 43.9627 30.9205 36.9146C33.1265 30.3655 39.3816 26.1219 45.5172 22.9546C71.1564 9.708 102.061 7.05622 129.589 15.7209C147.439 21.3338 165.339 33.7061 168.542 52.1448C170.373 62.686 167.223 74.2541 172.084 83.7848C177.338 94.095 190.38 98.8419 198.688 106.447C202.082 109.548 204.684 113.128 205.636 117.751C206.614 122.485 205.5 127.434 203.562 131.868Z" fill="#68E1FD"/>
<path d="M203.562 131.867C201.397 136.775 198.277 141.204 194.384 144.893C190.49 148.583 185.901 151.46 180.884 153.358C174.286 155.832 167.153 156.476 160.123 157.012C133.233 159.052 106.248 159.524 79.3043 158.426C58.139 157.564 43.2619 149.766 24.3891 141.27C21.7733 140.169 19.2405 138.88 16.8104 137.414C6.19679 130.638 1.14152 117.722 0.160156 105.061C0.550389 104.926 0.954127 104.835 1.36418 104.788C7.50802 103.91 13.7714 103.04 19.9194 104.026C23.7376 104.648 27.4116 105.98 31.2175 106.677C41.9382 108.665 52.6797 105.527 63.4334 106.215C72.5255 106.797 81.4815 108.748 90.6931 109.024C100.391 109.321 110.102 108.983 119.796 108.541C139.176 107.655 158.692 106.265 178.051 108.401C180.735 108.694 183.411 109.057 186.116 108.814C188.285 108.612 190.396 108.014 192.524 107.531C194.566 107.065 196.63 106.705 198.709 106.45C202.103 109.552 204.705 113.132 205.657 117.755C206.614 122.485 205.5 127.434 203.562 131.867Z" fill="url(#paint0_linear)"/>
<path d="M38.7262 108.937C39.0519 108.479 39.3901 107.923 39.221 107.387C39.1451 107.201 39.0331 107.033 38.8915 106.891C38.75 106.75 38.5816 106.638 38.3963 106.562C36.4377 105.601 33.9719 106.591 32.57 108.261C31.168 109.931 30.5701 112.113 30.0135 114.224C30.1537 108.814 30.232 103.131 27.7085 98.3425C27.2263 97.3044 26.4797 96.4112 25.5437 95.7525C24.5748 95.1504 23.2553 95.0102 22.3151 95.6536C21.375 96.2969 21.0781 97.4434 21.0781 98.5404C21.0781 100.351 21.9028 102.046 22.4223 103.774C23.3377 106.747 23.4738 109.894 23.7624 112.995C24.2779 118.563 24.8675 124.209 26.4055 129.587C26.3478 129.389 28.6445 127.838 28.8796 127.368C29.795 125.599 29.8156 123.07 30.6897 121.153C32.7102 116.695 35.9223 112.905 38.7262 108.937Z" fill="#68E1FD"/>
<path d="M38.7262 108.937C39.0519 108.479 39.3901 107.923 39.221 107.387C39.1451 107.201 39.0331 107.033 38.8915 106.891C38.75 106.75 38.5816 106.638 38.3963 106.562C36.4377 105.601 33.9719 106.591 32.57 108.261C31.168 109.931 30.5701 112.113 30.0135 114.224C30.1537 108.814 30.232 103.131 27.7085 98.3425C27.2263 97.3044 26.4797 96.4112 25.5437 95.7525C24.5748 95.1504 23.2553 95.0102 22.3151 95.6536C21.375 96.2969 21.0781 97.4434 21.0781 98.5404C21.0781 100.351 21.9028 102.046 22.4223 103.774C23.3377 106.747 23.4738 109.894 23.7624 112.995C24.2779 118.563 24.8675 124.209 26.4055 129.587C26.3478 129.389 28.6445 127.838 28.8796 127.368C29.795 125.599 29.8156 123.07 30.6897 121.153C32.7102 116.695 35.9223 112.905 38.7262 108.937Z" fill="url(#paint1_linear)"/>
<path d="M105.277 0.561317C108.039 -0.387222 111.136 -0.0655438 113.845 1.03971C116.055 1.88886 117.969 3.36352 119.354 5.28339C120.034 6.2464 120.504 7.34204 120.733 8.49888C120.962 9.65573 120.944 10.8478 120.682 11.9974C120.269 13.5357 119.366 15.0327 119.651 16.5999C119.898 17.9773 121.04 19.0166 122.232 19.7507C123.424 20.4848 124.751 21.025 125.795 21.9612C126.695 22.7966 127.329 23.8799 127.615 25.0747C127.901 26.2695 127.827 27.5223 127.403 28.6752C127.065 29.5454 126.516 30.4156 126.669 31.3394C126.821 32.2632 127.683 32.9519 128.57 33.2983C129.456 33.6447 130.421 33.7602 131.308 34.1231C132.145 34.4576 132.885 34.9982 133.459 35.6947C134.032 36.3913 134.421 37.2213 134.588 38.108C134.755 38.9946 134.696 39.9091 134.416 40.7668C134.136 41.6246 133.644 42.3977 132.986 43.0147C131.778 44.1529 130.12 44.6643 128.516 45.0767C122.295 46.6403 115.854 47.1381 109.466 46.549C104.547 46.0912 99.6193 44.986 94.7084 45.5551C91.6447 45.9098 88.6841 46.9119 85.6369 47.312C82.5898 47.712 79.2292 47.4192 76.817 45.4932C75.6067 44.4546 74.63 43.1713 73.9513 41.7279C72.7473 39.3566 71.9927 36.6594 72.4339 34.0406C72.8751 31.4219 74.7141 28.935 77.2912 28.2669C78.4375 27.9741 79.6457 28.0525 80.8291 27.9906C83.1695 27.8611 85.4452 27.1754 87.4677 25.9904C88.078 25.6316 88.7047 25.1656 88.8697 24.4851C89.1418 23.3551 88.0739 22.4231 87.5048 21.4003C86.3668 19.3713 87.6244 16.4226 89.8758 15.8369C91.1953 15.4946 92.8116 15.7957 93.7394 14.7977C94.9022 13.5604 94.3125 11.5891 95.566 10.2859C96.6876 9.12292 98.2545 8.68577 99.1534 7.23821C100.914 4.38435 101.714 1.7903 105.277 0.561317Z" fill="#3F3D56"/>
<path d="M105.277 0.561317C108.039 -0.387222 111.136 -0.0655438 113.845 1.03971C116.055 1.88886 117.969 3.36352 119.354 5.28339C120.034 6.2464 120.504 7.34204 120.733 8.49888C120.962 9.65573 120.944 10.8478 120.682 11.9974C120.269 13.5357 119.366 15.0327 119.651 16.5999C119.898 17.9773 121.04 19.0166 122.232 19.7507C123.424 20.4848 124.751 21.025 125.795 21.9612C126.695 22.7966 127.329 23.8799 127.615 25.0747C127.901 26.2695 127.827 27.5223 127.403 28.6752C127.065 29.5454 126.516 30.4156 126.669 31.3394C126.821 32.2632 127.683 32.9519 128.57 33.2983C129.456 33.6447 130.421 33.7602 131.308 34.1231C132.145 34.4576 132.885 34.9982 133.459 35.6947C134.032 36.3913 134.421 37.2213 134.588 38.108C134.755 38.9946 134.696 39.9091 134.416 40.7668C134.136 41.6246 133.644 42.3977 132.986 43.0147C131.778 44.1529 130.12 44.6643 128.516 45.0767C122.295 46.6403 115.854 47.1381 109.466 46.549C104.547 46.0912 99.6193 44.986 94.7084 45.5551C91.6447 45.9098 88.6841 46.9119 85.6369 47.312C82.5898 47.712 79.2292 47.4192 76.817 45.4932C75.6067 44.4546 74.63 43.1713 73.9513 41.7279C72.7473 39.3566 71.9927 36.6594 72.4339 34.0406C72.8751 31.4219 74.7141 28.935 77.2912 28.2669C78.4375 27.9741 79.6457 28.0525 80.8291 27.9906C83.1695 27.8611 85.4452 27.1754 87.4677 25.9904C88.078 25.6316 88.7047 25.1656 88.8697 24.4851C89.1418 23.3551 88.0739 22.4231 87.5048 21.4003C86.3668 19.3713 87.6244 16.4226 89.8758 15.8369C91.1953 15.4946 92.8116 15.7957 93.7394 14.7977C94.9022 13.5604 94.3125 11.5891 95.566 10.2859C96.6876 9.12292 98.2545 8.68577 99.1534 7.23821C100.914 4.38435 101.714 1.7903 105.277 0.561317Z" fill="url(#paint2_linear)"/>
<path d="M23.2925 131.138C30.459 140.883 43.2332 144.83 55.2281 146.368C177.552 162.04 194.619 132.103 195.176 131.456C197.188 129.125 167.483 102.876 80.055 108.802C73.94 109.214 19.4083 125.855 23.2925 131.138Z" fill="#68E1FD"/>
<path d="M54.7635 116.064C53.8995 116.459 53.1451 117.059 52.5657 117.812C52.0421 118.6 51.9266 119.738 52.541 120.456C52.9781 120.971 53.6749 121.169 54.3347 121.334C64.2406 123.772 74.5847 123.813 84.5096 121.454C88.5258 120.493 92.4636 119.14 96.5581 118.6C99.8568 118.167 103.217 118.27 106.553 118.419C118.828 118.963 131.079 120.068 143.288 121.454C150.216 122.242 157.197 123.104 164.136 122.456C164.825 122.39 165.571 122.283 166.045 121.78C167.142 120.621 165.81 118.732 164.363 118.068C162.223 117.074 159.312 116.658 158.59 114.406C158.523 114.025 158.383 113.661 158.178 113.334C157.804 112.988 157.314 112.796 156.805 112.797C128.79 109.539 100.524 109.037 72.4116 111.296C65.8636 111.816 60.5445 112.929 54.7635 116.064Z" fill="url(#paint3_linear)"/>
<path d="M49.9588 88.7176C49.9588 88.7176 55.0512 78.9971 77.2721 86.6349C99.493 94.2727 131.206 107.936 131.206 107.936L128.662 117.66C128.662 117.66 76.3484 111.408 68.9387 107.239C61.529 103.069 48.5692 102.612 49.9588 88.7176Z" fill="#68E1FD"/>
<path d="M49.9588 88.7176C49.9588 88.7176 55.0512 78.9971 77.2721 86.6349C99.493 94.2727 131.206 107.936 131.206 107.936L128.662 117.66C128.662 117.66 76.3484 111.408 68.9387 107.239C61.529 103.069 48.5692 102.612 49.9588 88.7176Z" fill="url(#paint4_linear)"/>
<path d="M86.7648 108.86C86.7648 108.86 125.422 90.1283 144.187 88.025C162.953 85.9218 164.326 90.1077 165.022 91.0356C165.719 91.9635 172.659 103.998 147.428 109.788C122.197 115.578 86.0886 119.046 86.0886 119.046C86.0886 119.046 84.2165 116.733 86.7648 108.86Z" fill="#68E1FD"/>
<path d="M86.7648 108.86C86.7648 108.86 125.422 90.1283 144.187 88.025C162.953 85.9218 164.326 90.1077 165.022 91.0356C165.719 91.9635 172.659 103.998 147.428 109.788C122.197 115.578 86.0886 119.046 86.0886 119.046C86.0886 119.046 84.2165 116.733 86.7648 108.86Z" fill="url(#paint5_linear)"/>
<path d="M126.628 1.31536L127.16 0.783348" stroke="#3CB6D5" stroke-width="3.43" stroke-miterlimit="10"/>
<path d="M102.54 32.0939C100.938 33.0799 99.2318 33.8849 97.4521 34.4941C98.3954 36.0366 99.6789 37.3428 101.204 38.313C103.427 39.6575 106.107 40.0245 108.705 40.0493C110.174 40.1076 111.642 39.9308 113.055 39.5255C114.948 38.9151 116.568 37.6738 118.081 36.3829C118.758 35.7973 119.492 35.0179 119.318 34.1436C117.934 34.2247 116.557 33.8823 115.372 33.1618C114.187 32.4412 113.249 31.3769 112.684 30.1102C112.456 29.5321 112.272 28.938 112.131 28.3327C112.065 28.077 111.814 26.4604 111.637 26.2707C111.421 26.0626 111.159 25.9082 110.872 25.82C110.586 25.7319 110.283 25.7125 109.987 25.7634C108.659 26.0026 106.816 25.549 105.864 26.6336C104.751 27.875 104.029 31.1536 102.54 32.0939Z" fill="url(#paint6_linear)"/>
<path d="M106.803 31.1037C107.493 31.5541 108.316 31.7562 109.137 31.677C109.961 31.5821 110.605 29.6149 111 28.885C111.117 28.6564 111.216 28.4192 111.297 28.1756C111.649 27.3096 111.865 26.3941 111.936 25.462C111.936 25.7218 110.217 25.994 109.994 26.027C109.277 26.1342 108.547 26.1713 107.825 26.2455C106.823 26.3486 104.819 26.394 105.265 27.8416C105.487 28.5798 106.155 30.6996 106.803 31.1037Z" fill="url(#paint7_linear)"/>
<path d="M97.4551 34.4938C97.4551 34.4938 91.8556 35.1207 90.3506 38.2467C88.8455 41.3728 66.8473 69.8496 66.7401 71.7013C66.6329 73.553 77.1557 84.2055 77.1557 84.2055L82.0172 73.784L80.5122 70.5466L89.8887 57.5804L89.5176 91.068L109.24 98.945L127.28 92.0083L127.948 57.465C127.948 57.465 135.819 68.5753 136.05 71.3549C136.281 74.1345 135.126 75.7553 135.126 75.7553L141.839 85.4758C141.839 85.4758 152.255 74.5964 151.562 69.5032C150.869 64.4099 129.341 38.4777 127.28 37.3394C125.218 36.2012 119.313 34.1598 119.313 34.1598L97.4551 34.4938Z" fill="#68E1FD"/>
<path d="M86.0145 89.9378C84.3345 90.1205 82.6699 90.4237 81.0334 90.8451C80.4726 90.9895 79.8335 91.2204 79.6562 91.773C79.4129 92.5236 80.2046 93.1917 80.9262 93.5134C85.4001 95.5053 90.6368 93.8516 95.4776 94.6269C99.6257 95.295 103.275 97.7117 107.295 98.9448C107.486 99.0173 107.689 99.0537 107.893 99.0521C108.345 99.0601 108.797 99.0242 109.241 98.9448C111.163 98.2809 112.779 97.4932 114.89 97.254L122.832 96.359C126.151 95.9837 128.877 94.3753 132.18 93.8846C133.586 93.6742 135.066 93.8062 136.373 93.2206C136.852 93.002 137.338 92.4453 137.033 92.0205C136.903 91.8734 136.73 91.771 136.538 91.7277C135.107 91.2617 133.574 91.2947 132.073 91.3153C116.746 91.5875 101.259 88.2882 86.0145 89.9378Z" fill="#68E1FD"/>
<path d="M86.0145 89.9378C84.3345 90.1205 82.6699 90.4237 81.0334 90.8451C80.4726 90.9895 79.8335 91.2204 79.6562 91.773C79.4129 92.5236 80.2046 93.1917 80.9262 93.5134C85.4001 95.5053 90.6368 93.8516 95.4776 94.6269C99.6257 95.295 103.275 97.7117 107.295 98.9448C107.486 99.0173 107.689 99.0537 107.893 99.0521C108.345 99.0601 108.797 99.0242 109.241 98.9448C111.163 98.2809 112.779 97.4932 114.89 97.254L122.832 96.359C126.151 95.9837 128.877 94.3753 132.18 93.8846C133.586 93.6742 135.066 93.8062 136.373 93.2206C136.852 93.002 137.338 92.4453 137.033 92.0205C136.903 91.8734 136.73 91.771 136.538 91.7277C135.107 91.2617 133.574 91.2947 132.073 91.3153C116.746 91.5875 101.259 88.2882 86.0145 89.9378Z" fill="url(#paint8_linear)"/>
<path d="M127.733 51.6212L128.121 57.2918L135.131 68.1753C135.73 69.1072 136.093 70.1717 136.186 71.276C136.279 72.3802 136.101 73.4905 135.667 74.5099L135.135 75.7471L138.751 78.8526L142.351 70.9013L127.733 51.6212Z" fill="url(#paint9_linear)"/>
<path d="M90.4182 79.4872C91.132 79.7364 91.8078 80.0834 92.4263 80.5182C93.9932 81.7183 94.5086 83.8422 94.6364 85.8135C94.6872 86.1767 94.6402 86.5468 94.5004 86.8858C94.3353 87.138 94.1043 87.3402 93.8324 87.4703C93.5605 87.6005 93.2582 87.6536 92.9582 87.624C91.5068 87.624 90.212 86.6425 88.7647 86.5022C88.0225 86.428 87.2638 86.5765 86.534 86.428C84.8186 86.0775 83.862 84.3124 82.8229 82.9143C81.8635 81.6525 80.6692 80.5882 79.3057 79.78C76.6461 78.2087 78.0687 75.194 80.955 75.7796C84.1465 76.4353 87.3793 78.2541 90.4182 79.4872Z" fill="url(#paint10_linear)"/>
<path d="M127.358 78.6418C126.69 78.7586 126.046 78.9872 125.453 79.3181C124.604 79.8584 124.08 80.778 123.391 81.4956C122.806 82.0854 122.055 82.6009 121.845 83.4051C121.736 83.9004 121.799 84.4181 122.022 84.8733C122.37 85.5922 122.953 86.1706 123.674 86.5127C124.396 86.8547 125.213 86.9398 125.989 86.7538C126.624 86.5806 127.197 86.226 127.828 86.0486C129.787 85.4919 132.083 86.6425 133.828 85.5991C134.379 85.2102 134.869 84.7419 135.283 84.2093C136.221 83.1689 137.314 82.28 138.524 81.574C138.83 81.432 139.099 81.2201 139.308 80.9554C139.72 80.3038 139.271 79.4542 138.776 78.8603C137.328 77.1282 136.496 76.522 134.314 77.021C131.98 77.5489 129.671 78.1015 127.358 78.6418Z" fill="url(#paint11_linear)"/>
<path d="M81.6271 111C77.7387 111.388 73.8421 109.948 69.9497 110.315C68.5462 110.466 67.1683 110.798 65.851 111.305C65.2112 111.501 64.6207 111.831 64.1192 112.274C63.2533 113.128 63.0842 114.485 63.2945 115.681C63.7069 118.015 65.4222 120.007 67.5416 121.067C68.8512 121.738 70.3219 122.031 71.7887 121.912C72.4855 121.828 73.1748 121.69 73.8504 121.5C75.3714 121.181 76.8515 120.692 78.2624 120.04C79.153 119.586 79.9736 119.009 80.8684 118.572C82.1384 117.953 83.5362 117.636 84.7856 116.98C84.8827 116.938 84.9709 116.878 85.0454 116.803C85.1225 116.706 85.1799 116.595 85.2144 116.477C85.836 114.726 86.1391 112.878 86.1092 111.021C86.1092 110.757 86.1958 110.196 85.9236 110.051C85.7133 109.944 84.8062 110.357 84.5629 110.423C83.6017 110.695 82.6198 110.888 81.6271 111Z" fill="url(#paint12_linear)"/>
<path d="M135.813 116.435C137.685 116.909 139.384 117.907 141.239 118.431C142.833 118.84 144.476 119.03 146.121 118.996C148.595 118.996 151.197 118.806 153.341 117.548C153.687 117.366 153.989 117.111 154.228 116.802C154.78 116.014 154.537 114.925 154.17 114.035C153.535 112.472 152.492 110.95 150.921 110.323C149.065 109.601 146.999 110.323 145.07 110.789C140.32 111.981 135.326 111.799 130.522 112.748C130.266 112.743 130.017 112.836 129.827 113.009C129.637 113.181 129.52 113.42 129.5 113.676C129.364 114.253 129.009 115.206 129.228 115.8C129.479 116.492 130.164 116.245 130.766 116.212C132.449 116.005 134.154 116.081 135.813 116.435Z" fill="url(#paint13_linear)"/>
<path d="M139.712 114.241C139.543 114.575 139.344 114.894 139.118 115.194C138.777 115.684 138.63 116.284 138.706 116.876C138.802 117.225 138.967 117.551 139.192 117.834C139.416 118.118 139.696 118.353 140.013 118.526C141.819 119.705 144.075 119.924 146.231 119.998C147.387 120.069 148.546 120.018 149.691 119.846C150.507 119.685 151.311 119.47 152.099 119.202C152.898 119.006 153.65 118.654 154.313 118.167C154.819 117.718 155.207 117.152 155.443 116.517C155.762 115.795 155.848 114.99 155.69 114.216C155.513 113.624 155.218 113.073 154.824 112.595C154.419 112.054 153.979 111.54 153.505 111.057C153.159 110.671 152.738 110.36 152.268 110.142C151.703 109.96 151.106 109.897 150.515 109.956C147.126 110.038 143.75 110.393 140.417 111.016C140.157 111.046 139.908 111.143 139.696 111.296C139.263 111.672 139.696 112.171 139.778 112.604C139.925 113.143 139.902 113.715 139.712 114.241Z" fill="#68E1FD"/>
<path d="M79.9441 115.598C80.3317 115.866 80.7688 116.052 81.1399 116.341C81.335 116.473 81.4945 116.651 81.6045 116.86C81.7145 117.068 81.7716 117.301 81.7708 117.537C81.7172 118.106 81.1853 118.497 80.6987 118.774C78.4611 120.127 76.0387 121.148 73.5075 121.805C72.4028 122.137 71.2494 122.276 70.0975 122.217C69.1569 122.105 68.2383 121.854 67.3719 121.471C65.8504 120.844 64.3742 119.999 63.3517 118.712C62.3291 117.425 61.8342 115.631 62.4156 114.093C62.9063 112.79 64.065 111.87 65.1701 111.033C65.734 110.561 66.3703 110.184 67.0544 109.915C67.7248 109.727 68.4203 109.643 69.1161 109.668C70.9428 109.639 72.7653 109.643 74.592 109.643C75.829 109.643 78.2824 109.622 78.5669 111.235C78.6989 111.973 78.3855 112.715 78.5669 113.483C78.7443 114.336 79.2359 115.091 79.9441 115.598Z" fill="#68E1FD"/>
<path d="M139.712 114.241C139.543 114.575 139.344 114.894 139.118 115.194C138.777 115.684 138.63 116.284 138.706 116.876C138.802 117.225 138.967 117.551 139.192 117.834C139.416 118.118 139.696 118.353 140.013 118.526C141.819 119.705 144.075 119.924 146.231 119.998C147.387 120.069 148.546 120.018 149.691 119.846C150.507 119.685 151.311 119.47 152.099 119.202C152.898 119.006 153.65 118.654 154.313 118.167C154.819 117.718 155.207 117.152 155.443 116.517C155.762 115.795 155.848 114.99 155.69 114.216C155.513 113.624 155.218 113.073 154.824 112.595C154.419 112.054 153.979 111.54 153.505 111.057C153.159 110.671 152.738 110.36 152.268 110.142C151.703 109.96 151.106 109.897 150.515 109.956C147.126 110.038 143.75 110.393 140.417 111.016C140.157 111.046 139.908 111.143 139.696 111.296C139.263 111.672 139.696 112.171 139.778 112.604C139.925 113.143 139.902 113.715 139.712 114.241Z" fill="url(#paint14_linear)"/>
<path d="M79.9441 115.598C80.3317 115.866 80.7688 116.052 81.1399 116.341C81.335 116.473 81.4945 116.651 81.6045 116.86C81.7145 117.068 81.7716 117.301 81.7708 117.537C81.7172 118.106 81.1853 118.497 80.6987 118.774C78.4611 120.127 76.0387 121.148 73.5075 121.805C72.4028 122.137 71.2494 122.276 70.0975 122.217C69.1569 122.105 68.2383 121.854 67.3719 121.471C65.8504 120.844 64.3742 119.999 63.3517 118.712C62.3291 117.425 61.8342 115.631 62.4156 114.093C62.9063 112.79 64.065 111.87 65.1701 111.033C65.734 110.561 66.3703 110.184 67.0544 109.915C67.7248 109.727 68.4203 109.643 69.1161 109.668C70.9428 109.639 72.7653 109.643 74.592 109.643C75.829 109.643 78.2824 109.622 78.5669 111.235C78.6989 111.973 78.3855 112.715 78.5669 113.483C78.7443 114.336 79.2359 115.091 79.9441 115.598Z" fill="url(#paint15_linear)"/>
<path d="M100.997 14.2853C100.997 14.2853 100.651 28.8722 108.291 28.0598C115.932 27.2473 116.278 13.8317 116.278 13.8317C116.278 13.8317 113.153 5.9588 106.555 7.11766C99.958 8.27653 100.997 14.2853 100.997 14.2853Z" fill="url(#paint16_linear)"/>
<path d="M104.827 7.9434C105.875 12.3232 110.411 15.573 114.893 15.1647C115.664 15.0904 116.542 14.8347 116.839 14.1213C116.95 13.7938 116.985 13.4456 116.942 13.1026C116.843 10.8666 116.11 8.705 114.827 6.87114C114.181 5.96539 113.354 5.2042 112.397 4.63614C111.441 4.06808 110.377 3.70562 109.272 3.57187C106.073 3.27081 103.087 5.25862 100.914 7.64234C99.5578 9.13938 95.455 15.9606 99.9289 16.1751C101.36 16.2411 102.745 15.2018 103.434 14.0223C104.522 12.1376 103.582 9.70851 104.827 7.9434Z" fill="#3F3D56"/>
<path d="M90.278 51.9104L89.8904 57.581L80.5179 70.543L82.0188 73.7845L80.9303 75.7806L75.6523 71.1987L90.278 51.9104Z" fill="url(#paint17_linear)"/>
<path d="M97.8848 35.7147C98.194 36.5395 99.229 36.7705 100.091 36.9808C101.74 37.3932 103.299 38.218 104.96 38.6305C106.698 39.0088 108.474 39.1777 110.251 39.1336C112.494 39.1707 114.741 39.2078 116.98 39.047C119.982 38.8367 122.988 38.284 125.981 38.5851C126.184 38.4366 125.949 38.1356 125.73 38.0118C124.171 37.1293 122.538 36.3911 120.926 35.6116C119.59 34.96 118.452 35.0384 116.968 35.125C112.906 35.3559 108.836 35.125 104.771 35.1662C102.465 35.1776 100.163 35.3609 97.8848 35.7147Z" fill="url(#paint18_linear)"/>
<path d="M133.724 56.0461H85.7324V92.5277H133.724V56.0461Z" fill="#68E1FD"/>
<path d="M133.939 56.0461H85.9473V58.5989H133.939V56.0461Z" fill="url(#paint19_linear)"/>
<path d="M133.939 58.6481H85.9473V92.2965H133.939V58.6481Z" fill="url(#paint20_linear)"/>
</g>
<defs>
<linearGradient id="paint0_linear" x1="100.4" y1="140.812" x2="105.168" y2="92.6968" gradientUnits="userSpaceOnUse">
<stop stop-color="white" stop-opacity="0"/>
<stop offset="0.76" stop-color="white" stop-opacity="0.76"/>
<stop offset="0.99" stop-color="white"/>
</linearGradient>
<linearGradient id="paint1_linear" x1="29.5764" y1="111.841" x2="27.5553" y2="142.33" gradientUnits="userSpaceOnUse">
<stop stop-opacity="0"/>
<stop offset="0.99"/>
</linearGradient>
<linearGradient id="paint2_linear" x1="16665.1" y1="3694.27" x2="16302.8" y2="8503.69" gradientUnits="userSpaceOnUse">
<stop stop-opacity="0"/>
<stop offset="0.99"/>
</linearGradient>
<linearGradient id="paint3_linear" x1="31126.5" y1="4000.88" x2="31148.5" y2="10530.4" gradientUnits="userSpaceOnUse">
<stop stop-opacity="0"/>
<stop offset="0.99"/>
</linearGradient>
<linearGradient id="paint4_linear" x1="18152" y1="10582.4" x2="19995.6" y2="4004.42" gradientUnits="userSpaceOnUse">
<stop stop-opacity="0"/>
<stop offset="0.99"/>
</linearGradient>
<linearGradient id="paint5_linear" x1="25573.4" y1="10248.2" x2="25278.5" y2="3623.04" gradientUnits="userSpaceOnUse">
<stop stop-opacity="0"/>
<stop offset="0.99"/>
</linearGradient>
<linearGradient id="paint6_linear" x1="97.4563" y1="32.8898" x2="119.335" y2="32.8898" gradientUnits="userSpaceOnUse">
<stop stop-color="#ECC4D7"/>
<stop offset="0.42" stop-color="#EFD4D1"/>
<stop offset="1" stop-color="#F2EAC9"/>
</linearGradient>
<linearGradient id="paint7_linear" x1="1907.55" y1="733.96" x2="2283.39" y2="1462.95" gradientUnits="userSpaceOnUse">
<stop stop-color="#ECC4D7"/>
<stop offset="0.42" stop-color="#EFD4D1"/>
<stop offset="1" stop-color="#F2EAC9"/>
</linearGradient>
<linearGradient id="paint8_linear" x1="13857.7" y1="2202.99" x2="14096.3" y2="4854.37" gradientUnits="userSpaceOnUse">
<stop stop-opacity="0"/>
<stop offset="0.99"/>
</linearGradient>
<linearGradient id="paint9_linear" x1="-73721.7" y1="6155.53" x2="-77814.4" y2="5379.92" gradientUnits="userSpaceOnUse">
<stop stop-opacity="0"/>
<stop offset="0.99"/>
</linearGradient>
<linearGradient id="paint10_linear" x1="3382.74" y1="3098.91" x2="4064.15" y2="3098.91" gradientUnits="userSpaceOnUse">
<stop stop-color="#ECC4D7"/>
<stop offset="0.42" stop-color="#EFD4D1"/>
<stop offset="1" stop-color="#F2EAC9"/>
</linearGradient>
<linearGradient id="paint11_linear" x1="5489.03" y1="2615.71" x2="6247" y2="2615.71" gradientUnits="userSpaceOnUse">
<stop stop-color="#ECC4D7"/>
<stop offset="0.42" stop-color="#EFD4D1"/>
<stop offset="1" stop-color="#F2EAC9"/>
</linearGradient>
<linearGradient id="paint12_linear" x1="3766.06" y1="4118.46" x2="5039.13" y2="4118.46" gradientUnits="userSpaceOnUse">
<stop stop-color="#ECC4D7"/>
<stop offset="0.42" stop-color="#EFD4D1"/>
<stop offset="1" stop-color="#F2EAC9"/>
</linearGradient>
<linearGradient id="paint13_linear" x1="8294.73" y1="3101.93" x2="9858.77" y2="3101.93" gradientUnits="userSpaceOnUse">
<stop stop-color="#ECC4D7"/>
<stop offset="0.42" stop-color="#EFD4D1"/>
<stop offset="1" stop-color="#F2EAC9"/>
</linearGradient>
<linearGradient id="paint14_linear" x1="6024.67" y1="3484.69" x2="6732.83" y2="3484.69" gradientUnits="userSpaceOnUse">
<stop stop-opacity="0"/>
<stop offset="0.99"/>
</linearGradient>
<linearGradient id="paint15_linear" x1="3180.78" y1="4346.76" x2="4112.9" y2="4346.76" gradientUnits="userSpaceOnUse">
<stop stop-opacity="0"/>
<stop offset="0.99"/>
</linearGradient>
<linearGradient id="paint16_linear" x1="3984.03" y1="2073.95" x2="4554.71" y2="2073.95" gradientUnits="userSpaceOnUse">
<stop stop-color="#ECC4D7"/>
<stop offset="0.42" stop-color="#EFD4D1"/>
<stop offset="1" stop-color="#F2EAC9"/>
</linearGradient>
<linearGradient id="paint17_linear" x1="2632.07" y1="4023.67" x2="6684.53" y2="3147.07" gradientUnits="userSpaceOnUse">
<stop stop-opacity="0"/>
<stop offset="0.99"/>
</linearGradient>
<linearGradient id="paint18_linear" x1="7723.67" y1="666.838" x2="7822.03" y2="26.2216" gradientUnits="userSpaceOnUse">
<stop stop-color="white" stop-opacity="0"/>
<stop offset="0.76" stop-color="white" stop-opacity="0.76"/>
<stop offset="0.99" stop-color="white"/>
</linearGradient>
<linearGradient id="paint19_linear" x1="12860.5" y1="438.023" x2="12860.6" y2="376.18" gradientUnits="userSpaceOnUse">
<stop stop-color="white" stop-opacity="0"/>
<stop offset="0.76" stop-color="white" stop-opacity="0.76"/>
<stop offset="0.99" stop-color="white"/>
</linearGradient>
<linearGradient id="paint20_linear" x1="11543.6" y1="8034.67" x2="13211.9" y2="3425.96" gradientUnits="userSpaceOnUse">
<stop stop-color="white" stop-opacity="0"/>
<stop offset="0.76" stop-color="white" stop-opacity="0.76"/>
<stop offset="0.99" stop-color="white"/>
</linearGradient>
<clipPath id="clip0">
<rect width="206" height="159" fill="white"/>
</clipPath>
</defs>
</svg>
