<svg width="240" height="237" viewBox="0 0 240 237" fill="none" xmlns="http://www.w3.org/2000/svg">
<path d="M82.4989 176.038C86.7018 171.173 86.222 163.758 81.4272 159.466C76.6325 155.175 69.3464 155.64 65.1435 160.505C65.1435 160.505 46.0295 180.327 46.2512 200.183C65.6333 197.863 82.4989 176.038 82.4989 176.038Z" fill="#FEA734"/>
<path d="M84.7138 93.4509C84.7138 93.4509 38.4156 80.3243 10.6074 138.953C10.6074 138.953 37.9353 121.436 65.2841 135.041L84.7138 93.4509Z" fill="#3F90F7"/>
<path d="M145.621 147.979C145.621 147.979 164.322 193.041 110.753 228.611C110.753 228.611 124.334 198.779 107.578 172.917L145.621 147.979Z" fill="#3F90F7"/>
<path d="M88.4959 173.242L66.4095 153.464C65.5392 152.683 65.3138 151.393 65.8614 150.365L69.3389 143.855C70.0988 142.435 71.9611 142.105 73.1548 143.17L97.6662 165.117C98.8607 166.19 98.776 168.114 97.4883 169.061L91.5858 173.401C90.6495 174.082 89.3654 174.014 88.4959 173.242Z" fill="#FE7235"/>
<path d="M93.7835 79.0135C93.7835 79.0135 69.8838 113.638 63.0716 143.034C63.0716 143.034 86.7374 149.802 99.4401 175.591C99.4401 175.591 126.05 169.464 160.668 134.451C180.62 114.277 200.071 88.2767 211.298 60.9173L162.415 17.1576C141.058 28.507 116.488 47.4347 93.7835 79.0135Z" fill="white"/>
<path d="M211.873 0.72752C202.075 1.97084 183.869 5.73866 162.415 17.1487L211.298 60.9084C218.485 43.4035 222.299 25.3396 220.697 7.88697C220.281 3.39727 216.262 0.164197 211.873 0.72752Z" fill="#3F90F7"/>
<path d="M126.613 105.685C126.613 105.685 81.749 126.832 61.2287 181.37C61.2203 181.371 107.519 161.987 126.613 105.685Z" fill="#3F90F7"/>
<path d="M174.636 91.7931C183.769 81.2238 182.729 65.0962 172.313 55.771C161.897 46.4458 146.049 47.4542 136.917 58.0235C127.784 68.5928 128.824 84.7205 139.24 94.0457C149.656 103.371 165.504 102.362 174.636 91.7931Z" fill="#3F90F7"/>
<path d="M165.804 89.3641C173.631 83.7 175.444 72.638 169.852 64.6565C164.261 56.6749 153.384 54.7962 145.557 60.4603C137.73 66.1244 135.917 77.1864 141.508 85.168C147.099 93.1496 157.977 95.0282 165.804 89.3641Z" fill="#132135"/>
</svg>
