<svg width="219" height="118" viewBox="0 0 219 118" fill="none" xmlns="http://www.w3.org/2000/svg">
<g clip-path="url(#clip0)">
<path opacity="0.18" d="M200.159 98.8328C198.746 100.955 197.061 102.883 195.146 104.567C192.687 106.737 189.963 108.587 187.038 110.073C183.61 111.828 180.016 113.242 176.31 114.292C173.385 115.138 170.414 115.821 167.413 116.338C150.022 119.382 129.172 118.02 110.886 113.595C108.495 113.021 106.17 112.395 103.893 111.717C99.7212 110.503 95.6203 109.056 91.6104 107.382C77.2449 101.302 61.4912 99.253 46.0464 101.456C44.7071 101.648 43.4316 101.858 42.2199 102.087C39.6227 102.565 37.3411 103.134 35.4183 103.669C33.0401 104.305 30.7084 105.103 28.4397 106.058C12.665 101.461 -3.3441 76.267 0.606759 49.5578C5.82515 14.1941 40.9524 0.899308 69.8998 10.7581C98.8473 20.6169 112.666 -5.01216 177.137 0.899309C241.609 6.81078 216.608 73.8584 200.159 98.8328Z" fill="#68E1FD"/>
<path d="M55.1398 100.648C52.0982 100.755 49.0646 101.025 46.0518 101.455C43.8612 96.2751 41.7885 91.0502 39.8338 85.7807C39.2885 84.3184 38.7544 82.8544 38.2314 81.3889C38.6715 81.1213 39.1498 80.825 39.6664 80.5287C41.7088 79.334 44.1816 78.1154 46.3962 78.5025C49.0126 78.9804 49.4335 81.6804 50.0888 83.8548L55.1398 100.648Z" fill="#68E1FD"/>
<path d="M55.1721 100.505C52.1305 100.608 49.0968 100.876 46.0842 101.308C43.8967 96.1305 41.824 90.9056 39.8661 85.6329C39.3208 84.1738 38.7883 82.7114 38.2686 81.2459C38.7086 80.9735 39.1869 80.682 39.7035 80.3857C41.7411 79.191 44.214 77.9963 46.4333 78.3547C49.0497 78.8326 49.4706 81.5374 50.1259 83.7118C51.8032 89.2967 53.4853 94.8944 55.1721 100.505Z" fill="url(#paint0_linear)"/>
<path d="M42.2345 102.086C39.6372 102.564 37.3557 103.133 35.4329 103.668C35.1745 103.308 34.9519 102.924 34.768 102.521C31.8261 96.6205 29.8527 90.2858 28.9231 83.7593C28.6695 81.8478 28.4017 78.536 30.3245 77.2505C32.2473 75.965 35.4711 77.3509 36.9778 78.6842C37.4188 79.052 37.7691 79.5164 38.0014 80.0414C38.2693 80.6961 41.4022 79.0856 41.3783 79.7833V80.4189C41.3496 82.0819 41.4118 83.8453 41.5553 85.6757C41.9427 91.0662 41.2635 97.0207 42.2345 102.086Z" fill="#68E1FD"/>
<path d="M42.1257 102.029C39.5285 102.507 37.2469 103.076 35.3241 103.616C35.0685 103.253 34.846 102.867 34.6593 102.464C31.7189 96.5651 29.747 90.2319 28.8191 83.7072C28.5608 81.7957 28.2929 78.4791 30.2157 77.1936C32.1386 75.9081 35.3624 77.2987 36.8691 78.6273C37.3089 78.9943 37.6589 79.4569 37.8927 79.9797C38.1605 80.6392 41.2935 79.0239 41.2695 79.7216V80.362C41.2408 82.0203 41.3078 83.7884 41.4465 85.6188C41.834 91.0141 41.1547 96.9638 42.1257 102.029Z" fill="url(#paint1_linear)"/>
<path d="M195.146 104.586C192.687 106.756 189.963 108.605 187.038 110.091C186.526 102.421 184.03 93.709 183.274 87.4344C181.174 93.5418 180.404 96.6863 179.031 102.999C178.979 103.257 177.534 109.408 176.31 114.311C173.384 115.156 170.414 115.839 167.413 116.356C168.465 111.214 170.159 103.821 170.221 103.453C171.174 97.9686 171.841 92.4384 172.22 86.8848C172.383 84.5862 171.704 80.5289 172.598 78.4549C173.416 76.5672 175.984 77.4465 177.773 77.0977C181.914 76.3158 186.146 76.1355 190.339 76.5624C191.238 76.6484 192.252 76.8253 192.764 77.5612C193.066 78.0641 193.231 78.6376 193.242 79.2243C193.959 87.0712 194.68 94.9181 195.404 102.765C195.502 103.384 195.412 104.018 195.146 104.586Z" fill="#3E3E54"/>
<path d="M192.536 62.4268C192.158 65.8437 191.981 69.3227 192.277 70.4935C192.915 73.0423 193.553 75.5782 194.191 78.1015C191.134 79.884 174.814 80.3523 171.289 78.0728C171.165 77.9916 171.016 77.8673 171.059 77.7192C171.102 77.571 171.289 77.6571 171.303 77.7192C172.217 75.626 174.369 66.6513 175.398 60.8736C175.876 58.3361 176.091 56.4245 175.914 55.9753C175.737 55.5261 175.546 55.0195 175.359 54.5751L173.236 49.1797C172.982 48.5394 172.815 48.1284 172.169 48.3578C172.791 46.1595 173.747 43.9708 175.45 42.4415C178.124 40.0521 182.075 39.751 185.643 40.1429C187.253 40.2719 188.832 40.6558 190.321 41.2803C191.82 41.9138 193.063 43.031 193.851 44.4534C194.159 45.0853 194.381 45.7555 194.511 46.4462C194.955 48.736 194.888 51.0955 194.315 53.3565C194.162 53.9921 193.98 54.6277 193.77 55.268C193.334 56.5727 192.861 59.4734 192.536 62.4268Z" fill="#68E1FD"/>
<path d="M186.963 40.8405C186.867 40.7465 186.748 40.6789 186.618 40.6446C185.7 40.3244 183.992 39.8274 183.031 40.2049C182.07 40.5824 182.38 41.8871 182.873 42.4988C183.103 42.8258 183.452 43.0502 183.845 43.1242C184.238 43.1983 184.644 43.1162 184.978 42.8954C185.394 42.6278 187.513 41.4761 186.963 40.8405Z" fill="url(#paint2_linear)"/>
<path d="M179.123 50.0343C179.338 50.6413 179.453 51.339 179.951 51.7595C180.158 51.9201 180.391 52.0445 180.639 52.1275C183.088 53.045 185.796 52.7392 188.407 52.8587C188.943 52.8598 189.475 52.9519 189.981 53.131C190.124 53.1932 190.292 53.3079 190.273 53.4656C190.253 53.6233 190.043 53.7045 189.871 53.7284L184.265 54.5934C183.141 54.7702 182.017 54.9422 180.879 55.033C180.022 55.1536 179.148 55.0633 178.334 54.7702C178.187 54.7094 178.052 54.6219 177.937 54.5121C177.842 54.4028 177.763 54.2805 177.703 54.149C177.023 53.0354 176.713 51.7358 176.818 50.4358V48.7393C176.818 48.4764 176.818 47.8934 177.105 47.7835C177.392 47.6736 177.769 48.0941 177.956 48.2614C178.475 48.7559 178.874 49.3623 179.123 50.0343Z" fill="url(#paint3_linear)"/>
<path d="M192.611 56.7254C192.719 56.7783 192.821 56.8407 192.918 56.9118C193.066 57.0121 193.243 57.079 193.295 57.2319C193.348 57.3849 193.181 57.8389 193.147 58.0157C193.061 58.5175 192.98 59.0145 192.903 59.5162C192.87 59.76 192.544 62.4457 192.535 62.4457C191.755 62.417 192.454 67.0525 191.683 66.9378C187.149 66.2592 181.041 62.159 176.478 61.6811C176.208 61.6795 175.946 61.5944 175.727 61.4374C175.579 61.2818 175.469 61.0935 175.406 60.8878C175.292 60.5819 175.612 59.7265 175.665 59.3968C175.765 58.7564 175.751 58.6943 176.349 58.441C177.298 57.9174 178.287 57.4669 179.305 57.0934C180.361 56.8603 181.443 56.7607 182.524 56.7971C184.997 56.7302 187.785 58.1877 190.268 58.0157C191.167 57.9392 191.817 56.3144 192.611 56.7254Z" fill="url(#paint4_linear)"/>
<path d="M184.934 40.3721C185.012 41.2119 184.856 42.0568 184.485 42.8141C184.193 43.2522 183.805 43.6182 183.351 43.8845C182.662 44.329 181.83 44.6778 181.041 44.4532C180.939 44.4279 180.847 44.3749 180.773 44.3003C180.706 44.2078 180.667 44.0986 180.658 43.9849C180.558 42.8933 180.655 41.7925 180.945 40.7353L181.51 38.0734C181.715 37.0938 182.041 35.9755 182.945 35.5932C183.482 35.3783 184.081 35.3783 184.619 35.5932C185.059 35.8656 184.92 36.2192 184.92 36.764C184.933 37.9651 184.938 39.1678 184.934 40.3721Z" fill="url(#paint5_linear)"/>
<path d="M111.417 14.5138L110.91 113.618C108.518 113.045 106.194 112.419 103.917 111.74L104.395 14.4708L111.417 14.5138Z" fill="#68E1FD"/>
<path d="M108.069 14.6285L107.189 112.529C104.798 111.955 106.18 112.419 103.903 111.74L104.382 14.4708L108.069 14.6285Z" fill="url(#paint6_linear)"/>
<path d="M58.3009 21.17L163.965 21.17V18.4365L58.3009 18.4365V21.17Z" fill="#3E3E54"/>
<path d="M158.541 87.5486H56.2686L59.6072 20.8498H161.875L158.541 87.5486Z" fill="#68E1FD"/>
<path d="M60.8554 67.8077C62.0369 67.3824 62.9744 66.484 63.8545 65.5856C66.246 63.1531 68.4654 60.563 70.6991 57.9824C71.6127 56.931 72.7032 55.7936 74.0951 55.7793C74.7504 55.7793 75.3961 56.0183 76.0514 55.9609C77.1707 55.8605 78.3665 54.9096 79.2705 55.569C79.7488 55.9036 80.2271 56.6061 80.6432 56.2524C80.3116 55.4723 80.1565 54.6287 80.1888 53.7817C80.2893 52.9454 80.8824 52.0996 81.7194 51.9992C79.3044 51.3561 76.7722 51.2865 74.3254 51.796C71.8787 52.3055 69.5852 53.3799 67.6283 54.9334C67.1818 55.3548 66.6634 55.693 66.0977 55.9322C65.7722 55.9997 65.4523 56.0923 65.1411 56.2094C64.8138 56.3962 64.5314 56.6523 64.3136 56.9597L59.5879 62.6657C58.7987 63.6214 57.1007 65.533 57.5073 66.8997C57.8995 68.1948 59.7984 68.1948 60.8554 67.8077Z" fill="url(#paint7_linear)"/>
<path d="M69.5946 57.0552L67.1169 58.9189L57.9238 65.8339C57.7892 65.9523 57.6229 66.0287 57.4454 66.0538C57.2371 66.0382 57.0408 65.9503 56.8906 65.8053C53.1024 62.699 49.8498 58.9954 46.6212 55.2917C46.0172 54.6853 45.5307 53.9724 45.1863 53.189C45.1234 53.0203 45.0769 52.8458 45.0476 52.6681C44.8691 51.6092 45.0599 50.5211 45.5881 49.5858C46.0425 48.7256 47.2478 46.8284 48.1997 46.4795C49.4576 46.0016 50.4717 48.1664 51.0695 48.998C53.0976 51.6933 55.2261 54.3073 57.455 56.8401C57.7324 57.1507 58.0768 57.49 58.4882 57.447C58.7364 57.3944 58.965 57.2736 59.1482 57.0982L65.3998 52.0947C66.806 53.7514 68.2043 55.4049 69.5946 57.0552Z" fill="#68E1FD"/>
<path d="M67.1172 58.9185L57.924 65.8336C57.7895 65.9519 57.6232 66.0283 57.4457 66.0534C57.2374 66.0378 57.0411 65.9499 56.8909 65.8049C53.1026 62.6986 49.8501 58.995 46.6215 55.2914C46.0174 54.6849 45.5309 53.972 45.1866 53.1887C45.1236 53.0199 45.0772 52.8455 45.0479 52.6678C45.617 51.7359 46.5306 50.4838 47.2864 50.2019C48.5491 49.724 49.5583 51.8936 50.1562 52.7203C52.1811 55.4188 54.3112 58.0328 56.5465 60.5625C56.8191 60.8731 57.1635 61.2124 57.5748 61.1694C57.8231 61.1196 58.052 61.0002 58.2349 60.8253L64.4817 55.8218C65.3857 56.8493 66.2466 57.8815 67.1172 58.9185Z" fill="url(#paint8_linear)"/>
<path d="M45.0815 31.9903C45.8133 31.1635 46.5834 30.246 46.6647 29.1229C46.651 28.1658 46.342 27.2362 45.7798 26.4611C45.5746 26.0905 45.3095 25.7563 44.9954 25.4719C44.5669 25.157 44.0786 24.9326 43.5605 24.8124C41.8884 24.2502 40.1001 24.1252 38.366 24.4492C36.6584 24.8506 35.0561 26.031 34.5395 27.7084C33.4824 26.8816 31.9231 27.1493 30.713 27.7705C28.4649 28.9461 26.81 31.5124 27.3648 33.983C27.7283 35.6987 29.0102 37.0511 30.2347 38.284C29.1338 38.542 28.1325 39.1161 27.354 39.9355C26.5756 40.7548 26.0539 41.7838 25.8534 42.8956C25.686 44.0138 25.8193 45.1563 26.2396 46.206C26.6598 47.2557 27.3519 48.1749 28.2449 48.8692C29.761 49.9614 31.5846 50.5453 33.4537 50.5371C35.3031 50.5208 37.1454 50.3077 38.9495 49.9015C40.8293 49.5526 42.776 49.1608 44.2971 47.9899C45.4784 47.0279 46.3172 45.7105 46.6886 44.2337C47.0447 42.7633 47.0886 41.2348 46.8178 39.7464C46.7697 39.1933 46.5602 38.6666 46.2151 38.2315C45.9474 37.9704 45.6347 37.7599 45.292 37.6102L43.4074 36.6544C42.8173 36.4386 42.326 36.0157 42.0251 35.4645C41.6711 34.5517 42.446 33.5912 43.2735 33.0751C44.101 32.5589 45.0911 32.1814 45.5933 31.3451" fill="#3E3E54"/>
<path d="M51.045 77.3513C51.0833 77.4947 50.9398 77.6237 50.8106 77.7049C47.2793 79.9827 43.5063 81.8628 39.5607 83.3105C39.1613 83.4844 38.7288 83.5692 38.2932 83.559C37.8581 83.4907 37.4433 83.3275 37.0783 83.0812L34.1558 81.3751C32.0704 80.1644 29.9977 78.9522 27.9377 77.7384C28.5739 75.2008 29.2196 72.6632 29.851 70.1256C30.4058 67.9465 30.9846 65.6956 32.3286 63.8844C32.4788 63.7285 32.5715 63.5263 32.5917 63.3109C32.5771 63.1361 32.5104 62.9697 32.4004 62.8331C30.739 60.3548 29.3805 57.6867 28.3539 54.8858C27.3249 52.0704 27.0657 49.0319 27.6029 46.0831C27.7311 45.3906 27.9566 44.7198 28.2726 44.0903C29.7888 41.2803 33.8162 42.1788 35.4185 42.0067C38.9915 41.6196 46.0466 42.6089 48.7204 45.0031C50.4232 46.5323 49.3326 45.8011 49.9544 47.9994C49.3087 47.77 49.1413 48.181 48.8878 48.8214C47.9918 51.0802 47.0989 53.3454 46.2093 55.617C45.569 57.0661 45.0879 58.5803 44.7743 60.133C44.2577 63.2536 45.1139 66.4937 46.6876 69.2129C48.1897 71.8504 49.5578 74.5618 50.7867 77.3369C50.8106 77.2748 51.0115 77.2318 51.045 77.3513Z" fill="#68E1FD"/>
<path d="M34.2713 81.1935C34.3479 81.3082 34.3 81.3608 34.1565 81.3703C32.0711 80.1597 29.9984 78.9474 27.9385 77.7336C28.5746 75.196 29.2204 72.6584 29.8517 70.1209C30.4066 67.9417 30.9853 65.6908 32.3294 63.8796C32.4795 63.7237 32.5722 63.5216 32.5925 63.3062C32.5778 63.1314 32.5112 62.965 32.4011 62.8283C30.7397 60.35 29.3812 57.6819 28.3546 54.881L31.5402 54.3362L35.9263 63.2106C35.9263 63.2106 33.4965 80.0991 34.2713 81.1935Z" fill="url(#paint9_linear)"/>
<path d="M40.8292 38.088C40.8014 38.1124 40.7793 38.1425 40.7644 38.1764C40.7495 38.2102 40.7422 38.2469 40.7431 38.2839C40.6829 39.11 40.8665 39.9355 41.2711 40.6584C41.6758 41.3812 42.2838 41.9696 43.0198 42.3507C43.4168 42.5514 43.8904 42.7282 44.0578 43.1392C44.1208 43.3218 44.1436 43.5157 44.1247 43.7079C44.1247 44.0472 44.0626 44.3865 44.0147 44.721C43.7995 46.2407 43.5364 47.8751 42.4459 48.9599C42.1679 49.2196 41.8705 49.4577 41.5562 49.672C41.1638 49.9834 40.7134 50.214 40.2313 50.3506C39.4277 50.5226 38.6146 50.169 37.8732 49.8249C37.5755 49.7007 37.2944 49.5401 37.0361 49.347C36.7477 49.0934 36.5064 48.7909 36.3235 48.4533C35.3627 46.7563 34.9345 44.81 35.0942 42.8668C35.0965 42.7277 35.1291 42.5907 35.1899 42.4654C35.3334 42.2217 35.6395 42.1452 35.8882 41.9875C36.1132 41.8409 36.306 41.65 36.4548 41.4265C36.6037 41.2031 36.7054 40.9517 36.7539 40.6877C36.8879 40.1668 36.9118 39.6268 37.0361 39.1059C37.1421 38.6687 37.3164 38.251 37.5527 37.8681C37.6406 37.7104 37.7633 37.5748 37.9115 37.4715C38.1095 37.3705 38.3303 37.3228 38.5524 37.3329C38.934 37.3232 39.3158 37.3376 39.6956 37.3759C39.8222 37.3753 39.9464 37.4101 40.0543 37.4763C40.1068 37.5098 40.1454 37.5612 40.163 37.6209C40.1805 37.6806 40.1759 37.7446 40.15 37.8012" fill="url(#paint10_linear)"/>
<path d="M37.9102 37.4711C37.9102 37.4711 38.8142 40.9071 40.1056 41.1556C41.397 41.4041 40.7896 39.072 40.7896 39.072L37.9102 37.4711Z" fill="url(#paint11_linear)"/>
<path d="M27.8199 48.1237C26.3945 51.7206 25.0839 55.3541 23.8882 59.0243C21.2266 57.1999 18.7414 55.1312 16.4648 52.8452C16.3223 52.6657 16.1235 52.5394 15.9003 52.4868C15.7131 52.4816 15.5285 52.5315 15.3694 52.6302C14.2402 53.1808 13.1629 53.8317 12.1504 54.5752C11.9864 54.6667 11.8633 54.817 11.806 54.9957C11.7997 55.1021 11.8161 55.2087 11.854 55.3084C11.8919 55.408 11.9506 55.4985 12.026 55.5739C14.5754 58.9192 17.8566 61.6192 21.1139 64.2906C22.0036 65.0218 23.1181 65.8007 24.2134 65.4375C24.6095 65.2731 24.9725 65.0383 25.2848 64.7446L32.2395 58.9C32.4102 58.7782 32.5456 58.6133 32.6317 58.4222C32.688 58.1794 32.6593 57.9247 32.5504 57.7005C31.479 54.6899 30.6371 49.6481 27.8247 48.1428" fill="#68E1FD"/>
<path d="M27.8199 48.1237C26.3945 51.7206 25.0839 55.3541 23.8882 59.0243C21.2266 57.1999 18.7414 55.1312 16.4648 52.8452C16.3223 52.6657 16.1235 52.5394 15.9003 52.4868C15.7131 52.4816 15.5285 52.5315 15.3694 52.6302C14.2402 53.1808 13.1629 53.8317 12.1504 54.5752C11.9864 54.6667 11.8633 54.817 11.806 54.9957C11.7997 55.1021 11.8161 55.2087 11.854 55.3084C11.8919 55.408 11.9506 55.4985 12.026 55.5739C14.5754 58.9192 17.8566 61.6192 21.1139 64.2906C22.0036 65.0218 23.1181 65.8007 24.2134 65.4375C24.6095 65.2731 24.9725 65.0383 25.2848 64.7446L32.2395 58.9C32.4102 58.7782 32.5456 58.6133 32.6317 58.4222C32.688 58.1794 32.6593 57.9247 32.5504 57.7005C31.479 54.6899 30.6371 49.6481 27.8247 48.1428" fill="url(#paint12_linear)"/>
<path d="M68.8482 51.0145C69.2271 50.7275 69.642 50.4913 70.0822 50.312C70.41 50.1962 70.7479 50.1115 71.0915 50.0587L75.0949 49.2941C75.2237 49.2507 75.3632 49.2507 75.4919 49.2941C75.5949 49.3618 75.6815 49.4516 75.7454 49.5569C76.1903 50.1304 77.0082 50.2259 77.7352 50.2403C78.7222 50.261 79.7095 50.2195 80.6912 50.116C81.0325 50.0552 81.3829 50.0666 81.7196 50.1495C81.8886 50.1928 82.0385 50.2909 82.1458 50.4284C82.2531 50.5658 82.3118 50.735 82.3127 50.9093C82.2756 51.0616 82.2082 51.2047 82.1145 51.3304C82.0208 51.456 81.9028 51.5615 81.7674 51.6405L80.7055 52.4672C80.3686 52.7461 80.0049 52.991 79.6198 53.1984C79.1264 53.427 78.6003 53.577 78.0605 53.6428C76.2479 53.9244 74.3958 53.8103 72.6316 53.3083C72.2228 53.1271 71.7591 53.1134 71.3402 53.2701C70.9288 53.509 70.8284 54.049 70.5988 54.4696C70.2136 55.0421 69.6817 55.5009 69.0586 55.7981C68.389 56.1948 67.6237 56.6105 66.868 56.3907C65.9974 56.1326 64.6964 54.7229 65.2704 53.8101C65.9783 52.7014 67.7768 51.7552 68.8482 51.0145Z" fill="url(#paint13_linear)"/>
<path d="M74.6158 47.2157C74.5617 47.1865 74.4999 47.1748 74.4388 47.1823C74.3241 47.2157 74.2858 47.3591 74.2954 47.4785C74.3505 47.8394 74.5178 48.1738 74.7737 48.4343L78.1219 52.5012C79.3081 53.9348 80.5421 55.421 82.2114 56.2669C81.5531 55.1746 80.782 54.1543 79.9107 53.2228C79.6715 52.9909 79.4552 52.7364 79.265 52.4629C78.9446 51.985 78.7867 51.359 78.361 50.9385C77.9166 50.5502 77.4995 50.1319 77.1126 49.6864C76.3999 48.7593 75.7351 47.6793 74.6158 47.2157Z" fill="#3E3E54"/>
<path d="M22.3857 45.38C22.2777 45.1447 22.1135 44.9395 21.9074 44.7826C21.6019 44.6335 21.2569 44.5849 20.9221 44.6441C17.4244 44.9015 13.9598 45.4952 10.5762 46.417C12.7608 53.586 15.9012 60.4287 19.9128 66.7607C23.3949 65.5245 26.8499 64.2135 30.2779 62.8277C29.9239 60.7584 25.2173 50.8805 24.6146 49.6236C23.9259 48.1836 23.1829 46.7691 22.3857 45.38Z" fill="white"/>
<path d="M22.3857 45.38C22.2777 45.1447 22.1135 44.9395 21.9074 44.7826C21.6019 44.6335 21.2569 44.5849 20.9221 44.6441C17.4244 44.9015 13.9598 45.4952 10.5762 46.417C12.7608 53.586 15.9012 60.4287 19.9128 66.7607C23.3949 65.5245 26.8499 64.2135 30.2779 62.8277C29.9239 60.7584 25.2173 50.8805 24.6146 49.6236C23.9259 48.1836 23.1829 46.7691 22.3857 45.38Z" fill="url(#paint14_linear)"/>
<path d="M54.7667 89.7812L160.431 89.7812V87.0477L54.7667 87.0477V89.7812Z" fill="#3E3E54"/>
<path d="M71.5788 69.2124L150.055 69.2124C151.345 69.2124 152.39 68.1694 152.39 66.8827C152.39 65.5961 151.345 64.553 150.055 64.553L71.5788 64.553C70.2897 64.553 69.2447 65.5961 69.2447 66.8827C69.2447 68.1694 70.2897 69.2124 71.5788 69.2124Z" fill="url(#paint15_linear)"/>
<path d="M71.5788 76.4424L150.055 76.4424C151.345 76.4424 152.39 75.3994 152.39 74.1127C152.39 72.8261 151.345 71.783 150.055 71.783L71.5788 71.783C70.2897 71.783 69.2447 72.8261 69.2447 74.1127C69.2447 75.3994 70.2897 76.4424 71.5788 76.4424Z" fill="url(#paint16_linear)"/>
<path d="M93.782 59.1148C100.774 59.1148 106.443 53.4514 106.443 46.4651C106.443 39.4789 100.774 33.8154 93.782 33.8154C86.7896 33.8154 81.1211 39.4789 81.1211 46.4651C81.1211 53.4514 86.7896 59.1148 93.782 59.1148Z" fill="url(#paint17_linear)"/>
<path d="M90.8517 41.8294L84.2892 31.3971C82.4477 31.3637 71.2504 31.1391 70.8965 31.1391V30.1833C71.2935 30.1833 84.0214 30.4318 84.5619 30.4461H84.8154L91.6505 41.2846L90.8517 41.8294Z" fill="white"/>
<path d="M120.397 52.8066H108.472L98.5283 48.0373L98.9349 47.1914L108.688 51.8651H120.397V52.8066Z" fill="white"/>
<path d="M127.289 33.5765H150.138C151.044 33.5765 151.778 32.8426 151.778 31.9373C151.778 31.0321 151.044 30.2982 150.138 30.2982L127.289 30.2982C126.383 30.2982 125.648 31.0321 125.648 31.9373C125.648 32.8426 126.383 33.5765 127.289 33.5765Z" fill="url(#paint18_linear)"/>
<path d="M127.289 39.741H150.138C151.044 39.741 151.778 39.0072 151.778 38.1019C151.778 37.1966 151.044 36.4627 150.138 36.4627H127.289C126.383 36.4627 125.648 37.1966 125.648 38.1019C125.648 39.0072 126.383 39.741 127.289 39.741Z" fill="url(#paint19_linear)"/>
<path d="M41.7088 62.8427C41.0791 61.7655 40.5568 60.629 40.1495 59.4497L38.0019 53.8584C37.1601 51.6649 36.3183 49.4714 35.6104 47.2206C35.9691 48.3579 39.7382 47.9947 40.4844 47.8227C41.693 47.457 42.8466 46.9298 43.9139 46.2552C44.0478 50.5944 42.1154 58.513 41.7088 62.8427Z" fill="white"/>
<path d="M177.649 36.3386C177.81 37.2588 178.157 38.1367 178.668 38.9192C178.92 39.3002 179.255 39.6188 179.649 39.8507C180.043 40.0826 180.484 40.2216 180.94 40.2573C181.381 40.2343 181.812 40.1246 182.21 39.9343C182.609 39.7441 182.965 39.477 183.26 39.1486C184.268 38.1406 184.867 36.7961 184.943 35.3733C184.98 34.6642 184.863 33.9555 184.601 33.2957C184.338 32.6359 183.936 32.0405 183.422 31.5502C182.986 31.1607 182.482 30.8546 181.935 30.647C180.825 30.2264 178.237 29.9254 177.472 31.2013C177.161 31.727 177.281 32.635 177.29 33.2276C177.313 34.2735 177.433 35.315 177.649 36.3386Z" fill="url(#paint20_linear)"/>
<path d="M12.4507 47.9274C13.3628 48.396 14.0623 49.1939 14.407 50.1591C14.6171 50.6165 14.6725 51.1298 14.5648 51.6215C14.4357 52.0993 14.0865 52.4912 14.0865 52.9691C14.0865 53.1125 14.1439 53.2558 14.1439 53.3992C14.1439 53.901 13.6656 54.2403 13.1873 54.4458C12.9267 54.5973 12.6354 54.6883 12.3349 54.7123C12.0344 54.7363 11.7323 54.6926 11.451 54.5844C11.2423 54.4586 11.0577 54.2968 10.9057 54.1065C9.9507 53.0386 9.34492 51.7047 9.16944 50.2834C9.06899 49.2225 9.00681 48.1663 10.193 47.8031C10.9344 47.5595 11.7405 47.6039 12.4507 47.9274Z" fill="url(#paint21_linear)"/>
<path d="M195.146 59.3773C194.569 60.0381 193.826 60.533 192.994 60.811C192.075 61.0484 191.122 61.1244 190.177 61.0356L179.85 60.682C179.025 60.7267 178.202 60.5623 177.458 60.2041C177.127 60.019 176.86 59.7372 176.693 59.3965C176.397 58.7465 176.588 57.9962 176.789 57.3129C176.825 57.0808 176.94 56.8682 177.114 56.7107C177.292 56.6071 177.496 56.5574 177.702 56.5674C181.739 56.3993 185.781 56.4392 189.813 56.6868C189.612 56.2711 189.411 55.8457 189.225 55.4156C188.776 54.3992 188.402 53.3515 188.106 52.2807C187.937 51.6596 187.805 51.0294 187.709 50.393C187.336 47.8985 187.422 43.8842 189.569 42.0969C191.87 40.1854 193.951 45.6381 194.702 47.1195C195.687 49.0597 196.572 51.0955 196.816 53.2556C197.06 55.4156 196.591 57.7525 195.146 59.3773Z" fill="#68E1FD"/>
<path d="M179.711 60.5816C180.422 60.6258 181.134 60.5531 181.821 60.3665C182.146 60.2614 182.457 60.0989 182.777 60.0176C183.098 59.9364 183.347 59.9268 183.624 59.8599C183.893 59.7817 184.156 59.681 184.408 59.5589L188.551 57.6473C189.003 57.4542 189.438 57.2241 189.852 56.9592C189.909 56.9252 189.956 56.8754 189.986 56.8158C190.057 56.6342 189.833 56.4956 189.679 56.3761C189.373 56.1372 189.201 55.6736 188.828 55.6259C188.633 55.624 188.442 55.6788 188.278 55.7836C185.408 57.2555 182.007 57.3367 179.042 58.6127C178.592 58.8086 177.559 59.2865 177.774 59.9412C177.989 60.5959 179.19 60.5768 179.711 60.5816Z" fill="url(#paint22_linear)"/>
<path d="M191.133 53.9536C190.937 54.7947 190.143 55.2535 189.282 55.5593C189.133 55.6071 188.985 55.6597 188.832 55.7027L188.354 55.8365C186.217 56.4039 184.154 57.2204 182.207 58.269C180.184 59.3585 178.027 60.7444 175.779 60.2761C174.134 59.9272 172.828 58.6035 172.134 57.0742C171.506 55.511 171.203 53.8361 171.245 52.152C171.201 49.9967 171.364 47.7889 172.254 45.8295C172.254 45.8295 174.229 43.1486 175.478 42.4557C176.726 41.7627 177.568 44.0327 177.568 44.0327C177.778 44.6253 178.046 51.1198 178.151 53.729C181.184 53.4614 184.213 53.2782 187.239 53.1795L188.373 53.1412L190.186 53.103C190.525 53.103 190.937 53.1317 191.104 53.4327C191.176 53.5972 191.186 53.7822 191.133 53.9536Z" fill="#68E1FD"/>
<path d="M189.321 55.645C189.16 55.6434 188.999 55.6626 188.843 55.7023C188.426 55.7931 187.924 55.9269 187.924 55.9269C187.924 55.9269 187.532 54.6414 187.36 54.1205C187.274 53.8195 187.24 53.5059 187.259 53.1934L188.393 53.1552C188.661 53.9724 188.996 54.8326 189.311 55.5733C189.317 55.5968 189.32 55.6208 189.321 55.645Z" fill="url(#paint23_linear)"/>
<path d="M173.026 30.7659C172.155 29.8961 172.069 28.4959 172.069 27.2343C173.667 26.6226 175.418 27.5258 177.092 27.6644C178.34 27.7648 179.579 27.4446 180.822 27.2582C182.066 27.0718 183.391 27.0336 184.496 27.6453C185.601 28.257 186.357 29.7146 185.864 30.9141C186.084 30.8644 186.313 30.8869 186.519 30.9782C186.725 31.0694 186.896 31.2246 187.007 31.4206C187.232 31.8275 187.336 32.2899 187.308 32.7539C187.294 33.6428 187.067 34.5152 186.645 35.2978C186.223 36.0804 185.619 36.7502 184.883 37.2508C184.319 36.0036 185.453 34.3835 184.725 33.2127C184.554 32.9725 184.328 32.7766 184.066 32.6411C183.804 32.5057 183.514 32.4346 183.219 32.4337C182.635 32.4412 182.053 32.5182 181.487 32.6631C180.052 32.9403 178.326 33.141 176.891 32.7109C175.676 32.3525 173.925 31.6739 173.026 30.7659Z" fill="#3E3E54"/>
<path d="M176.999 51.4973C176.767 51.5265 176.553 51.64 176.399 51.8162C176.245 51.9924 176.16 52.219 176.162 52.4531C176.173 52.6858 176.233 52.9136 176.338 53.1219C176.442 53.3301 176.589 53.5142 176.77 53.6621C176.914 53.8189 177.096 53.9369 177.298 54.0054C177.501 54.0738 177.717 54.0905 177.927 54.054C178 54.0383 178.068 54.0037 178.123 53.9536C178.226 53.8339 178.282 53.6812 178.281 53.5235C178.315 53.1556 178.468 52.4626 178.281 52.1185C178.095 51.7745 177.353 51.4686 176.999 51.4973Z" fill="url(#paint24_linear)"/>
<path d="M188.507 52.2765C188.596 52.231 188.696 52.2145 188.795 52.229C188.894 52.2436 188.985 52.2886 189.057 52.3577C189.154 52.4975 189.201 52.6658 189.191 52.8356L189.244 54.4509C189.263 54.7771 189.263 55.1042 189.244 55.4305C189.244 55.4874 189.225 55.5427 189.191 55.5882C189.11 55.6695 188.971 55.5882 188.88 55.5261C188.3 55.0283 187.859 54.3897 187.598 53.6719C187.407 53.1319 188.024 52.482 188.507 52.2765Z" fill="url(#paint25_linear)"/>
<path d="M43.4015 35.7552C43.252 36.5813 42.9257 37.3653 42.4449 38.0538C42.205 38.3974 41.8909 38.6827 41.5258 38.8887C41.1607 39.0946 40.7539 39.216 40.3356 39.2438C39.5186 39.2077 38.7481 38.8545 38.1879 38.2593C37.2616 37.3822 36.7026 36.1868 36.6239 34.9141C36.5973 34.2785 36.7123 33.6449 36.9604 33.059C37.2086 32.4731 37.5837 31.9494 38.0588 31.5259C38.4661 31.178 38.9327 30.906 39.4363 30.723C40.4695 30.3503 42.8706 30.0779 43.5785 31.2009C43.8655 31.6788 43.7555 32.4864 43.7459 33.0025C43.7248 33.9294 43.6094 34.8517 43.4015 35.7552Z" fill="url(#paint26_linear)"/>
</g>
<defs>
<linearGradient id="paint0_linear" x1="52.7279" y1="97.2886" x2="30.3864" y2="69.1169" gradientUnits="userSpaceOnUse">
<stop stop-opacity="0"/>
<stop offset="0.99"/>
</linearGradient>
<linearGradient id="paint1_linear" x1="1474.18" y1="7802.12" x2="-191.557" y2="7130.48" gradientUnits="userSpaceOnUse">
<stop stop-opacity="0"/>
<stop offset="0.99"/>
</linearGradient>
<linearGradient id="paint2_linear" x1="1970.7" y1="513.276" x2="1985.01" y2="597.417" gradientUnits="userSpaceOnUse">
<stop stop-opacity="0"/>
<stop offset="0.99"/>
</linearGradient>
<linearGradient id="paint3_linear" x1="5356.91" y1="1350.13" x2="5318.05" y2="1567.01" gradientUnits="userSpaceOnUse">
<stop stop-opacity="0"/>
<stop offset="0.99"/>
</linearGradient>
<linearGradient id="paint4_linear" x1="7026.89" y1="2233.68" x2="7084.3" y2="1908.42" gradientUnits="userSpaceOnUse">
<stop stop-opacity="0"/>
<stop offset="0.99"/>
</linearGradient>
<linearGradient id="paint5_linear" x1="180.591" y1="39.9802" x2="184.954" y2="39.9802" gradientUnits="userSpaceOnUse">
<stop stop-color="#E5C5D5"/>
<stop offset="0.42" stop-color="#EAD4D1"/>
<stop offset="1" stop-color="#F0E9CB"/>
</linearGradient>
<linearGradient id="paint6_linear" x1="914.168" y1="20044.7" x2="1311.96" y2="20045.9" gradientUnits="userSpaceOnUse">
<stop stop-opacity="0"/>
<stop offset="0.99"/>
</linearGradient>
<linearGradient id="paint7_linear" x1="3851.49" y1="3942.3" x2="3432.22" y2="1814.74" gradientUnits="userSpaceOnUse">
<stop stop-opacity="0"/>
<stop offset="0.99"/>
</linearGradient>
<linearGradient id="paint8_linear" x1="2975.85" y1="3090.28" x2="1413.76" y2="3458.02" gradientUnits="userSpaceOnUse">
<stop stop-opacity="0"/>
<stop offset="0.99"/>
</linearGradient>
<linearGradient id="paint9_linear" x1="698.515" y1="5832.07" x2="289.845" y2="5844.65" gradientUnits="userSpaceOnUse">
<stop stop-opacity="0"/>
<stop offset="0.99"/>
</linearGradient>
<linearGradient id="paint10_linear" x1="700.409" y1="2194.31" x2="872.278" y2="2194.31" gradientUnits="userSpaceOnUse">
<stop stop-color="#E5C5D5"/>
<stop offset="0.42" stop-color="#EAD4D1"/>
<stop offset="1" stop-color="#F0E9CB"/>
</linearGradient>
<linearGradient id="paint11_linear" x1="284.7" y1="654.473" x2="295.61" y2="523.651" gradientUnits="userSpaceOnUse">
<stop stop-opacity="0"/>
<stop offset="0.99"/>
</linearGradient>
<linearGradient id="paint12_linear" x1="948.826" y1="3214.62" x2="1072.98" y2="4131.56" gradientUnits="userSpaceOnUse">
<stop stop-opacity="0"/>
<stop offset="0.99"/>
</linearGradient>
<linearGradient id="paint13_linear" x1="2406.07" y1="1371.74" x2="3023.48" y2="1371.74" gradientUnits="userSpaceOnUse">
<stop stop-color="#E5C5D5"/>
<stop offset="0.42" stop-color="#EAD4D1"/>
<stop offset="1" stop-color="#F0E9CB"/>
</linearGradient>
<linearGradient id="paint14_linear" x1="882.375" y1="4151.58" x2="180.392" y2="5028.23" gradientUnits="userSpaceOnUse">
<stop stop-opacity="0"/>
<stop offset="0.99"/>
</linearGradient>
<linearGradient id="paint15_linear" x1="19470.3" y1="889.875" x2="19468.5" y2="1612.24" gradientUnits="userSpaceOnUse">
<stop stop-opacity="0"/>
<stop offset="0.99"/>
</linearGradient>
<linearGradient id="paint16_linear" x1="19526" y1="897.242" x2="19524.2" y2="1619.61" gradientUnits="userSpaceOnUse">
<stop stop-opacity="0"/>
<stop offset="0.99"/>
</linearGradient>
<linearGradient id="paint17_linear" x1="5161.44" y1="589.39" x2="4848.51" y2="5762.64" gradientUnits="userSpaceOnUse">
<stop stop-opacity="0"/>
<stop offset="0.99"/>
</linearGradient>
<linearGradient id="paint18_linear" x1="7773.17" y1="380.422" x2="7768.9" y2="815.892" gradientUnits="userSpaceOnUse">
<stop stop-opacity="0"/>
<stop offset="0.99"/>
</linearGradient>
<linearGradient id="paint19_linear" x1="7799.31" y1="386.849" x2="7795.04" y2="822.315" gradientUnits="userSpaceOnUse">
<stop stop-opacity="0"/>
<stop offset="0.99"/>
</linearGradient>
<linearGradient id="paint20_linear" x1="3027.68" y1="1497.51" x2="3151.26" y2="1497.51" gradientUnits="userSpaceOnUse">
<stop stop-color="#E5C5D5"/>
<stop offset="0.42" stop-color="#EAD4D1"/>
<stop offset="1" stop-color="#F0E9CB"/>
</linearGradient>
<linearGradient id="paint21_linear" x1="114.578" y1="1323.37" x2="177.589" y2="1323.37" gradientUnits="userSpaceOnUse">
<stop stop-color="#E5C5D5"/>
<stop offset="0.42" stop-color="#EAD4D1"/>
<stop offset="1" stop-color="#F0E9CB"/>
</linearGradient>
<linearGradient id="paint22_linear" x1="4912.4" y1="1051.03" x2="4893.24" y2="923.855" gradientUnits="userSpaceOnUse">
<stop stop-opacity="0"/>
<stop offset="0.99"/>
</linearGradient>
<linearGradient id="paint23_linear" x1="988.264" y1="577.875" x2="1034.17" y2="565.922" gradientUnits="userSpaceOnUse">
<stop stop-opacity="0"/>
<stop offset="0.99"/>
</linearGradient>
<linearGradient id="paint24_linear" x1="990.167" y1="525.127" x2="1000.4" y2="525.127" gradientUnits="userSpaceOnUse">
<stop stop-color="#E5C5D5"/>
<stop offset="0.42" stop-color="#EAD4D1"/>
<stop offset="1" stop-color="#F0E9CB"/>
</linearGradient>
<linearGradient id="paint25_linear" x1="852.49" y1="684.853" x2="858.509" y2="684.853" gradientUnits="userSpaceOnUse">
<stop stop-color="#E5C5D5"/>
<stop offset="0.42" stop-color="#EAD4D1"/>
<stop offset="1" stop-color="#F0E9CB"/>
</linearGradient>
<linearGradient id="paint26_linear" x1="585.006" y1="1323.16" x2="691.678" y2="1323.16" gradientUnits="userSpaceOnUse">
<stop stop-color="#E5C5D5"/>
<stop offset="0.42" stop-color="#EAD4D1"/>
<stop offset="1" stop-color="#F0E9CB"/>
</linearGradient>
<clipPath id="clip0">
<rect width="219" height="118" fill="white"/>
</clipPath>
</defs>
</svg>
