<svg width="17" height="16" viewBox="0 0 17 16" fill="none" xmlns="http://www.w3.org/2000/svg">
<path fill-rule="evenodd" clip-rule="evenodd" d="M11.2124 7.91988C11.1175 6.07681 9.74971 4.96855 8.09779 4.96855H8.03554C6.12918 4.96855 5.07183 6.4678 5.07183 8.17055C5.07183 10.0775 6.35101 11.2818 8.02804 11.2818C9.89804 11.2818 11.1277 9.91221 11.2166 8.29205L11.2124 7.91988ZM8.04487 3.31998C9.31879 3.31998 10.5162 3.88276 11.3957 4.76427V4.76769C11.3957 4.34437 11.6803 4.02545 12.076 4.02545L12.176 4.02479C12.7945 4.02479 12.9214 4.61026 12.9214 4.79551L12.9246 11.3764C12.881 11.807 13.3691 12.0292 13.6399 11.7533C14.6966 10.6673 15.9606 6.17072 12.983 3.56532C10.2078 1.13617 6.48416 1.53663 4.5039 2.90156C2.39873 4.35357 1.05165 7.56671 2.36022 10.5847C3.78656 13.8772 7.86837 14.8586 10.2943 13.8797C11.5228 13.3837 12.0901 15.0445 10.8143 15.587C8.88645 16.4085 3.52099 16.3258 1.01465 11.9839C-0.678762 9.05205 -0.588603 3.89345 3.90271 1.22088C7.33854 -0.823436 11.8683 -0.257211 14.5997 2.59546C17.455 5.57756 17.2885 11.1616 14.5035 13.3339C13.2416 14.3197 11.3675 13.3597 11.3795 11.9223L11.3666 11.4523C10.4879 12.3242 9.31879 12.8329 8.04487 12.8329C5.52798 12.8329 3.3134 10.618 3.3134 8.10213C3.3134 5.56001 5.52798 3.31998 8.04487 3.31998Z" fill="black"/>
</svg>
