<svg width="19" height="17" viewBox="0 0 19 17" fill="none" xmlns="http://www.w3.org/2000/svg">
<path d="M16.6052 0H3.18411C1.95049 0 0.947266 0.953062 0.947266 2.125V14.875C0.947266 16.0469 1.95049 17 3.18411 17H16.6052C17.8388 17 18.842 16.0469 18.842 14.875V2.125C18.842 0.953062 17.8388 0 16.6052 0Z" fill="#1976D2"/>
<path d="M16.0468 8.5H13.2508V6.375C13.2508 5.7885 13.7518 5.84375 14.3692 5.84375H15.4876V3.1875H13.2508C11.3976 3.1875 9.89553 4.61444 9.89553 6.375V8.5H7.65869V11.1562H9.89553V17H13.2508V11.1562H14.9284L16.0468 8.5Z" fill="#FAFAFA"/>
</svg>
