<svg width="14" height="19" viewBox="0 0 14 19" fill="none" xmlns="http://www.w3.org/2000/svg">
<path d="M6.99967 14.1648C6.07884 14.1648 5.33301 13.4182 5.33301 12.4982C5.33301 11.5782 6.07884 10.8315 6.99967 10.8315C7.91967 10.8315 8.66634 11.5782 8.66634 12.4982C8.66634 13.4182 7.91967 14.1648 6.99967 14.1648ZM11.9997 16.6648V8.33154H1.99967V16.6648H11.9997ZM11.9997 6.66487C12.9197 6.66487 13.6663 7.41154 13.6663 8.33154V16.6648C13.6663 17.5849 12.9197 18.3315 11.9997 18.3315H1.99967C1.07884 18.3315 0.333008 17.5849 0.333008 16.6648V8.33154C0.333008 7.41154 1.07884 6.66487 1.99967 6.66487H2.83301V4.99821C2.83301 2.69738 4.69883 0.831543 6.99967 0.831543C9.30051 0.831543 11.1663 2.69738 11.1663 4.99821V6.66487H11.9997ZM7.00017 2.49984C5.61942 2.49984 4.50017 3.61912 4.50017 4.99984V6.6665H9.50017V4.99984C9.50017 3.61912 8.38084 2.49984 7.00017 2.49984Z" fill="#344248"/>
</svg>
