<svg width="18" height="18" viewBox="0 0 18 18" fill="none" xmlns="http://www.w3.org/2000/svg">
<path d="M13.2094 11.6195C14.0951 10.4099 14.6249 8.92413 14.6249 7.31346C14.6249 3.2815 11.3444 0.000976562 7.31245 0.000976562C3.28048 0.000976562 0 3.2815 0 7.31346C0 11.3454 3.28052 14.6259 7.31248 14.6259C8.92315 14.6259 10.409 14.0961 11.6186 13.2103L16.4092 18.0009L18 16.4101C18 16.41 13.2094 11.6195 13.2094 11.6195ZM7.31248 12.3759C4.52086 12.3759 2.25001 10.1051 2.25001 7.31346C2.25001 4.52184 4.52086 2.25098 7.31248 2.25098C10.1041 2.25098 12.375 4.52184 12.375 7.31346C12.375 10.1051 10.1041 12.3759 7.31248 12.3759Z" fill="#B0B4B8"/>
</svg>
